<?xml version="1.0" encoding="utf-8"?>
<!-- Generator: Adobe Illustrator 21.1.0, SVG Export Plug-In . SVG Version: 6.00 Build 0)  -->
<svg version="1.1" id="Ebene_1" xmlns="http://www.w3.org/2000/svg" xmlns:xlink="http://www.w3.org/1999/xlink" x="0px" y="0px"
	 viewBox="0 0 181.1 428.9" style="enable-background:new 0 0 181.1 428.9;" xml:space="preserve">
<path d="M172,298.7c-0.1-1.2-0.1-2.4-0.2-3.6c-0.7-8.9-1.4-17.9-2.2-26.8c-0.6-6.4-1.3-12.8-2-19.2c0-0.5-0.1-1.2,0.1-1.4
	c2-1.3,0.6-2.3,0-3.5c-0.4-0.6-0.6-1.3-0.8-2c-1.6-4.7-2.9-9.5-4.7-14.1c-2.6-6.6-5.6-13.1-8.5-19.6c-1-2.3-2.5-4.4-3.7-6.6
	c-4.2-7.2-8.4-14.4-12.6-21.6c-2.8-4.8-2.2-9.7,0.1-14.2c2.3-4.8,5.2-9.3,8-13.8c4.2-6.8,8.9-13.3,11.7-20.9
	c3.6-9.7,7.2-19.3,4.7-30c-2.2-9.5-7.7-16.1-16.6-19.6c-5.6-2.2-11.6-3.5-17.8-3.1c-1.3,0.1-2.7-0.1-4-0.5c-2.3-0.7-4.5-1.5-6.8-2.4
	c-2.5-1-4.4-2.7-4.7-5.5c-0.3-2.4-0.4-4.8-0.1-7.2c0.3-3.2,0.6-3.2,3.8-3.6c2.5-0.3,5-0.8,7.4-1.6c2.8-0.9,4.1-3.3,4-6.2
	c-0.2-3-1.3-4.4-4.5-5.3c-3.6-0.9-7.2-1.8-11.1-0.8c-1.8,0.5-3.9,0.2-5.8,0.4c-1.7,0.1-1.4-0.6-0.9-1.7c0.8-1.8,1.7-3.5,2.2-5.4
	c0.9-3.7,1.8-7.4-0.6-10.9c-2.5-3.5-6.1-5.6-10.2-6.5c-4.7-1-11.1,2.7-13.2,7.6c-2,4.5-3,9.3-0.9,14.1c0.6,1.5,0,1.7-1.2,1.7
	c-3.6-0.1-7.2-0.2-10.9-0.5c-3.5-0.2-6.8,0.3-9.3,3c-2.3,2.5-2.6,6-0.5,8.2c2.6,2.5,5.6,4.2,9.3,4.4c0.8,0,1.7,0,2.5,0.1
	c1.2,0.1,1.6,0.7,1.4,2c-0.3,1.8-0.6,3.6-0.6,5.4c0.2,5-2.3,8-6.6,9.7c-1.5,0.6-3.3,0.9-4.9,1.1C55.4,79,49.4,79.1,43.6,80
	c-7.6,1.2-13.9,4.5-16.6,12.6c-4.4,12.7-4.3,25.3,1,37.6c2.9,6.8,6.6,13.2,9.9,19.8c0.4,0.9,1.1,1.6,1.7,2.3c3.6,4.1,5.7,9,7.2,14.1
	c0.5,1.7,0.4,3.9-0.2,5.7c-1.1,3.6-2.4,7.1-4.1,10.5c-2.6,5.3-5.8,10.4-8.2,15.8c-3.6,7.9-7.2,15.9-10.2,24.1
	c-2.8,7.7-4.9,15.7-7,23.7c-0.9,3.4-0.9,7-1.8,10.4c-2.8,10.4-4.3,20.8-4.2,31.6c0,1.9-0.2,3.9-1,5.6c-1.8,4-1,7.5,2.9,9.3
	c4.2,2,8.5,3.5,13.2,3.8c5.3,0.4,10.6,1.2,15.9,1.8c8.4,0.9,16.8,2,25.3,2.7c8,0.7,16,0.9,24,1.3c1.7,0.1,2.6,0.4,2.6,2.5
	c-0.1,10.3-0.1,20.6-0.2,30.9c0,0.6-0.3,1.5-0.8,1.8c-5.6,3.5-7.8,9.1-9.8,14.8c-1.3,3.6-2.9,7.2-4.4,10.8
	c-1.7,4.3-3.6,8.5-5.1,12.8c-1.7,4.7-4.4,8.7-8,12c-3.6,3.3-11.5,1.8-13.6-2.5c-1.1-2.3-2.2-4.7-2.6-7.1c-0.6-4.2,0.2-8.2,3.5-11.3
	c2-1.9,5.5-1.6,6.6,0.6c1.5,2.8,2,5.7,0.4,8.7c-1.1,2.2-2.4,2.3-3.7,0.3c-0.3-0.4-0.5-0.8-0.7-1.3c-0.5-1-1.2-2-2.5-1.4
	c-1.1,0.5-2.2,1.4-1.8,2.8c0.6,1.9,1.4,3.8,2.3,5.6c0.8,1.4,2.2,1.7,3.8,1.6c6.9-0.6,12-9.9,8.8-16.1c-2.4-4.6-9.2-7.7-14.2-6.4
	c-1.2,0.3-2.5,1-3.5,1.9c-6,5.2-8.2,11.5-5.7,19.3c2.4,7.4,8.9,13.1,15.9,13.6c4,0.3,7.4-1.3,10.6-3.3c1.4-0.9,2.9-1.9,3.8-3.3
	c4.6-7.1,7.1-15.1,9.9-22.9c1.6-4.5,2.8-9,4.6-13.4c1.3-3.2,3-6.3,5.9-8.6c0.1,2.2,0.3,4.4,0.2,6.5c-0.1,4.4-0.3,8.7-0.6,13.1
	c-0.1,1.8,0.4,3.3,2.1,4.3c2.9,1.7,7.1-0.1,7.7-3.4c0.2-1.2,0.2-2.4,0.1-3.6c-0.1-5.3-0.3-10.7-0.4-16c0-0.4,0.2-0.9,0.3-1.3
	c0.4,0.2,0.9,0.2,1.3,0.5c0.5,0.3,0.9,0.9,1.3,1.3c3.6,3.3,5.9,12.4,7.6,16.9c2.7,7.2,5.2,14.6,7.8,21.9c1.1,3.2,2.4,6.3,5.3,8.5
	c6.8,5.1,13.9,5,21.2,1.3c1.5-0.7,2.8-2,3.8-3.2c5.4-6.5,5-13.8,2.5-21.3c-0.4-1.1-1.3-2-2.1-2.9c-2.4-2.7-5.7-2.9-9-3.2
	c-5.7-0.5-11.9,3.1-13.8,8.5c-0.3,0.9-0.5,1.9-0.3,2.8c0.5,3.7,1.9,7,4.5,9.7c2.5,2.7,6.2,2.7,9.1,0.1c1.3-1.2,2.5-2.6,3.7-4
	c1.1-1.4,1-4-0.3-5.2c-1-0.9-2-0.9-2.7,0.3c-0.6,0.9-1,2-1.6,2.9c-1.4,1.9-3.8,2.4-5.4,1.2c-2.9-2.3-3.1-7.7-0.2-10
	c2.4-1.8,5.1-2.9,8.2-1.9c3,1,4,3.5,4.3,6.2c0.4,3.4,0.5,6.8,0.5,10.2c0,2.4-1.3,4.5-3.3,5.8c-3.4,2.1-7.1,3.1-11.1,1.8
	c-2-0.6-3.5-1.7-4.5-3.4c-1.3-2.2-2.6-4.4-3.5-6.8c-3-7.8-5.7-15.7-8.7-23.5c-2.7-6.7-6.5-17.8-13.5-20.9c-1.6-0.7-1.6-1.8-1.7-3.2
	c-0.1-8.5-0.2-17-0.3-25.5c0-1.2,0.2-2.4,0.2-3.6c0-1.7,0.7-2.1,2.4-2.1c7.3-0.2,14.6-0.4,21.8-1.1c8.9-0.8,17.8-1.9,26.7-3.1
	c4.3-0.6,8.5-1.7,12.8-2.7c0.9-0.2,1.8-0.7,2.7-1.1C170.9,304.1,172.3,301.9,172,298.7z M168.1,303.2c-1.3,0.5-2.7,1.2-4.1,1.5
	c-5,0.9-10,1.9-15,2.5c-9.9,1.3-19.7,2.3-29.6,3.5c0-0.2,0-0.3,0-0.5c-5,0.2-10,1.1-14.8,0.5c-10.5-1.3-21.2-0.9-31.7-2
	c-7.5-0.8-15-1-22.4-1.6c-2.6-0.2-5.3-0.6-7.9-1.2c-5.5-1.2-11-1.2-16.5-1.7c-3.5-0.3-7-1.8-10.5-2.8c-1.8-0.6-2.5-1.8-2.4-3.9
	c0.7-8.8,1.1-17.6,1.8-26.5c0.2-2.2,0.7-4.3,1.2-6.4c2-9.3,3.6-18.8,6.2-28c2.4-8.5,5.5-16.8,9-24.9c3.7-8.4,8.3-16.4,12.4-24.7
	c1.8-3.7,3.3-7.6,4.8-11.4c2-5,1.6-10-0.7-14.7c-1.5-3-3-6.2-5-8.8c-3.9-5-6.4-10.8-9.4-16.3c-0.7-1.3-1.3-2.6-1.9-3.9
	c-4-7.9-5.8-16.3-5-25c0.6-5.7,1.3-11.7,4.9-16.5c3-4.1,7-7,12.3-7.5c4.2-0.3,8.5-0.6,12.7-1c4.9-0.5,9.9-0.8,14.1-4
	c3-2.2,4.5-4.9,4.5-8.6c0-2.3,0.2-4.6,0.2-6.9c0-4.6-0.3-5-4.8-5.3c-2.4-0.1-4.5-1-6.4-2.4c-2.5-1.8-2.2-5,0.6-6.3
	c1.2-0.5,2.6-0.9,3.9-0.8c6.2,0.1,12.3,0.5,18.5,0.7c1.4,0.1,3.4,0.7,3.8-0.8c0.4-1.6-1.5-2.2-2.9-2.7c-2.1-0.8-3.3-2.4-3.9-4.5
	c-1.1-4.2-0.6-8.2,2.6-11.4c2-2.1,3.9-4,7.2-4.3c6.4-0.7,13.8,7.4,10.1,14.5c-1.5,2.8-2.4,6.2-5.9,7.5c-0.5,0.2-1,1.5-0.8,1.7
	c0.5,0.6,1.3,1.1,2,1.1c4.1-0.1,8.2-0.5,12.4-0.5c2.9-0.1,5.8,0.2,8.7,0.4c0.7,0,1.4,0.4,2.1,0.6c1.3,0.3,2.1,1.1,2.2,2.5
	c0.1,1.5-0.7,2.4-1.9,2.8c-2.2,0.6-4.5,1-6.7,1.5c-1.9,0.4-3.8,0.8-5.6,1.5c-1.6,0.6-2.3,2-2.4,3.8c-0.1,4.2,0.6,8.2,2.1,12.1
	c0.8,2.2,2.5,4,4.8,4.7c3.6,1,7.3,2.2,10.9,2.4c6.1,0.2,12.1,0.9,17.8,3c8.7,3.2,14.1,9.2,15.8,18.6c1.2,6.6,0,12.8-2,18.9
	c-3,9.4-7.3,18.2-12.9,26.4c-3.5,5.1-6.5,10.5-9.6,15.9c-3.4,5.9-3.8,11.9-0.2,17.9c4.4,7.3,8.7,14.5,12.9,21.9
	c2,3.6,3.7,7.3,5.5,11c1.2,2.5,2.2,5.1,3.4,7.6c2.2,4.5,4.2,9,4.6,14c0,0.6,0.2,1.2,0.4,1.8c3.2,6.9,3,14.4,4.1,21.7
	c2,13.7,2.9,27.5,3.4,41.3C169.3,302.1,169.1,302.8,168.1,303.2z"/>
<polygon points="50,330.7 49.8,330.8 49.8,330.6 "/>
<path d="M156.8,110.7c-0.6,5.9-1.6,11.2-5.6,15.2c-1,1-2,1.9-0.5,3.6c1.1,1.2,0.4,2.8-1.5,3.8c-2,1.1-4.1,2.2-6.3,2.7
	c-4.6,1.2-7.3,4.5-9.7,8.2c-0.9,1.3-1.7,2.7-2.6,4c-0.2,0.3-0.7,0.4-1.1,0.5c-0.1-0.4-0.3-0.9-0.2-1.3c0.2-0.7,0.6-1.3,0.8-2
	c2.8-6.7,7.7-11.5,13.2-16c2.4-2,4.7-4.2,6.8-6.5c3.2-3.5,3.9-8,3.8-12.5c0-1.3-0.8-2.8-1.6-4c-0.9-1.4-2.5-1.4-4-0.9
	c-1.3,0.5-2.6,2.6-2.2,3.9c0.4,0.9,1.2,1.9,2.1,2.3c0.6,0.2,1.6-0.6,2.4-1c0.4-0.2,0.7-0.5,1.1-0.8c0.1,0.6,0.4,1.2,0.3,1.6
	c-0.5,2.2-2.2,3.4-4.2,3.3c-2.1-0.2-4.2-2.3-4.5-4.6c-0.4-3.3,2.1-6.8,5.4-7.6c2.9-0.7,5.3,0.6,6.7,4.1
	C156.4,108.1,156.6,109.7,156.8,110.7z"/>
<path d="M157.4,290.3c-0.2,2.8-0.3,5.3-0.6,7.7c-0.1,0.7-0.6,1.6-1.2,2.1c-0.6,0.5-1.5,0.4-2.3,0.6c0-0.7-0.2-1.4-0.1-2.1
	c0.3-2,0.8-4,1.1-6c0.4-2.8,0.2-5.6-1.3-8.1c-0.6-0.9-1.6-1.9-2.6-2.1c-1.5-0.3-2.7,0.8-3.4,2.2c-0.3,0.5-0.3,1.2-0.6,1.7
	c-0.3,0.5-0.9,0.9-1.4,1.3c-0.3-0.5-0.7-1-0.7-1.5c-0.3-3.1,1.2-5.3,4.2-6.4c2.6-0.9,4.3-0.3,6.3,2.2
	C156.8,284.5,157.3,287.6,157.4,290.3z"/>
<path d="M138.9,304.3c-3,0.2-6.1-2.6-6.9-6.2c-0.7-3.3,1.5-7.9,4.5-9.2c0.4-0.2,1-0.1,1.3,0.1c0.2,0.2,0.3,0.9,0.1,1.3
	c-0.3,0.6-0.9,1.2-1.3,1.8c-0.5,0.8-1.2,1.6-1.5,2.5c-1.4,3.6,1.1,6.9,5,6.6c1.9-0.2,3.8-0.6,5.7-0.7c0.6,0,1.3,0.8,1.9,1.2
	c-0.5,0.6-1,1.5-1.6,1.6C143.8,303.8,141.3,304,138.9,304.3z"/>
<path d="M136.6,281.4c-0.3,0.4-0.8,1.3-1.5,1.6c-1.2,0.4-1.7-0.6-1.9-1.6c-0.8-3-1.7-6-2.4-9c-0.1-0.6,0.2-1.8,0.7-2.1
	c0.6-0.3,1.7-0.1,2.2,0.3c0.7,0.6,1.1,1.6,1.3,2.5C135.7,275.6,136.1,278.2,136.6,281.4z"/>
<path d="M144.6,273.5c-0.3,1-0.3,1.5-0.5,1.9c-0.9,1.7-1.9,3.3-2.9,5c-0.5,0.9-1.3,1.7-2.3,0.9c-0.5-0.4-0.7-1.4-0.6-2.1
	c0.2-2,0.5-4,0.9-6c0.3-1.5,1.9-2.5,3.3-1.9C143.4,271.8,144.1,272.9,144.6,273.5z"/>
<path d="M132.9,282.9c-0.2,0.7-0.3,1-0.4,1.1c-1.6,1.5-3.1,3-4.9,4.2c-0.6,0.4-1.9,0.2-2.6-0.3c-0.5-0.3-0.6-1.5-0.4-2.2
	c0.7-2.8,3.9-5,6.3-4.2C131.7,281.7,132.3,282.4,132.9,282.9z"/>
<path d="M144.4,293c0,0.5,0,0.9-0.1,1.2c-0.2,0.4-0.5,1-0.8,1c-0.3,0.1-1-0.3-1.1-0.6c-0.8-2-1.5-4-2.2-6.1
	c-0.1-0.3,0.1-0.9,0.3-0.9c0.5-0.1,1.2-0.3,1.6,0C143.9,288.9,144,291.1,144.4,293z"/>
<path d="M144.6,122.1c-1.3,0.2-1.9-0.6-2-1.8c-0.1-1.6,1.3-3.3,2.7-3.3c1.4,0,2.3,0.8,2.4,2.2C147.8,121,146.6,122,144.6,122.1z"/>
<path d="M140.1,127.8c0.1,1.8-0.6,2.5-1.7,2.3c-0.7-0.1-1.2-0.9-1.8-1.3c0.6-0.8,1.2-1.6,1.8-2.4C139,126.9,139.7,127.5,140.1,127.8
	z"/>
<path d="M130.9,134.1c0.7,0.9,1.4,1.4,1.5,1.9c0.3,1.2-0.5,1.9-1.5,1.9c-0.4,0-1.2-0.9-1.1-1.4C129.8,135.9,130.4,135.2,130.9,134.1
	z"/>
</svg>
