<?xml version="1.0" encoding="UTF-8" standalone="no"?>
<svg width="214px" height="127px" viewBox="0 0 214 127" version="1.1" xmlns="http://www.w3.org/2000/svg" xmlns:xlink="http://www.w3.org/1999/xlink">
    <!-- Generator: Sketch 41.1 (35376) - http://www.bohemiancoding.com/sketch -->
    <title>Butterfly / Black</title>
    <desc>Created with Sketch.</desc>
    <defs></defs>
    <g id="Symbols" stroke="none" stroke-width="1" fill="none" fill-rule="evenodd">
        <g id="Butterfly-/-Black" fill="#000000">
            <path d="M153.062847,122.218115 C146.243363,121.885397 140.089195,121.55268 133.879585,121.330869 C130.497564,121.219963 127.060101,121.330869 123.622638,121.219963 C118.189229,120.998152 112.755819,120.720887 107.32241,120.443623 C106.878866,120.443623 106.379879,120.277264 105.936336,120.332717 C105.27102,120.443623 104.605705,120.609982 103.940389,120.77634 C104.439376,121.219963 104.88292,121.94085 105.437349,122.051756 C109.373799,122.883549 113.365692,123.659889 117.302141,124.380776 C117.912014,124.491682 118.632772,124.325323 119.187202,124.547135 C119.519859,124.658041 119.90796,125.212569 119.90796,125.545287 C119.90796,125.822551 119.464416,126.377079 119.131759,126.432532 C118.133786,126.654344 117.080369,126.987061 116.137839,126.820702 C104.051275,125.046211 91.8538253,124.158965 80.044476,120.277264 C68.1242409,116.340111 58.3662809,109.907579 49.7171801,101.146026 C47.0004753,98.3733826 44.1728847,95.7116451 41.6225088,92.7726433 C39.9037772,90.7763401 37.7969449,89.6672828 35.3574549,89.0018484 C30.8111327,87.7818854 28.5934145,84.676525 29.3696159,80.0184843 C29.7022736,78.077634 29.3696159,76.5804067 28.1498709,75.1386322 C24.9896225,71.3678373 21.995703,67.3197782 17.5048237,65.2125693 C14.732676,63.8817006 11.6278705,62.9944547 8.57850806,62.7726433 C4.30940058,62.4399261 2.590669,64.7689464 3.2005415,69.038817 C3.64408513,72.1996303 6.58256171,75.194085 9.57648124,75.5268022 C11.5724276,75.7486137 12.4040719,74.805915 11.7387565,72.9205176 C10.8516692,70.25878 9.24382351,69.4269871 6.41623285,69.87061 C6.08357512,69.9260628 5.64003149,69.2606285 5.25193081,68.9279113 C5.80636035,68.3733826 6.24990398,67.4861368 6.85977648,67.3752311 C9.35470942,66.9316081 14.0673605,71.5896488 13.9010317,74.1404806 C13.7347028,76.6913124 11.5724276,78.2439926 9.02205169,77.6340111 C3.42231332,76.3585952 -0.403250524,69.7042514 1.2600381,64.2698706 C1.8699106,62.3844732 3.25598445,61.4972274 5.08560194,61.0536044 C10.4635685,59.7781885 15.3979914,60.9426987 19.8888707,63.8817006 C22.3283607,65.4898336 24.5460789,67.4861368 26.9301259,69.2606285 C27.2627836,69.5378928 27.7063273,69.6487985 28.1498709,69.8151571 C28.2053139,69.4269871 28.4270857,68.9833641 28.3716427,68.650647 C27.0410118,63.4935305 25.654938,58.336414 21.8293741,54.5101664 C19.556213,52.181146 16.6731794,50.4066543 13.8455887,48.6876155 C11.9605283,47.5785582 9.18838056,48.5212569 8.13496443,50.0739372 C7.24787716,51.4048059 7.63597784,53.7338262 9.18838056,55.064695 C9.68736714,55.5083179 10.6298974,55.5083179 11.3506558,55.7301294 C11.128884,55.064695 10.9625551,54.3438078 10.6853403,53.7338262 C10.4081255,53.1792976 9.96458192,52.6247689 9.63192419,52.1256932 C10.4081255,52.1256932 11.2397699,51.9038817 11.9050853,52.181146 C14.2336894,53.1238447 15.2871055,54.8428835 14.6217901,56.2292052 C13.5683739,58.5582255 11.6833135,59.1127542 9.07749465,57.8373383 C6.41623285,56.5619224 4.36484354,52.9020333 4.97471604,50.6284658 C5.69547444,48.1330869 9.18838056,46.025878 12.293186,46.1367837 C15.1762196,46.2476895 17.5602666,47.5231054 19.8334278,49.1866913 C24.5460789,52.6247689 27.6508843,57.2273567 29.9794884,62.4399261 C31.2546763,65.2680222 32.1972066,68.3179298 33.1397368,71.2569316 C33.8050522,73.2532348 34.5258106,74.6950092 37.0761865,75.194085 C41.4561799,76.025878 43.9511129,80.12939 43.6738981,84.676525 C43.6184551,85.5083179 43.8956699,86.5619224 44.4500994,87.116451 C49.883509,92.7171904 56.2040057,97.2088725 62.7462743,101.367837 C63.189818,101.645102 63.7442475,101.81146 64.2986771,101.977819 C64.5204489,102.033272 65.0194355,102.033272 65.0194355,101.977819 C65.0748784,101.645102 65.1303214,101.256932 65.0194355,100.979667 C64.2432341,99.7042514 63.4115898,98.4842884 62.5799455,97.2643253 C55.3169185,86.5619224 48.1647774,75.7486137 42.7868108,63.9926063 C36.7435288,50.7948244 31.4764482,37.2643253 30.8665757,22.4584104 C30.7002468,18.5212569 31.1992334,14.5286506 31.5318911,10.5914972 C31.69822,8.42883549 33.0288509,7.9297597 35.1911261,7.87430684 C41.9551665,7.70794824 46.0025022,11.3123845 48.608321,17.0794824 C51.3804687,23.2347505 56.2594487,27.116451 62.3027307,29.6672828 C64.2986771,30.4990758 64.9085495,30.1663586 65.1857643,27.8927911 C66.2391804,19.9630314 68.7895563,12.4768946 71.8389188,5.10166359 C72.1715765,4.32532348 72.5596772,3.60443623 72.9477779,2.88354898 C74.6110665,-0.0554528651 76.0525833,-0.554528651 78.9910599,1.05360444 C81.5968788,2.49537893 84.7571272,2.93900185 86.8639594,5.54528651 C88.4163621,7.43068392 89.4143353,9.3715342 89.6915501,11.7005545 C89.8578789,13.2532348 90.1905367,14.8613678 90.0796508,16.4140481 C89.802436,20.1848429 91.7429394,22.6802218 94.7923019,24.1774492 C98.8950805,26.2292052 103.164188,27.948244 107.377852,29.7781885 C110.759873,31.2754159 114.08645,32.7726433 116.470497,35.8225508 C116.747712,36.155268 117.135812,36.4879852 117.46847,36.8207024 C125.008712,43.6414048 127.836303,52.181146 126.561115,62.1626617 C126.505672,62.4399261 126.394786,62.7171904 126.450229,62.9944547 C126.505672,63.715342 126.616558,64.3807763 126.672001,65.0462107 C127.337316,64.8798521 128.058074,64.7689464 128.72339,64.4916821 C131.218323,63.5489834 133.60237,62.4399261 136.152746,61.6081331 C139.590209,60.5545287 142.972229,61.1645102 146.077035,62.7726433 C150.068927,64.8798521 153.894491,67.2643253 157.830941,69.4824399 C160.880303,71.2014787 163.874223,72.9759704 167.034471,74.5286506 C168.198773,75.0831793 169.695733,75.194085 171.081807,75.1386322 C178.178505,74.6395564 185.053431,75.5822551 191.872915,77.5231054 C192.649116,77.7449168 193.48076,77.9667283 194.312405,78.077634 C198.858727,78.5767098 203.183277,79.8521257 206.731626,82.9020333 C211.333392,86.8391867 214.438197,91.663586 213.661996,98.0406654 C213.218452,101.922366 210.55719,104.695009 208.006814,107.356747 C203.23872,112.45841 196.862781,114.898336 190.375955,116.672828 C184.720774,118.225508 178.84382,119.390018 173.02231,120.166359 C166.036498,121.275416 159.217015,121.663586 153.062847,122.218115 Z M149.348169,119.112754 C158.219041,117.948244 167.75523,116.89464 177.235975,115.397412 C187.382035,113.733826 196.419237,109.685767 203.23872,101.589649 C206.010868,98.3179298 206.842512,94.7689464 204.791123,91.7190388 C202.185304,87.8373383 198.858727,84.4547135 194.146076,83.3456562 C188.324566,81.9038817 182.447612,80.5730129 176.570659,79.8521257 C169.917505,79.0757856 163.929666,76.6358595 158.052713,73.6968577 C153.229176,71.2569316 148.23931,69.0942699 143.249444,66.9316081 C136.097303,63.8817006 129.943135,66.7097967 124.565168,71.090573 C114.918094,78.9648799 105.659121,87.2273567 96.1783757,95.323475 C90.8558521,99.87061 85.4224426,104.306839 80.044476,108.743068 C78.6029592,109.907579 78.7138451,110.961183 80.2662479,111.68207 C82.539409,112.680222 84.8125701,113.900185 87.2520601,114.232902 C96.4555905,115.508318 105.714564,116.672828 114.973537,117.504621 C122.569222,118.170055 130.275793,118.280961 137.92692,118.613678 C141.475269,118.724584 145.079061,118.890943 149.348169,119.112754 Z M67.8470261,45.3604436 C68.0687979,45.3604436 68.2905698,45.3604436 68.4568986,45.4158965 C68.4568986,48.1885397 68.1796838,50.961183 68.5123416,53.7338262 C69.4548718,62.6062847 70.5082879,71.5341959 71.7834759,80.3512015 C72.892335,88.1146026 74.2229659,95.8225508 75.6644827,103.530499 C76.2743552,106.857671 76.9396706,107.079482 79.4346036,104.916821 C86.143201,99.1497227 92.7963555,93.271719 99.44951,87.4491682 C105.492792,82.181146 111.591517,76.9131238 117.523913,71.5341959 C121.682135,67.7079482 123.788967,62.9390018 123.123651,57.1719039 C123.012766,56.0628466 122.790994,54.9537893 122.790994,53.844732 C122.735551,46.3585952 119.076316,40.702403 113.642906,35.9889094 C108.985698,31.9408503 102.997859,30.6654344 97.5090066,28.2809612 C91.1330669,25.5637708 84.8680131,22.6247689 85.2006708,13.974122 C85.2561137,12.9205176 84.6462412,11.8669131 84.3690265,10.7578558 C83.5373822,7.81885397 81.319664,6.32162662 78.5475163,5.37892791 C77.2168854,4.93530499 76.3297981,5.26802218 75.8862545,6.48798521 C73.6685363,12.6432532 70.7855027,18.6321627 69.5103147,25.0092421 C68.1242409,31.6081331 68.3460127,38.5397412 67.8470261,45.3604436 Z M64.5204489,41.090573 C64.5204489,38.9833641 64.5758918,36.8207024 64.5204489,34.7134935 C64.4650059,33.4380776 64.1877911,32.3290203 62.4690596,32.3844732 C59.530583,32.4399261 56.9247641,31.3863216 54.707046,29.3900185 C50.6042674,25.7855823 47.0559183,21.7375231 44.1174417,17.0240296 C42.8976967,15.0277264 40.6799786,13.4750462 38.6840322,12.0887246 C37.0207436,10.9242144 35.8564415,11.5896488 35.5237838,13.5304991 C34.1931529,20.7948244 34.026824,28.1700555 35.4128979,35.323475 C36.7435288,41.9778189 38.8503611,48.6321627 41.7333947,54.7319778 C46.4460458,64.7134935 51.9348983,74.3622921 57.4791937,83.9556377 C61.6374152,91.1090573 66.4609523,97.9297597 71.0627175,104.805915 C71.3953752,105.304991 72.1715765,105.526802 72.7260061,105.859519 C72.7260061,105.249538 72.836892,104.584104 72.7260061,104.029575 C72.0052477,100.591497 71.2290463,97.2088725 70.397402,93.7707948 C66.4609523,76.4695009 65.4075361,58.780037 64.5204489,41.090573 Z" id="Shape"></path>
            <path d="M109.262913,111.571165 C121.238591,111.848429 132.715283,109.186691 143.859316,105.083179 C148.960068,103.197782 154.116263,101.367837 159.050686,99.1497227 C162.87625,97.4306839 162.931693,94.2144177 159.327901,92.1072089 C157.830941,91.2754159 156.112209,90.831793 154.448921,90.3327172 C151.787659,89.5563771 150.956014,88.3918669 151.288672,85.7301294 C151.732216,82.5693161 150.845129,81.1275416 147.629437,80.8502773 C143.914759,80.5175601 140.089195,80.6839187 136.319075,80.5730129 C135.598316,80.5730129 134.822115,80.2957486 134.101356,80.12939 C134.600343,79.6857671 135.09933,78.9648799 135.653759,78.7985213 C141.641598,77.0240296 147.629437,75.6377079 153.672719,78.7985213 C155.169679,79.5748614 155.94588,80.6839187 155.834994,82.2920518 C155.613223,84.7319778 156.666639,85.4528651 159.050686,85.5083179 C164.373209,85.6746765 168.309659,89.4454713 168.753203,94.6580407 C169.085861,98.5397412 166.868142,101.367837 164.206881,103.696858 C161.545619,105.970425 158.440813,107.467652 154.726135,107.689464 C153.284619,107.80037 151.953988,109.020333 150.457028,109.297597 C142.085142,110.90573 133.713256,112.680222 125.285927,113.789279 C119.464416,114.510166 113.53202,114.232902 107.599624,114.288355 C106.878866,114.288355 106.047222,113.789279 105.492792,113.290203 C105.104691,112.957486 104.993805,112.236599 104.716591,111.68207 C105.215577,111.571165 105.714564,111.2939 106.21355,111.2939 C107.266967,111.404806 108.26494,111.515712 109.262913,111.571165 Z" id="Shape"></path>
        </g>
    </g>
</svg>