<?xml version="1.0" encoding="utf-8"?>
<!-- Generator: Adobe Illustrator 21.1.0, SVG Export Plug-In . SVG Version: 6.00 Build 0)  -->
<svg version="1.1" id="Ebene_1" xmlns="http://www.w3.org/2000/svg" xmlns:xlink="http://www.w3.org/1999/xlink" x="0px" y="0px"
	 viewBox="0 0 415 312.3" style="enable-background:new 0 0 415 312.3;" xml:space="preserve">
<g>
	<path d="M394,239.8c-0.7-2.4-2.9-4.3-6.7-4c-5.7,0.5-11.4,0.8-17.1,0.8c-24.6,0-49.2-0.1-73.7-0.2c-18.9-0.1-37.8-0.2-56.7-0.1
		c-15.6,0-31.1,0.3-46.7,0.3c-9.7,0-19.4-0.2-29.1-0.2c-3.5,0-3.5,0.1-4.7-3.2c-3.7-10.6-7.5-21.2-11-31.8
		c-3.5-10.8-6.8-21.7-9.8-32.7c-1.8-6.5-3.5-13-3-19.9c0.6-8.8,6-16.7,13.7-18.8c5.2-1.4,10.6-2.3,15.9-2.7
		c8.8-0.6,17.6-0.8,26.5-0.8c5.8,0,11.6,0.6,17.4,0.7c6.7,0.2,13.4,0.2,20.2,0.4c9,0.3,18,1.8,26.9,1c8.8-0.8,17.3,0.9,26,0.9
		c1.6,0,3.4,0.3,4.8,1.1c1.7,1.1,3.8,2.6,4.2,4.3c2.1,7.9,3.7,16,5.4,24c0.9,4.2,3,7.8,6.3,10.6c2.4,2,2.1,3.1-0.7,4.3
		c-1.9,0.8-4.1,0.2-5.7,2.1c-1.2,1.5-2.2,1-2.5-1c-0.2-1.4-0.1-2.8-1.9-3c-2.3-0.3-4.1,1.3-4.2,3.6c0,1.9,0,3.9,0.5,5.8
		c0.3,1.4,1.2,2.7,2.2,3.7c1.3,1.4,2.5,1.1,3-0.7c0.5-1.5,0.5-3.1,0.8-4.7c1.7,1,3.3,2.1,4.9,2.9c0.8,0.4,1.8,1.4,3.9,2.2
		c2.8,1,2.7,3.1,2.9,5c0.2,2.7-0.1,5.4-0.3,8c-0.3,3.6-0.3,7.1,2.4,10.1c0.6,0.7,0.8,1.9,0.9,2.8c0.5,5.1,1,10.1,1.5,15.2
		c0.2,1.5-0.8,4.1,1.4,4.1c2.8,0,1.5-2.7,1.5-4.3c-0.2-4.8-0.6-9.6-0.8-14.3c-0.1-1-0.1-2.6,0.4-3c2.6-1.9,3.3-4.4,3.5-7.4
		c0-0.4,0.8-0.8,1.3-0.9c0.2-0.1,0.8,0.4,0.9,0.7c0.8,1.6,1.4,3.3,2.4,4.8c0.5,0.7,1.8,1.1,2.6,0.9c0.6-0.1,1.4-1.3,1.4-2
		c-0.2-3.7-0.5-7.5-1.1-11.1c-0.2-1-1.7-2.2-2.8-2.5c-0.8-0.2-1.9,1-2.8,1.7c-0.5,0.4-0.7,1-1.1,1.4c-0.4,0.5-0.9,1-1.3,1.5
		c-0.2-0.7-0.6-1.3-0.7-2c-0.3-1.9-0.6-3.9-0.7-5.8c-0.3-6-0.5-12-0.7-18c0-0.9-0.1-2,0.4-2.6c3.6-4.7,3.9-10.3,4.4-15.8
		c0.3-2.7,1-4.6,3.6-6c1.4-0.8,2.3-2.7,3.2-4.2c1.5-2.4,2.4-2.6,4.2-0.4c0.5,0.6,0.7,1.5,1.2,1.8c1.2,0.8,2.7,2,3.7,1.8
		c1.1-0.3,2.4-2.1,2.5-3.3c0.1-4-0.3-8-0.7-12.1c-0.1-1-0.7-2-1.4-2.8c-1.5-1.8-3.5-1.7-4.8,0.3c-0.3,0.5-0.2,1.3-0.6,1.6
		c-0.8,0.6-1.7,1.2-2.6,1.5c-0.2,0.1-1-1-1.1-1.7c-0.9-3-2.8-5.2-5.6-6.7c-1.2-0.7-2.1-1.5-2.1-3.1c0-5.8-0.4-11.7-0.1-17.5
		c0.6-12.7,1.1-25.4-2.2-37.9c-0.8-3.1-2-6.3-5-7.6c-2.3-1-2.2-2.3-2.2-4.1c0-1.9,1.4-2.4,2.4-3.4c2-1.8,1.7-3.4-0.8-4.4
		c-1.8-0.7-3.7-1.5-5.6-1.5c-1.7,0-3.5,0.5-5,1.4c-1.9,1.2-1.9,3.6,0.2,4.2c3.2,1,2.3,3.4,2.9,5.4c0.3,1.1-0.2,1.1-1.1,1.2
		c-6.1,0.4-8.1,2.3-9.5,8c-1.1,4.8-2.2,9.9-5.8,13.4c-3.3,3.2-7.2,5.9-11.3,8c-10,5-20.9,7.6-32,8.1c-9.4,0.4-18.8-0.1-28.2-1.4
		c-7.1-1-14.3-1.5-21.4-2.3c-8.5-0.9-16.9-1.8-24.7-6.1c-4.4-2.5-9.2-4.2-13.9-6.2c-1.9-0.8-3.9-1.5-5.9-2.2
		c-8-2.9-15.9-6.2-24.6-6.5c-3.9-0.2-3.8-0.3-3.9-4.2c0-1.3,0-1.8,1.5-1.9c2.2-0.1,4.4-0.6,6.6-1c1.6-0.3,3.7-2.5,3.7-4.1
		c0-2.1-1.6-2.2-3.1-2.5c-0.8-0.2-2-0.7-2-1.3c-0.7-4.2-3.1-8.1-2.2-12.6c0.4-1.9-0.1-4-0.3-6c-0.4-3.6-0.4-3.6,3-5.1
		c2.7-1.2,3-3,1-5.2c-1.8-2-4.1-2.4-6.6-2.3c-2.6,0.1-4.7-0.1-5.8-3.2c-0.8-2.1-3.2-2.1-3.6-0.1c-0.7,3.7-3.1,3.7-5.9,3.6
		c-2.8-0.1-5.3,0.5-7.3,2.8c-2.2,2.5-2,3.6,0.7,5.7c3,2.3,4.8,5.5,6.2,9c0.8,2-0.3,3.4-0.8,5c-0.3,1.1-0.1,2.4,0,3.5
		c0.7,5.1,0.6,5.1-3.8,7.4c-0.9,0.5-2.4,1.8-2.2,2.3c0.4,1.3,1.3,2.7,2.5,3.3c1.4,0.7,3.2,0.6,4.8,0.8c1.8,0.2,3.6,0.5,5.3,0.6
		c1.8,0.1,2.5,1.3,3.2,2.8c0.6,1.3,0.1,2-1.1,2.3c-1,0.2-2.1,0.3-3.1,0.4c-5.4,0.3-10.7,1.5-15.7,3.5c-1.4,0.6-2.7,1.4-4.2,1.6
		c-8.1,1.3-12.9,6.6-16.2,13.4c-2,4-3.5,8.3-4.8,12.6c-1,3.2-3,4.5-6.2,4.9c-3,0.3-3.3,0.3-3.9-2.8c-0.9-4.4-3.2-7.3-7.7-8.3
		c-3.1-0.7-4.9-2.8-5.3-5.9c-0.4-3.1-1.9-5.4-4.7-6.6c-3.6-1.5-5.1-4.1-5.6-7.9c-0.5-3.5-1.3-7.1-2.7-10.3c-1.7-3.7-5.1-5.1-8.5-4.3
		c-2.8,0.7-4.7,3.1-4.6,7.4c0.2,9.7,0.6,19.5,1,29.2c0.3,8.5,0.8,17,1.1,25.6c0.1,3-0.1,5.9,0,8.9c0.2,5.5,0.6,11.1,0.8,16.6
		c0,2.1-0.6,4.1-0.7,6.2c-0.1,3.9,2.4,7.2,5.8,8c6,1.3,7.2,0.6,9.5-4.5c1.6-3.7,2.1-7.5,1.9-11.4c-0.1-1.3-0.3-2.9,1.8-3
		c4.8-0.2,6.3-3.3,6.8-7.5c0.1-1,0.4-2.1,0.4-3.1c0-1.7,0.6-2.6,2.5-3.1c4-1,6.8-3.6,8.2-7.5c0.1-0.4,0.2-1,0.5-1.2
		c1.5-1.1,6.1,1,6.4,2.9c0.5,3.3,0.8,6.5,1.2,9.8c1.1,10,2,19.9,4.1,29.8c1.4,6.8,2.3,13.6,0.1,20.5c-2.4,7.5-4.9,15-7.4,22.6
		c-2.3,7.1-4.7,14.2-6.8,21.3c-1,3.3-1.4,6.7-2.3,10.1c-0.3,1-1.4,2.4-2.1,2.4c-3.8,0-7.7,0.9-11.5-0.9c-3.2-1.6-5.7-0.3-7.2,3.2
		c-1.4,3.2-0.7,6.7,2.2,7.7c2.3,0.8,2.5,2,2.8,3.8c1.4,8.5,1.6,17,1.6,25.5c0,3.9,0.2,4,4,4.4c4.2,0.5,8.3,1,12.5,1.5
		c2.8,0.3,4.2-0.6,5.2-3.5c0.2-0.7,0.5-1.5,1-1.9c2.9-2.2,5.8-4.4,9.7-4.3c3,0.1,6,0.4,8.9,0.7c10,1,18.7,4.8,25.9,12
		c1.7,1.7,3.5,3.2,5.4,4.7c1.3,1,2.4,0.7,3.5-0.7c6.7-8.9,16.3-9.9,26.2-8.7c5.1,0.6,10.2,2.3,15.2,3.9c3.1,1,5.9,2.9,8.9,4
		c4.6,1.7,9.3,3.4,14.1,4.6c7.5,1.9,14.8,4.9,22.8,3.4c1-0.2,2.1,0.2,3.1,0.3c8.2,0.5,16.5,1.3,24.6-0.6
		c11.8-2.7,23.3-6.7,34.6-11.1c6.7-2.6,13.3-5.5,20-8c8.7-3.2,17.1-2.5,24.5,3.5c1.6,1.3,2.7,3.1,4.1,4.7c1.7,1.9,2.7,1.7,4.1-0.4
		c1.6-2.3,2.8-5.1,4.9-6.9c3.6-3.2,7.8-5.5,12.7-6.3c2.2-0.4,4.6-0.4,6.6-1.3c4.7-2,9-1.1,13.5,0.3c3.5,1.1,6,3.3,7.6,6.5
		c0.6,1.3,1,2,2.6,1.4c0.9-0.3,2,0,3,0c5.1,0.1,10.2,0.2,15.2,0.1c2.8,0,3.6-1,3.7-3.9c0-2.1-0.2-4.2-0.3-6.3
		c-0.4-5.4-0.8-10.7-1.1-16.1c-0.1-2.1,0.1-3.9,2.6-5.1C393.7,245.1,394.7,242.2,394,239.8z M318.4,131.8c0-2.1,0-4.2,0-6.3
		c0-1.3,0.7-1.6,1.6-0.8c0.7,0.6,1.4,1.3,1.7,2c1.9,4.5,2.2,9.1,0.2,13.7c-0.2,0.5-0.6,1.1-1,1.4c-0.4,0.4-1,0.5-1.5,0.7
		c-0.2-0.5-0.5-1-0.6-1.5c-0.3-3.1-0.5-6.2-0.7-9.3C318.2,131.8,318.3,131.8,318.4,131.8z M56,113c0.6,5.6-0.3,7.5-5.7,8.8
		c-2.7,0.7-4.1,2.3-4.6,4.9c-0.2,0.9-0.2,1.8-0.3,2.7c-0.7,4.9-0.7,4.9-5.4,6c-2.3,0.5-3.2,2.1-3.4,4.1c-0.2,1.9,0.1,3.9-0.2,5.8
		c-0.3,2.2-0.6,4.4-1.3,6.5c-0.8,2.4-2.1,2.9-4.5,2.3c-2.1-0.5-2.6-1.7-2.7-3.9c-0.2-7.8-0.8-15.5-1.2-23.3c-0.1-1.5,0-3,0-4.5
		c0.1,0,0.1,0,0.2,0c-0.7-14.4-1.3-28.7-2-43.1c-0.2-5.1-0.4-10.2-0.5-15.2c0-1.6-0.3-3.5,1.9-4c1.8-0.4,3.3,0.6,4.1,2.1
		c0.8,1.5,1.5,3.2,2,4.9c0.7,2.4,1,5,1.7,7.4c0.8,3.1,2.3,5.8,5.5,7.2c2.7,1.2,4,3.4,4.3,6.3c0.5,4.4,3.2,6.8,7.5,7.8
		c4.7,1.1,5.4,2.7,4.8,7.4C55.6,106.5,55.7,109.8,56,113z M60.6,234.1c0.3-2.8,0.7-5.6,1.1-8.5c1.2-8.4,4.5-16.1,7.3-24
		c3.3-9.2,6.6-18.3,8.3-27.9c0.2-1.3,0.5-2.7,0.3-4c-0.9-6.4-2-12.7-3-19.1c-0.8-5.2-1.4-10.4-2-15.6c-0.7-5.5-1.6-11-1.9-16.5
		c-0.4-7,0.3-14,3-20.7c1-2.5,1.8-5.1,2.6-7.6c2.7-8.3,8.6-13.4,16.5-16.6c13.4-5.4,27.2-5.3,41.1-2.4c3.5,0.7,6.8,2.4,10.1,3.7
		c2.2,0.9,4.4,2,6.7,2.7c6.5,1.9,12.8,4.1,18.5,7.8c5.2,3.4,11.2,4.1,17.1,4.8c10.4,1.2,20.8,2,31.2,2.9c7.7,0.6,15.5,1,23.3,1.5
		c2.1,0.1,4.1,0.4,6.2,0.3c2.2-0.1,4.4-0.4,6.5-0.9c1.9-0.4,3.6-1.3,5.5-1.9c4.1-1.4,8.2-2.7,12.4-4c5.6-1.8,10.5-5.2,15.2-8.6
		c2.5-1.9,4.7-4.2,5.7-7.3c1.2-3.7,2.6-7.3,3.8-11c1-2.9,2.2-3.9,5.2-3.8c1.2,0,2.4,0.2,3.6,0.2c2.9,0.1,5.4,0.7,5.6,4.4
		c0,0.5,0.3,1.3,0.7,1.6c5.6,4.7,4.8,11.2,4.7,17.4c-0.2,14.1-0.7,28.1-0.9,42.2c-0.1,8.8,0.4,17.6,0.5,26.4c0,3.3-0.5,6.6-1.2,9.8
		c-1,4.6-2.9,5.9-7.4,6.3c-1.9,0.1-3.3-0.4-4.1-1.9c-1.1-2.1-2.6-4.2-3.1-6.4c-1.5-6.7-2.7-13.5-3.8-20.2
		c-0.8-4.8-5.7-9.5-11.7-10.3c-6.5-0.8-13.1-1.6-19.7-1.9c-4.3-0.2-8.6,0.5-13,0.6c-9.9,0.3-19.7-0.7-29.6-1.7
		c-5.8-0.6-11.7-0.3-17.5-0.2c-7.6,0.1-15.3,0.5-22.9,0.6c-4.3,0-8.7-0.6-13-0.5c-4,0.1-8,0.8-12,1.3c-1.5,0.2-2.9,0.7-4.4,0.8
		c-9.7,1-15.2,6.9-18.5,15.5c-2.5,6.7-2.4,13.5-0.6,20.3c2.6,9.7,5.1,19.4,8,29c4.1,13.1,8.5,26.2,12.8,39.2c0.4,1.1,0.7,2.3,1,3.4
		c0.8,3,0.8,3-2.4,3c-14.7,0-29.4-0.1-44.1-0.2c0,0.2,0,0.3,0,0.5c-14.1-0.1-28.2-0.1-42.3-0.2c-1.2,0-2.4-0.1-3.6-0.1
		C61.1,236.3,60.4,235.5,60.6,234.1z M383.6,274.5c-4.6,0-9.3,0.2-13.9,0.1c-0.8,0-1.9-0.7-2.4-1.4c-6.2-7.3-15.1-9.9-24.1-7.2
		c-2.1,0.7-4.3,1.3-6.5,1.8c-7.6,1.5-14.2,4.7-18.7,11.3c-0.9,1.4-1.4,0.4-2-0.2c-3.1-3.1-6.7-5.6-11-6.7c-6.8-1.8-13.6-1.8-20.2,1
		c-5.5,2.4-10.9,4.9-16.5,6.9c-9.5,3.5-19.2,6.7-28.8,10.1c-9.1,3.2-18.3,4-27.9,2.7c-3.2-0.4-6.6,0.2-9.9-0.2
		c-5.2-0.7-10.3-1.7-15.4-2.9c-3.9-0.9-7.8-2.2-11.6-3.6c-3.5-1.3-6.9-2.8-10.2-4.5c-7.8-4.1-16.2-6.6-24.9-7
		c-7.5-0.4-14.8,2-21,6.6c-0.7,0.5-1.4,1.1-2.1,1.7c-1.3,1.1-2.3,0.9-3.4-0.3c-9.7-10.7-22.7-14.2-36.3-15.5
		c-6.8-0.7-13.2,2.1-17.1,8.4c-1,1.6-1.7,2-3.5,1.7c-2.5-0.4-5.1-0.4-7.6-0.4c-1.6,0-2.6-0.5-2.7-2.3c-0.1-1.9-0.5-3.9-0.7-5.8
		c-0.6-7.9-1.1-15.8-1.6-23.7c0-0.4-0.1-0.9-0.1-1.3c-0.1-3.4,0-3.6,3.4-3.7c5.5,0,11.1,0,16.6,0c0-0.1,0-0.2,0-0.3
		c40.5-0.1,80.9-0.2,121.4-0.4c12.9,0,25.7-0.3,38.6-0.3c52,0.1,104,0.2,156,0.3c6.7,0,6.4,0,5.9,6.8c-0.3,4.8,0,9.6,0.1,14.4
		c0.1,3.7,0.3,7.5,0.5,11.2C386.3,273.7,385.6,274.5,383.6,274.5z"/>
	<path d="M93,108.1c-1.4,2.7-0.7,5.4,2,8.1c1.2,1.2,2.9,2.2,4.5,2.7c2.7,0.9,5.5,1.2,8.3,1.9c5.2,1.2,10.7,1.4,15.3,4.8
		c0.6,0.5,1.6,0.4,2.4,0.6c0.2-1.1,0.9-2.3,0.6-3.3c-0.5-1.7-1.6-3.2-2.2-4.8c-1.7-5-1.3-10.1,0.2-15c1.2-3.6,1-7-0.9-10.2
		c1.5,0.1,3.3-0.1,4.5,0.6c4.9,2.6,9.6,5.5,14.3,8.4c5.5,3.4,10.7,7.1,16.2,10.4c5.3,3.2,11.1,5.1,17.3,5.7
		c8.4,0.9,17.3-5.1,14-15.8c-1.5-4.6-5.7-8.2-10.5-8.5c-5.1-0.2-8.9,2.9-9.2,7.8c-0.3,4.3,3.3,8.1,8.1,8.5c2,0.2,4.9-1.5,5.5-3.1
		c0.6-1.8-0.4-4-2.6-5.2c-0.6-0.3-1.8-0.5-2.4-0.1c-1.1,0.8-0.6,1.8,0.4,2.6c0.4,0.3,0.6,0.8,0.9,1.3c-0.7,0.2-1.4,0.8-2,0.7
		c-1-0.2-2-0.7-2.9-1.2c-1.8-1-1.6-2.7-1.2-4.4c0.4-1.9,1.9-2.2,3.5-2c1.5,0.1,2.9,0.4,4.4,0.7l-0.1,0.1c0.3,0,0.7,0,1,0l-0.1-0.1
		c2.6,1.7,4.4,5.8,3.9,8.8c-0.5,2.6-3.6,5.4-6.8,5.7c-4.7,0.5-9.2-0.2-13.6-2c-8.1-3.4-15.1-8.4-22.4-13.2c-5.5-3.6-11.3-6.8-17-10
		c-1.5-0.8-3.4-1.5-4.1,0.8c-0.6,2.2-1.8,2.2-3.7,1.9c-3.3-0.5-7.9,2.1-9.2,5.2c-0.5,1.2-0.2,2.8,0,4.3c0,0.4,1.1,1.1,1.2,1
		c0.5-0.3,1.3-1.1,1.2-1.5c-0.5-1.8,0.5-3,1.8-3.7c1.3-0.6,2.8-1.2,4.2-1.1c3.1,0.2,4,2,2.9,6.1c-1.3,5.4-2.5,10.8-0.9,16.4
		c0.3,1.2-0.2,1.5-1.5,1.2c-2.2-0.5-4.4-0.6-6.6-1.1c-4.1-0.9-8.1-1.9-12.1-3.1c-1.8-0.6-4-1.6-3.6-3.9c0.3-2.1,1.6-4,3.8-4.6
		c1.4-0.4,2.9-0.4,4.4-0.7c0.4-0.1,0.9-0.4,0.9-0.7c0.1-0.3-0.2-1-0.5-1.1c-1.1-0.5-2.2-1.1-3.3-1.1C97.4,102.4,94.7,104.7,93,108.1
		z M123,92.4c0,0,0,0.1,0.1,0.1c-0.1-0.1-0.2-0.1-0.3-0.2C122.8,92.3,122.9,92.3,123,92.4z"/>
	<path d="M119.6,161.3c-1.3-0.6-2.9-1.1-4.3-0.9c-3.9,0.7-8.8,6.4-8.9,10.4c0,1.1,0.5,2.4,1.2,3.2c2.3,2.4,8.5,1.1,9.6-2.1
		c0.3-0.7,0-1.8-0.5-2.4c-0.2-0.3-1.3-0.2-2-0.1c-0.4,0.1-0.7,0.7-1.1,0.7c-0.6,0.1-1.4,0-1.9-0.3c-0.2-0.2-0.2-1.2,0.1-1.6
		c0.8-1.1,1.8-2,2.8-2.9c0.3-0.3,1.2-0.3,1.6,0c2,1,3.3,4.7,2.7,7.1c-0.5,2.1-2.3,3.6-4.9,3.8c-1.6,0.1-3.3,0.2-4.9,0.3
		c-3.9,0.4-7.9-1.9-8.4-5.7c-0.8-6.8-1.3-13.7,3.5-19.7c2.9-3.6,6.2-7,7.1-11.8c0.3,0.1,0.6,0.1,0.7,0.2c2.2,2.4,6.6,2.6,9,0.3
		c1.5-1.5,1.3-4.3-0.3-6.2c-1.7-2-4.3-2.6-5.9-1.4c-3,2.3-3,2.3-5.1-1.1c-0.7-1.1-1.5-2.3-2.3-3.3c-3.1-3.6-8.2-5-12.2-3.5
		c-3.7,1.3-7,6.3-6.3,9.4c0.9,3.6,5.4,7.2,9,7.1c2.8-0.1,5.4-3.2,6.2-7.3c0-0.1,0-0.1,0-0.2c0.6,0.9,1.4,1.7,1.6,2.7
		c0.6,3.7-0.3,7-2.8,10c-6.2,7.4-8.2,16.1-7.1,25.6c0.6,5.7,5.4,9.8,11,9.5c2.2-0.1,4.5-0.1,6.7-0.3c5.1-0.3,8.7-2.7,10.5-7.7
		C125.6,168.6,123.9,163.5,119.6,161.3z M100,134.2c-0.6,1.6-1.5,3.5-4,2.5c-2.4-0.9-4-3.3-3.4-5.1c0.8-2.6,3.2-4.5,5.3-3.6
		c1.9,0.7,3.5,2.1,5.2,3.2C101.2,131.3,100.7,132.6,100,134.2z"/>
	<path d="M89.9,88.9c2.7,1.8,5.6,3.4,8.4,5.1c0.6,0.4,1.4,0.9,2,0.9c0.7-0.1,1.4-0.7,2.1-1.2c-0.3-0.8-0.4-1.5-0.8-1.9
		c-2.8-3.2-5.7-6.5-8.7-9.5c-0.6-0.7-1.9-1-2.9-1c-1,0-2.6,0.4-3,1.1c-0.6,0.9-0.8,2.6-0.3,3.6C87.3,87.2,88.7,88.1,89.9,88.9z"/>
	<path d="M159.8,103.2c3.2,0,5-1.6,4.9-4.4c-0.1-2.8-2.8-5.2-5.7-5.1c-2.4,0-4.7,2.6-4.5,5.1C154.7,101,157.3,103.2,159.8,103.2z"/>
	<path d="M100.1,99.9c0.5-0.1,1.2-1,1.2-1.6c0-0.6-0.6-1.5-1.1-1.7c-1.9-0.7-4-1.1-6.6-1.8c-1.8,0.9-4.1,1.9-6.1,3.2
		c-0.6,0.4-0.9,2-0.6,2.7c0.3,0.7,1.7,1.6,2.4,1.5C92.9,101.6,96.5,100.8,100.1,99.9z"/>
	<path d="M107.4,93.2c1.1-0.6,2.1-1.6,2.7-2.7c1.2-2.4,2.1-4.9,3.1-7.4c0.3-0.7,0.5-1.4,0.9-2.5c-0.7-0.6-1.4-1.4-2.3-1.6
		c-1.9-0.4-3.2,0.6-3.7,2.4c-1,3.4-1.8,6.9-2.5,10.4C105.3,93.2,106.3,93.9,107.4,93.2z"/>
	<path d="M118.6,146.9c0-1.6-3-3.8-4.9-3.7c-2.1,0.1-3.6,2-3.5,4.4c0.1,2.1,1.3,3.3,3.4,3.2C116.7,150.7,118.6,149.2,118.6,146.9z"
		/>
	<path d="M145,94.6c2.5,0.2,4.3-1.2,4.4-3.3c0.1-2.3-1.1-3.6-3.5-3.8c-1.9-0.2-4,1.6-4.1,3.4C141.8,92.6,143.4,94.5,145,94.6z"/>
	<path d="M107.9,106.2c1.2,1.7,2.6,3.2,4,4.7c0.3,0.3,1.2,0.3,1.5,0.1c0.3-0.2,0.6-1.2,0.3-1.5c-1-1.6-2.1-3.2-3.3-4.7
		c-0.3-0.4-1-0.5-1.9-0.9C108.3,104.8,107.6,105.9,107.9,106.2z"/>
	<path d="M111.5,153.1c-1.1,0.3-2,1.3-2.9,2.1c0.6,0.7,1.2,1.9,1.9,2c0.9,0.1,1.9-0.6,3.7-1.3C112.9,154.4,112,152.9,111.5,153.1z"
		/>
	<path d="M131.8,85.2c0.7,0.1,1.5-0.9,2.8-1.8c-1.1-1-1.9-2.1-2.5-2c-0.8,0.1-1.8,1.1-1.9,1.8C130.1,83.8,131.1,85.1,131.8,85.2z"/>
	<path d="M201.6,250c-3.9,0-7.8,1.2-10.5,4.4c-4,4.7-9.2,7.1-15.2,7.8c-7.3,0.8-14.3-0.7-21.1-3.2c-4.5-1.7-8.6-4.1-12.9-6.2
		c-1.2-0.6-2.5-1.6-3.6-0.1c-1.1,1.6,0.2,2.9,1.4,3.8c1.9,1.4,3.8,3,6,4c4.3,2,8.7,4.3,13.3,5.4c4.5,1.1,8.5,3.4,13,4.3
		c0,0,0,0.1,0,0.1c0,0,0.1,0,0.1-0.1c0.3,0.3,0.6,0.6,0.8,0.8c-0.3,0-0.6,0-0.9,0c0,0,0-0.1-0.1-0.1c0,0.1,0,0.2,0,0.2
		c0.3,0,0.7,0,1,0l-0.1-0.1c1.3,0.7,2.6,1.5,4,2.1c3.7,1.6,7.3-0.8,6.7-4.7c-0.2-1.7,0-2.3,1.2-3.3c3-2.2,6-4.4,8.7-7
		c1.8-1.7,3.6-2.5,5.9-2.8c5.1-0.6,6.1,0.6,5.1,5.9c-0.2,1-0.1,2.1-0.4,3.1c-0.7,2.2-2.8,3-5.1,1.9c-1.5-0.7-1.8-2.1-0.6-4.2
		c0.5-0.8,1.5-1.4,2.2-2.1c0.3-0.4,0.5-0.9,0.7-1.4c-0.6-0.3-1.3-0.9-1.9-0.8c-2.7,0.4-4.2,2.3-4.9,4.7c-0.5,1.8-1.1,3.8,1,5.3
		c2.3,1.6,4.1,4.2,7.5,2.8c5.2-2,8.4-9.2,6-14.2C207.5,253.2,205.5,250,201.6,250z"/>
	<path d="M300.8,253.6c-2,0.4-4,1.1-6,1.8c-10.4,3.6-21.1,4-31.8,1.5c-5.9-1.4-11.6-3.9-17.4-5.9c-3.5-1.2-7.1-2.2-9.1-2.8
		c-10.6-1.1-14.5,9.9-11.9,15.7c1.5,3.4,5.9,6.3,9.2,6.2c3.2-0.1,5.6-2.3,7.1-6c1-2.6,0.2-4.6-1.7-6.5c-1.8-1.9-4-2.6-6.5-1.9
		c-1.9,0.5-3.1,1.9-3.2,3.9c0,0.7,0.6,1.5,0.9,2.2c0.5-0.5,1.1-0.9,1.4-1.5c0.8-1.8,2.1-2,3.7-1.3c1.7,0.7,2.3,2.3,1.6,4.1
		c-1,2.9-5.4,3.9-7.3,1.5c-1.6-2-2.5-4.4-1.5-7.1c1-2.6,2.2-5,5.5-5c1.5,0,3.1-0.2,4.5,0.2c6.8,2.2,13.6,4.7,20.3,7.1
		c0.5,0.2,0.7,1.4,0.7,2.1c0.1,2.2,0.8,4,3,5.1c2.2,1,4.2,1.1,6.4-0.2c2.7-1.6,5.5-3.4,8.6-4.2c3.9-0.9,8.1-0.5,12-1.4
		c4.3-0.9,8.5-2.6,12.8-4.1c1.4-0.5,1.8-1.8,1.2-2.9C303,253.9,301.6,253.4,300.8,253.6z"/>
	<path d="M272.6,254.4c0.8-0.1,1.8-1,2-1.8c0.4-1.9-1.1-3.6-3.9-3.6c-0.5,0.5-1.9,1.3-2.3,2.4C267.9,252.8,270.5,254.6,272.6,254.4z
		"/>
	<path d="M283.4,253.5c1.1-0.1,2.1-0.5,1.8-1.9c-0.4-1.5-0.2-3.4-3.3-3.5c-0.6,0.5-2.1,1.2-2.6,2.3
		C278.7,251.6,281.5,253.6,283.4,253.5z"/>
	<path d="M151.9,251.8c1-0.3,1.8-1.5,2.3-2c-0.1-2.2-2.3-4.3-3.7-3.8c-0.8,0.3-1.6,1.4-1.7,2.2C148.6,249.9,150.6,252.2,151.9,251.8
		z"/>
	<path d="M294.4,250c0.9-0.2,1.6-1.3,2-1.7c-0.2-2.7-1.5-3.1-3.1-3c-1.4,0.1-2.8,0.3-2.9,2C290.3,248.5,292.8,250.4,294.4,250z"/>
	<path d="M163,255.7c1.1-0.2,2-1.2,3.7-2.3c-1.7-1.3-2.8-2.6-3.7-2.5c-0.9,0.1-2.3,1.4-2.5,2.4C160.2,254.7,161.4,256,163,255.7z"/>
	<path d="M172.5,257.5c1.1-0.2,2.1-1,3-1.4c-0.3-2.5-1.6-3.2-3.1-3.1c-0.8,0-1.9,0.8-2.2,1.5C169.7,255.7,171.2,257.7,172.5,257.5z"
		/>
	<path d="M171.7,270.4c0,0.2,0.1,0.3,0.2,0.5c0-0.2,0-0.4,0-0.7C171.8,270.3,171.7,270.3,171.7,270.4z"/>
</g>
</svg>
