<?xml version="1.0" encoding="UTF-8" standalone="no"?>
<svg width="99px" height="51px" viewBox="0 0 99 51" version="1.1" xmlns="http://www.w3.org/2000/svg" xmlns:xlink="http://www.w3.org/1999/xlink">
    <!-- Generator: Sketch 41.1 (35376) - http://www.bohemiancoding.com/sketch -->
    <title>Pattern 2</title>
    <desc>Created with Sketch.</desc>
    <defs></defs>
    <g id="Symbols" stroke="none" stroke-width="1" fill="none" fill-rule="evenodd">
        <g id="Pattern-2" fill="#000000">
            <path d="M58.6298974,13.6025878 C58.6298974,15.5988909 57.853696,17.4288355 56.2458503,19.25878 C51.9212999,24.194085 46.3215615,26.8003697 40.3337225,28.8521257 C37.7279036,29.7393715 35.1775277,30.8484288 32.6271518,31.9020333 C32.2390512,32.0683919 32.0172793,32.5120148 31.6846216,32.7892791 C32.0727223,32.9556377 32.460823,33.1774492 32.8489237,33.3438078 C32.9043666,33.3992606 33.0152525,33.3438078 33.1261384,33.3992606 C34.84487,33.8428835 36.8962593,33.7874307 37.4506889,36.1719039 C37.9496754,38.6118299 36.2309439,39.7208872 34.6230982,40.7744917 C33.680568,41.4399261 32.5162659,41.9390018 31.3519639,42.2162662 C28.4134873,42.9926063 25.4750107,43.6025878 22.4810912,44.2680222 C18.6000844,45.0998152 15.1626213,46.7079482 12.5568024,49.8687616 C12.2241447,50.2569316 11.7251581,50.4232902 11.2816145,50.7005545 C11.0043997,50.2014787 10.3390842,49.5914972 10.4499701,49.1478743 C10.7826279,47.7615527 11.1152856,46.2643253 11.9469299,45.155268 C17.9902119,36.7264325 26.1403262,30.9593346 35.7319573,27.2439926 C37.9496754,26.3567468 40.2782795,25.6358595 42.4959977,24.8595194 C46.3770045,23.4731978 49.7035817,21.2550832 52.8083872,18.4824399 C55.5250919,16.0979667 55.7468637,13.2698706 54.9706624,10.1645102 C54.1390181,6.7818854 51.2559845,5.17375231 46.1552327,5.06284658 C43.383085,5.00739372 41.1099238,6.56007394 40.2228366,9.55452865 C39.9456218,10.5526802 40.1119507,11.9390018 40.6109372,12.8817006 C40.8327091,13.2698706 42.4959977,13.1589649 43.383085,12.8817006 C46.0443468,12.1053604 46.5433333,11.1626617 46.2106756,8.33456562 C46.1552327,7.94639556 46.4324474,7.22550832 46.5987763,7.22550832 C47.2086488,7.22550832 47.9294072,7.22550832 48.3729508,7.55822551 C49.8699106,8.72273567 50.0916824,11.4953789 48.4838367,12.715342 C46.5987763,14.1571165 44.3256152,15.4325323 41.9970111,16.0425139 C39.5020782,16.7079482 38.0605614,15.3216266 37.4506889,12.8262477 C35.9537291,6.22735675 41.9415681,-0.205175601 48.6501656,0.903881701 C55.6914208,1.95748614 57.7982531,3.62107209 58.6298974,13.6025878 Z" id="Shape"></path>
            <path d="M57.909139,45.0998152 C52.6420583,44.9889094 49.4818099,40.4417745 50.535226,34.3974122 C51.6995281,27.7430684 56.1904074,23.8613678 61.7347028,20.8669131 C62.677233,20.3678373 63.7860921,19.9796673 64.8395082,19.702403 C66.1701391,19.3142329 66.7800116,18.8151571 65.9483673,17.3733826 C64.8949512,15.4879852 65.3384948,13.6580407 67.0017835,12.4380776 C68.720515,11.1626617 70.7719043,11.3844732 72.435193,12.715342 C73.9321527,13.8798521 75.0964548,15.5434381 76.5934145,16.7634011 C78.2567032,18.1497227 79.9199918,19.6469501 81.9159381,20.5341959 C87.9037772,23.1959335 93.5035156,26.3012939 97.3845224,31.7911275 C97.7171801,32.2347505 98.1607237,32.6783734 98.2716096,33.1774492 C98.3824955,33.7319778 98.1607237,34.3419593 98.1052808,34.896488 C97.5508512,34.7855823 96.7746499,34.8410351 96.4419921,34.5083179 C95.1113612,33.1219963 93.9470592,31.5138632 92.5609853,30.1829945 C86.4622604,24.2495379 79.2546763,21.4214418 70.6610184,22.4750462 C69.2749446,22.6414048 67.8888707,22.8077634 66.5027969,22.8632163 C59.4060987,23.0850277 54.8043335,29.2402957 53.6400315,35.3955638 C53.0856019,38.4454713 55.0261053,41.7171904 57.6873671,42.4935305 C60.4595149,43.3253235 62.9544478,41.2181146 62.3445753,38.5009242 C62.2336894,38.0018484 61.7901458,37.6136784 61.512931,37.1700555 C61.2357162,37.4473198 61.0139444,37.8909427 60.6258437,38.0573013 C59.6833135,38.5563771 58.7407833,39 57.7982531,39.4990758 C57.5210383,38.6118299 57.0220517,37.6691312 57.0220517,36.7818854 C57.0220517,34.2865065 58.5744544,32.6229205 60.8476155,32.5674677 C63.0098907,32.5120148 65.6711526,34.7855823 65.6711526,37.0591497 C65.7820385,41.5508318 64.5622935,45.7097967 57.909139,45.0998152 Z" id="Shape"></path>
            <path d="M0.303909527,39.7763401 C0.303909527,37.0591497 1.85631224,35.284658 4.35124518,35.1737523 C6.79073517,35.1182994 8.73123857,36.8927911 8.67579561,39.1109057 C8.62035266,41.6062847 6.01453381,44.5452865 3.74137269,44.6007394 C1.96719815,44.6561922 0.359352481,42.3826248 0.303909527,39.7763401 Z" id="Shape"></path>
            <path d="M13.055789,34.896488 C11.5588292,34.8410351 10.616299,34.2310536 10.671742,32.5674677 C10.7826279,30.4602588 12.2795876,28.5748614 13.8874333,28.6857671 C15.439836,28.7966728 16.8259099,30.349353 16.7704669,31.9020333 C16.659581,33.4547135 14.8299635,34.9519409 13.055789,34.896488 Z" id="Shape"></path>
            <path d="M89.4561799,37.780037 C88.4027638,36.3937153 87.2939047,35.5619224 87.1275758,34.5637708 C86.8503611,33.0110906 88.3473208,32.6229205 89.5670658,32.6229205 C91.1749115,32.5674677 92.3946565,33.5656192 92.1728847,35.1182994 C92.0619988,35.8946396 90.7313679,36.5600739 89.4561799,37.780037 Z" id="Shape"></path>
            <path d="M85.0207436,30.349353 C84.1890993,30.792976 83.3574549,31.5138632 82.4703677,31.5693161 C80.6407502,31.7356747 80.0863206,30.2939002 80.2526495,28.8521257 C80.3635354,28.1312384 81.6941663,26.8003697 81.8604952,26.9112754 C83.0247972,27.5212569 84.0227704,28.4639556 85.1316295,29.3512015 C85.0761865,29.6284658 85.0207436,29.961183 85.0207436,30.349353 Z" id="Shape"></path>
            <path d="M76.6488575,28.1312384 C75.8726561,28.5194085 75.0964548,29.1848429 74.2648105,29.2402957 C72.6015218,29.2957486 71.7144346,28.1312384 71.8253205,26.5785582 C71.8807634,26.0240296 73.2113943,25.025878 73.599495,25.1367837 C74.763797,25.5249538 75.7063273,26.4676525 76.7043004,27.1330869 C76.7597434,27.5212569 76.7043004,27.8539741 76.6488575,28.1312384 Z" id="Shape"></path>
        </g>
    </g>
</svg>