<?xml version="1.0" encoding="UTF-8" standalone="no"?>
<svg width="401px" height="528px" viewBox="0 0 401 528" version="1.1" xmlns="http://www.w3.org/2000/svg" xmlns:xlink="http://www.w3.org/1999/xlink">
    <!-- Generator: Sketch 43.2 (39069) - http://www.bohemiancoding.com/sketch -->
    <title>Scherenschnitt</title>
    <desc>Created with Sketch.</desc>
    <defs></defs>
    <g id="Symbols" stroke="none" stroke-width="1" fill="none" fill-rule="evenodd">
        <g id="Scherenschnitt" fill-rule="nonzero" fill="#000000">
            <g id="Shape">
                <path d="M396.548,383.566 C395.557,388.804 394.155,393.631 392.543,398.248 C393.714,399.969 396.94,399.635 399.217,400.25 C396.408,401.668 395.175,404.661 391.876,405.589 C392.522,407.391 393.55,408.81 395.88,408.926 C394.242,411.228 390.662,407.619 389.207,409.593 C386.217,413.5 385.528,419.707 383.868,424.943 C386.195,432.406 396.372,435.57 397.882,441.627 C389.816,438.165 382.08,437.998 378.529,429.614 C377.433,431.984 375.826,436.772 377.194,440.959 C378.275,444.268 383.695,444.806 380.531,447.633 C387.14,450.589 391.537,455.757 399.884,456.976 C394.659,460.941 388.613,457.987 382.533,456.976 C375.885,455.872 371.092,456.412 368.518,452.972 C366.798,453.133 369.435,454.12 368.518,455.641 C359.509,454.417 357.629,446.065 350.499,442.962 C348.866,443.035 350.357,445.168 351.167,444.964 C351.847,447.242 346.721,443.244 345.828,442.294 C343.382,439.691 341.014,434.59 339.822,431.616 C328.721,422.983 320.399,414.451 313.128,398.916 C310.709,393.748 308.975,388.048 306.454,382.232 C303.227,374.787 299.573,364.481 295.776,356.873 C291.191,347.685 287.161,338.956 283.096,327.51 C278.964,315.871 277.604,304.137 276.423,288.804 C275.762,280.221 275.591,270.502 276.423,262.778 C277.176,255.793 281.409,251.008 280.427,243.425 C283.515,235.801 287.232,227.64 290.438,219.4 C295.74,205.771 303.166,191.332 307.789,176.023 C308.544,173.524 308.402,170.513 309.124,168.015 C310.697,162.567 313.174,154.334 313.128,145.993 C313.046,131.127 310.342,113.793 300.448,105.952 C297.792,105.521 297.765,107.718 295.109,107.287 C291.638,105.346 286.876,107.041 284.431,105.285 C282.002,106.86 280.344,109.206 276.423,109.289 C278.471,124.283 287.201,135.013 284.431,153.334 C283.192,161.53 280.263,168.48 277.09,176.691 C276.414,178.442 274.859,179.761 274.421,181.362 C272.433,188.626 273.511,195.717 271.751,201.383 C270.44,205.603 267.179,209.457 265.078,213.395 C260.332,222.289 257.042,232.125 247.059,235.417 C246.574,243.11 236.579,245.27 235.714,251.433 C234.181,262.365 234.422,280.971 238.383,289.472 C240.414,293.831 244.691,298.233 247.726,302.151 C263.261,322.207 272.559,349.618 281.093,377.562 C282.726,382.906 284.462,388.821 286.432,394.246 C289.744,403.365 293.638,414.593 295.775,425.611 C296.541,429.559 296.814,433.624 297.778,437.624 C298.637,441.193 300.045,444.797 300.447,448.301 C301.094,453.945 300.066,459.664 300.447,464.986 C301.866,484.794 308.082,502.819 307.121,527.049 L19.494,527.049 C30.955,509.116 43.531,492.025 55.531,472.993 C64.607,458.599 68.831,442.559 78.221,428.281 C83.594,420.111 88.971,413.795 94.905,406.258 C97.344,403.16 99.088,399.416 101.578,396.248 C103.415,393.911 106.285,392.012 108.252,389.574 C112.528,384.274 115.53,378.26 121.599,374.225 C124.043,357.393 118.563,337.692 113.591,322.171 C109.549,309.558 103.512,298.487 97.574,290.806 C78.711,285.2 53.723,285.718 36.845,278.127 C33.581,273.157 30.308,269.051 30.171,261.443 C30.084,256.623 32.304,252.183 31.506,247.429 C31.061,244.776 29.08,241.684 27.502,239.421 C25.712,236.854 23.305,235.824 22.831,233.415 C21.887,228.617 23.813,226.449 26.168,224.072 C23.905,222.331 21.76,220.471 20.162,218.066 C19.865,210.255 23.607,201.477 20.162,194.709 C14.317,192.813 1.323,189.95 0.809,181.362 C0.296,172.779 7.174,164.835 11.487,158.005 C13.393,154.986 16.216,151.395 18.828,147.995 C23.536,141.867 27.836,136.598 24.834,125.973 C23.18,120.117 18.935,116.831 19.496,113.293 C20.076,109.635 24.45,109.212 25.502,105.952 C26.243,103.657 25.377,100.192 25.502,97.944 C26.79,74.889 37.056,53.333 44.188,36.548 C42.354,32.007 40.253,25.524 43.521,21.199 C44.719,22.012 42.771,25.298 43.521,27.872 C46.388,25.845 47.162,21.726 48.86,18.529 C49.678,21.396 47.465,25.862 48.193,28.539 C50.762,27.103 51.255,23.593 52.864,21.198 C56.868,20.308 58.754,17.3 64.209,17.861 C59.305,21.188 52.483,22.596 50.194,28.539 C52.688,29.429 52.979,26.187 54.198,25.202 C58.536,21.697 65.193,19.881 70.882,17.194 C73.97,15.735 76.922,13.149 80.225,11.855 C86.731,9.307 95.633,7.765 103.582,5.849 C111.783,3.872 120.597,1.736 128.274,1.178 C156.135,-0.85 183.25,2.1 203.684,9.853 C219.631,15.904 232.409,23.349 243.725,34.545 C246.549,37.339 249.963,39.579 251.733,41.886 C253.165,43.752 253.7,46.111 255.07,47.892 C261.199,55.858 268.956,61.422 275.091,69.247 C278.599,67.571 279.713,64.641 283.099,64.576 C288.919,64.463 291.33,73.877 299.116,72.584 C301.733,71.969 299.6,76.104 301.118,76.588 C307.513,76.423 311.972,78.192 318.47,77.923 C321.473,80.481 324.825,82.69 329.148,83.929 C332.836,90.63 339.277,94.853 344.497,100.613 C347.299,103.705 348.931,111.687 351.171,116.63 C352.385,119.309 353.537,121.463 354.508,123.971 C357.531,131.786 360.923,140.604 364.518,148.663 C363.133,155.474 368.375,160.814 369.857,166.682 C370.555,169.449 370.133,172.439 370.524,175.357 C371.507,182.69 373.563,189.898 375.196,197.379 C376.772,204.6 379.329,211.814 380.535,218.734 C381.525,224.419 380.737,230.877 383.872,236.085 C384.437,258.002 382.738,277.022 385.206,298.148 C385.714,302.495 387.852,306.469 388.543,310.828 C388.946,313.372 388.233,316.152 388.543,318.837 C390.049,331.898 396.58,345.895 397.219,360.212 C397.672,370.38 395.735,378.236 400.556,386.239 C399.499,387.674 398.164,383.773 396.548,383.566 Z"></path>
            </g>
        </g>
    </g>
</svg>