<?xml version="1.0" encoding="UTF-8" standalone="no"?>
<svg width="127px" height="64px" viewBox="0 0 127 64" version="1.1" xmlns="http://www.w3.org/2000/svg" xmlns:xlink="http://www.w3.org/1999/xlink">
    <!-- Generator: Sketch 43.2 (39069) - http://www.bohemiancoding.com/sketch -->
    <title>yo! klein</title>
    <desc>Created with Sketch.</desc>
    <defs></defs>
    <g id="Symbols" stroke="none" stroke-width="1" fill="none" fill-rule="evenodd">
        <g id="yo!-klein" fill-rule="nonzero" fill="#000000">
            <g id="Shape">
                <path d="M94.6,0.32 C94.744,0.597 94.856,0.904 95.26,0.92 C95.232,1.184 95.523,1.404 95.321,1.7 C95.58,2.295 95.644,2.792 95.8,3.26 C95.538,3.543 96.012,3.802 95.74,4.1 C95.747,4.253 95.849,4.31 95.92,4.4 C95.632,4.68 95.982,5.061 95.68,5.42 C95.696,5.485 95.799,5.461 95.8,5.54 C95.576,6.05 95.819,6.585 95.62,6.98 C96.027,7.195 95.507,7.631 95.74,7.88 C95.67,7.87 95.633,7.893 95.62,7.94 C95.794,8.318 95.568,8.463 95.74,8.72 L95.62,8.72 C95.784,8.955 95.572,8.926 95.74,9.2 L95.62,9.2 C95.78,9.426 95.531,9.76 95.74,9.86 C95.725,9.925 95.621,9.901 95.62,9.98 C95.798,10.54 95.37,10.974 95.559,11.24 C95.534,11.314 95.483,11.363 95.379,11.36 C95.573,11.955 95.434,12.83 95.319,13.4 C95.286,13.533 95.433,13.485 95.439,13.58 C95.48,13.741 95.315,13.696 95.258,13.76 C95.42,14.608 95.217,15.025 95.258,15.86 C95.21,15.912 95.094,15.896 95.078,15.98 C95.231,16.381 95.03,16.435 95.198,16.76 C95.034,16.717 95.077,16.88 94.958,16.88 C95,17.137 95.099,17.577 94.838,17.6 C95.204,17.767 94.748,18.572 95.018,18.8 C94.826,19.103 95.091,19.259 94.899,19.46 C94.961,20.771 94.742,22.213 94.779,23.36 C94.717,23.399 94.717,23.498 94.598,23.48 C94.942,23.605 94.566,23.945 94.838,24.08 C94.794,24.136 94.729,24.171 94.658,24.2 C94.691,24.306 94.688,24.449 94.778,24.5 C94.359,25.516 94.59,26.337 94.478,27.32 C94.275,27.758 94.386,28.509 93.877,28.64 C93.892,28.705 93.996,28.681 93.997,28.76 C93.691,29.215 93.452,29.735 93.097,30.14 C93.166,30.211 93.165,30.352 93.158,30.5 C92.776,30.818 92.471,31.214 91.958,31.4 C91.728,31.682 91.414,31.888 91.058,31.94 C90.031,32.091 89.075,31.381 88.479,30.98 C88.453,30.502 88.147,30.134 88.119,29.84 C88.109,29.77 88.01,29.79 87.939,29.78 C87.909,29.202 87.897,28.978 87.579,28.7 C87.537,27.714 87.44,26.24 87.639,24.98 C87.63,24.811 87.809,24.83 87.879,24.74 C87.898,24.601 87.706,24.673 87.699,24.56 C88.201,24.048 87.82,23.435 87.999,22.64 C88.018,22.557 88.116,22.481 88.119,22.46 C88.147,22.238 87.912,21.955 88.179,21.8 C87.996,21.64 88.198,21.465 88.059,21.26 C88.057,21.157 88.104,21.105 88.179,21.08 C88.224,20.895 88.015,20.965 88.059,20.78 C88.157,20.677 88.241,20.562 88.24,20.36 C88.261,20.258 88.193,20.247 88.12,20.24 C88.284,20.025 88.169,19.77 88.059,19.52 C88.236,19.337 88.24,18.972 88.12,18.8 C88.189,18.81 88.226,18.787 88.24,18.74 C88.277,18.2 88.155,17.672 88.36,17.42 C88.376,17.244 88.224,17.236 88.24,17.06 C88.672,16.187 88.185,15.087 88.599,14.24 C88.643,14.076 88.48,14.119 88.48,14 C88.637,13.701 88.697,13.401 88.48,13.16 C88.665,13.204 88.595,12.995 88.78,13.04 C88.607,12.774 88.687,12.598 88.78,12.26 C88.801,11.819 88.533,11.635 88.84,11.36 C88.663,10.731 88.969,10.365 88.78,9.98 C89.016,9.856 88.668,9.397 88.96,9.26 C88.945,9.195 88.841,9.219 88.84,9.14 C88.905,8.869 89.061,8.527 88.84,8.3 C88.919,7.831 89.107,7.08 88.96,6.62 C89.019,6.539 89.12,6.5 89.2,6.44 C89.174,6.326 89.07,6.289 89.08,6.14 C89.326,5.279 89.316,4.744 89.44,3.68 C89.759,3.555 89.501,3.144 89.799,3.08 C89.925,2.111 90.324,1.692 90.699,0.92 L90.939,0.92 C91.243,0.745 91.497,0.519 91.899,0.44 C91.957,0.439 91.945,0.367 91.959,0.32 C92.547,0.328 92.842,0.043 93.459,0.08 C93.83,0.17 94.142,0.318 94.6,0.32 Z"></path>
                <path d="M80.38,20.84 C80.441,20.94 80.635,20.905 80.74,20.96 C80.629,21.214 81.215,21.431 81.04,21.74 C81.328,22.034 81.581,22.495 81.519,22.82 C81.661,23.128 81.768,23.384 81.759,23.66 C81.819,23.741 81.919,23.78 81.999,23.84 C81.982,24.314 82.238,24.742 82.479,25.34 C82.467,26.042 82.801,26.537 82.718,27.2 C82.988,27.52 82.984,27.925 82.899,28.4 C83.364,28.804 82.772,29.26 83.079,29.78 C82.977,30.338 82.927,30.898 82.959,31.4 C82.837,31.438 82.942,31.703 82.719,31.64 C82.954,31.796 82.678,32.11 82.839,32.36 C82.563,32.819 82.639,33.359 82.659,33.74 C82.687,33.928 82.497,33.898 82.479,34.04 C82.517,35.208 82.055,35.998 82.058,37.04 C81.909,37.43 81.606,37.667 81.638,38.24 C81.387,38.328 81.43,38.712 81.159,38.779 C81.109,38.949 81.243,38.935 81.219,39.08 C80.907,39.047 80.914,39.335 80.919,39.62 C80.683,39.783 80.569,40.07 80.499,40.4 C80.374,40.435 80.305,40.525 80.199,40.58 C80.194,40.665 80.189,40.75 80.259,40.76 C79.88,41.061 79.81,41.671 79.36,41.901 C79.354,41.986 79.349,42.071 79.42,42.081 C78.711,42.672 78.123,43.384 77.02,43.581 C76.375,43.915 75.607,44.128 75.041,44.541 L74.741,44.541 C74.577,44.617 74.502,44.782 74.381,44.901 C73.908,44.907 73.56,45.04 73.121,45.081 C73.046,45.096 73.06,45.2 73.121,45.201 C72.696,45.279 72.214,45.542 71.741,45.381 C71.02,45.622 70.012,45.274 69.161,45.261 C68.663,45.099 68.204,44.899 67.541,44.902 C67.134,44.668 66.673,44.49 66.101,44.422 C65.805,44.118 65.175,44.149 64.782,43.942 C64.737,43.807 64.553,43.811 64.542,43.643 C64.283,43.661 64.289,43.414 64.002,43.462 C63.81,43.294 63.683,43.061 63.402,42.983 C63.409,42.876 63.328,42.856 63.341,42.743 C62.611,42.413 62.372,41.592 61.841,41.063 C61.788,40.875 61.774,40.65 61.601,40.583 C61.574,40.312 61.557,40.028 61.362,39.923 C61.414,39.874 61.397,39.759 61.482,39.743 C61.314,39.65 61.339,39.365 61.181,39.263 C61.307,39 61.153,38.706 61.001,38.543 C60.957,38.38 61.12,38.423 61.121,38.303 C60.852,37.904 61.075,37.072 60.881,36.743 C61.038,36.489 60.869,36.224 60.881,35.963 C60.886,35.858 60.985,35.772 61.001,35.663 C61.073,35.169 60.916,34.419 60.941,33.803 C60.945,33.683 61.061,33.544 61.06,33.443 C61.059,33.35 60.953,33.29 60.941,33.204 C60.884,32.79 61.003,32.352 61.001,31.944 C60.994,30.992 61.026,29.911 61.301,28.944 C61.234,28.628 61.166,28.031 61.362,27.804 C61.383,27.425 61.29,26.932 61.482,26.724 C61.282,26.464 61.468,25.817 61.242,25.584 C61.211,25.452 61.544,25.253 61.242,25.224 C61.252,25.063 61.589,24.693 61.302,24.624 C61.532,24.339 61.39,24.04 61.722,23.844 C61.651,23.636 61.641,23.177 61.962,23.184 C61.961,23.064 61.798,23.107 61.842,22.944 C62.248,22.268 62.478,21.528 62.863,20.964 C62.87,20.857 62.789,20.838 62.802,20.724 C62.928,20.749 62.961,20.682 63.042,20.664 C63.127,20.189 63.562,20.063 63.702,19.644 C64.209,19.411 64.747,19.209 65.082,18.804 C66.491,18.413 67.152,17.275 68.622,16.944 C68.795,16.951 69.015,16.911 69.101,17.004 C69.298,16.981 69.366,16.829 69.521,16.764 C71.359,16.83 72.783,16.053 74.501,16.524 C74.768,16.718 75.259,16.686 75.521,16.884 C76.656,16.93 77.117,17.649 77.982,17.964 C78.154,18.312 78.455,18.53 78.822,18.684 C78.992,19.054 79.286,19.299 79.721,19.404 C79.909,19.937 80.356,20.21 80.561,20.724 C80.588,20.848 80.475,20.834 80.38,20.84 Z M76.84,33.2 C76.859,33.058 77.049,33.088 77.02,32.9 C76.843,32.7 76.929,32.16 77.081,31.94 C76.954,31.564 76.902,31.14 76.901,30.8 C76.899,30.572 77.026,30.272 77.02,30.2 C76.991,29.81 76.638,29.465 76.781,28.94 C76.707,28.814 76.615,28.706 76.541,28.58 C76.343,27.758 75.802,27.279 75.401,26.66 C75.092,26.408 74.703,26.237 74.501,25.88 C73.961,25.624 73.438,25.32 72.761,25.22 C71.499,25.033 70.325,25.672 69.641,26.36 C69.589,26.688 69.299,26.778 69.341,27.2 C69.251,27.29 69.088,27.307 69.041,27.44 C69.325,27.451 69.02,27.677 69.101,27.86 C68.775,27.934 68.74,28.298 68.561,28.52 C68.691,28.904 68.352,29.3 68.202,29.6 C68.272,29.609 68.372,29.59 68.382,29.66 C68.352,30.027 68.014,30.39 68.202,30.74 C68.066,30.804 67.984,30.922 67.962,31.1 C68.021,31.795 67.833,32.149 68.022,32.96 C68.041,33.098 67.849,33.027 67.842,33.141 C68.066,33.213 67.966,33.762 67.842,33.86 C68.02,34.403 68.028,35.044 68.322,35.481 C68.321,35.6 68.158,35.557 68.202,35.721 C68.305,35.717 68.355,35.766 68.382,35.84 C68.342,36.226 68.695,36.383 68.562,36.68 C68.961,37.011 68.884,37.505 69.462,37.701 C69.409,37.932 69.724,37.799 69.642,38.061 C70.007,38.116 70.276,38.267 70.483,38.481 C71.217,38.386 71.493,38.751 72.163,38.721 C73.044,38.602 73.801,38.358 74.562,38.12 C74.852,37.75 75.06,37.297 75.462,37.04 C75.575,36.293 76.544,35.882 76.483,34.76 C76.594,34.752 76.683,34.721 76.722,34.641 C76.686,34.557 76.492,34.631 76.483,34.52 C76.908,34.155 77.026,33.72 76.84,33.2 Z"></path>
                <path d="M125.8,18.56 C125.531,19.17 125.66,19.74 125.5,20.36 C125.041,20.35 125.523,20.97 125.02,20.96 C125.046,21.034 125.097,21.083 125.201,21.08 C124.695,21.754 124.103,22.342 123.52,22.94 C122.605,23.125 122.143,23.763 121.361,24.08 C121.308,24.888 120.475,24.914 120.401,25.7 C120.231,25.65 120.245,25.784 120.1,25.76 C120.076,25.905 120.21,25.891 120.161,26.06 C120.012,26.051 119.975,26.154 119.861,26.18 L119.861,26.54 C119.772,26.571 119.71,26.629 119.621,26.66 C119.643,27.343 119.406,27.707 118.841,27.92 C118.924,27.957 118.85,28.151 118.961,28.16 C118.788,28.589 118.08,28.581 117.881,28.16 C117.578,28.117 117.443,28.242 117.221,28.28 C117.118,28.148 117.29,27.905 117.461,27.86 C117.407,27.574 117.262,27.38 117.041,27.26 C117.285,26.951 117.137,26.598 117.401,26.36 C117.422,26.258 117.354,26.247 117.281,26.24 C117.371,26.01 117.529,25.848 117.701,25.7 C117.746,25.515 117.536,25.584 117.581,25.4 C117.759,25.138 117.788,24.728 117.761,24.26 C117.893,23.812 118.164,23.503 118.181,23.06 C118.8,22.679 118.72,21.599 119.381,21.26 C119.241,20.942 119.691,20.743 119.681,20.36 C119.73,20.372 119.742,20.421 119.801,20.42 C119.766,20.159 120.244,20.016 120.281,19.64 L120.461,19.64 C120.419,19.417 120.564,19.382 120.521,19.16 C120.895,19.166 120.637,18.715 121.122,18.74 C121.112,18.67 121.013,18.689 120.942,18.68 C121.022,18.58 121.095,18.473 121.242,18.44 C121.534,17.472 122.77,17.449 123.462,16.88 C123.666,16.884 123.881,16.899 123.942,16.76 C124.18,16.801 124.35,16.912 124.662,16.88 C124.97,17.192 125.283,17.499 125.622,17.78 C125.657,18.197 125.66,18.296 125.8,18.56 Z"></path>
                <path d="M126.22,34.4 C125.881,34.421 125.875,34.775 125.861,35.12 C124.99,35.748 123.958,35.115 122.921,35.06 C122.665,34.611 122.147,34.121 122.141,33.62 C122.086,33.515 122.03,33.412 121.841,33.439 L121.841,33.2 C121.345,32.756 120.952,32.209 120.341,31.88 C119.705,31.838 119.273,32.075 118.721,31.82 C118.414,31.795 118.106,32.082 117.822,31.88 C117.831,31.589 118.267,31.726 118.301,31.46 C118.195,31.086 117.935,30.867 117.942,30.38 C118.061,30.38 118.018,30.216 118.181,30.26 C117.98,30.115 118.31,29.904 118.061,29.66 C118.085,29.544 118.294,29.613 118.242,29.42 C119.063,29.202 119.749,28.847 120.582,28.64 C121.071,28.669 121.503,28.492 122.021,28.52 C122.72,28.558 123.333,28.863 123.881,29.06 C123.998,29.263 124.159,29.421 124.482,29.42 C124.551,29.509 124.551,29.571 124.482,29.66 C124.943,29.798 125.096,30.245 125.502,30.44 C125.874,30.95 125.896,31.705 126.402,32.18 C126.287,32.735 126.531,33.631 126.162,33.92 C126.229,34.155 126.173,34.143 126.22,34.4 Z"></path>
                <path d="M108.04,28.7 C108.059,28.618 108.19,28.65 108.28,28.64 C108.264,28.779 108.12,28.778 108.04,28.7 Z"></path>
                <path d="M109.24,28.7 C109.31,28.769 109.452,28.768 109.599,28.76 C109.588,28.929 109.314,28.835 109.36,29.06 C109.369,29.171 109.563,29.097 109.599,29.18 C109.615,29.375 109.528,29.469 109.36,29.48 C109.504,29.556 109.678,29.601 109.78,29.72 C109.499,30.03 108.882,29.834 108.58,29.66 C108.613,29.473 108.651,29.291 108.88,29.3 C108.769,29.071 108.336,29.165 108.28,28.88 C108.417,28.642 108.654,29.105 108.639,28.82 C108.698,28.822 108.686,28.894 108.7,28.94 C109.002,28.736 109.134,28.962 109.24,28.7 Z"></path>
                <path d="M10.66,29.54 C10.861,29.499 10.879,29.641 10.9,29.78 C10.699,29.821 10.681,29.679 10.66,29.54 Z"></path>
                <path d="M116.08,30.62 C116.096,30.815 116.009,30.909 115.84,30.92 C116.018,31.36 115.977,31.827 115.78,32.3 C115.518,32.339 115.328,32.448 115.059,32.48 C114.315,32.956 113.51,33.371 112.66,33.74 C112.572,33.792 112.47,33.83 112.48,33.98 C111.64,34.201 111.261,34.88 110.5,35.179 C109.946,35.585 109.562,36.161 109,36.56 C108.938,36.917 108.631,37.031 108.52,37.339 C107.598,37.341 107.34,36.679 107.02,36.079 C107.111,35.862 107.214,35.791 107.14,35.539 C107.401,35.413 107.441,35.085 107.62,34.879 C107.689,34.8 107.842,34.771 107.92,34.699 C108.567,34.103 109.135,33.256 110.02,32.899 C110.041,32.739 110.17,32.689 110.201,32.539 C110.555,32.473 110.763,32.262 110.921,31.999 C111.692,31.629 112.424,31.222 113.021,30.679 C113.995,30.587 114.851,29.344 115.721,30.079 C115.728,30.228 115.833,30.265 115.721,30.379 C115.763,30.537 116.062,30.438 116.08,30.62 Z"></path>
                <path d="M91.36,34.4 C91.311,34.607 91.471,34.653 91.36,34.759 C91.223,34.841 91.134,34.605 91.12,34.759 C91.018,34.72 91.082,34.621 91.18,34.64 C91.137,34.421 90.723,34.536 90.58,34.579 C90.672,34.747 91.023,34.655 91,34.938 C91.082,34.837 91.689,34.953 91.48,34.758 C91.671,34.649 91.994,34.922 92.259,34.938 C92.105,35.254 91.9,34.847 91.599,34.938 C91.635,35.163 92.037,35.022 92.019,35.298 C92.134,35.273 92.17,35.169 92.32,35.178 C92.363,35.342 92.201,35.299 92.2,35.418 C92.514,35.502 92.648,35.436 92.92,35.598 C92.905,35.663 92.801,35.639 92.8,35.719 C93.421,36.037 93.77,36.629 94.42,36.918 C94.445,37.043 94.379,37.077 94.36,37.158 C94.518,37.359 94.723,37.514 94.9,37.698 C94.815,37.995 95.069,38.172 95.2,38.418 C95.158,39.035 95.731,39.625 95.38,40.158 C95.5,40.278 95.374,40.644 95.56,40.698 C95.348,41.006 95.364,41.542 95.081,41.777 C95.083,41.836 95.154,41.824 95.201,41.838 C94.972,42.553 94.457,42.692 94.241,43.338 C93.623,43.52 93.369,44.067 92.801,44.298 C92.664,44.621 92.483,44.901 92.081,44.958 C91.994,45.031 91.99,45.187 91.901,45.258 C90.455,45.737 89.031,45.625 87.821,45.018 C87.539,44.68 87.238,44.362 86.8,44.178 C86.668,43.66 86.336,43.497 86.321,43.098 C86.216,42.984 86.108,42.871 86.02,42.739 C86.065,42.682 86.129,42.647 86.201,42.619 C85.926,42.464 85.69,42.052 85.781,41.72 C85.564,41.4 85.382,41.105 85.541,40.519 C85.502,40.318 85.312,40.269 85.241,40.099 C85.467,39.987 85.211,39.346 85.481,39.14 C85.461,38.998 85.294,39.005 85.241,38.9 C85.223,38.599 85.506,38.355 85.18,38.179 C85.46,37.619 85.423,36.741 85.96,36.439 L85.96,36.259 C86.353,35.991 86.683,35.661 86.981,35.299 C87.699,35.177 88.059,34.697 88.901,34.699 C89.002,34.6 89.171,34.569 89.26,34.459 C89.871,34.427 90.684,34.35 91.36,34.4 Z M91.72,44 C91.724,43.896 91.674,43.846 91.6,43.82 C91.605,43.914 91.592,44.027 91.72,44 Z"></path>
                <path d="M10.24,43.04 C10.415,42.951 10.415,43.309 10.24,43.221 L10.24,43.04 Z"></path>
                <path d="M96.64,57.74 C96.567,57.826 96.434,57.853 96.281,57.859 C96.272,57.677 96.593,57.691 96.64,57.74 Z"></path>
                <path d="M112.84,24.62 C113.305,24.598 112.607,24.991 112.901,25.1 C112.874,25.187 112.848,25.094 112.781,25.1 C112.693,25.614 112.466,26.09 112.241,26.42 L111.581,26.42 C111.598,26.004 110.956,26.245 110.621,26.18 C110.845,26.009 110.992,25.488 110.621,25.34 C110.724,25.103 110.787,24.939 110.56,24.8 C110.568,24.648 110.648,24.568 110.8,24.56 C110.845,24.375 110.636,24.445 110.68,24.26 C110.999,23.859 110.8,22.94 111.34,22.76 C111.4,22.521 111.161,22.579 111.22,22.34 C111.487,22.367 111.3,21.94 111.58,21.98 C111.57,21.91 111.471,21.929 111.4,21.92 C111.341,21.39 111.284,21.174 111.099,20.84 C111.353,20.782 111.083,20.616 111.099,20.48 C111.117,20.336 111.279,20.262 111.28,20.18 C111.28,20.109 111.176,20.075 111.16,20 C111.086,19.67 111.196,19.132 111.28,18.86 C111.289,18.691 111.11,18.71 111.04,18.62 C111.081,18.48 111.239,18.459 111.28,18.32 C111.069,18.13 111.455,17.832 111.219,17.84 C111.412,17.579 111.39,17.454 111.4,17.06 C111.622,17.099 111.562,16.857 111.759,16.58 C111.948,16.314 112.238,16.165 112.36,15.92 C112.731,15.671 113.221,15.542 113.5,15.2 C114.076,15.144 114.374,15.366 114.52,15.74 C114.767,15.773 114.928,15.891 115.06,16.04 C115.035,16.114 114.984,16.163 114.88,16.16 C114.896,16.285 115.144,16.176 115.18,16.28 C115.14,16.613 115.341,16.87 115.66,17 C115.658,17.31 115.436,17.483 115.72,17.72 C115.748,17.908 115.559,17.878 115.54,18.02 C115.686,18.636 115.474,18.993 115.6,19.52 C115.288,19.507 115.44,19.959 115.18,20 C115.206,20.053 115.233,20.107 115.3,20.12 C115.273,20.293 115.088,20.308 115.12,20.54 C114.807,20.586 114.847,20.986 114.46,20.96 C114.606,21.207 114.23,21.127 114.34,21.5 C113.967,21.527 113.935,21.895 113.68,22.04 C113.714,22.126 113.774,22.186 113.861,22.22 C113.272,22.391 113.664,23.543 113.201,23.84 C113.381,24.021 113.131,24.541 112.84,24.62 Z"></path>
                <path d="M37.42,51.26 C37.295,51.226 37.249,51.112 37.06,51.141 C37,51.34 37.144,51.337 37.3,51.321 C37.104,51.665 36.811,51.911 36.76,52.401 C36.29,52.77 36.194,53.514 35.68,53.84 C35.67,53.91 35.694,53.947 35.741,53.96 C35.316,54.315 35.083,54.861 34.72,55.279 C34.496,55.232 34.519,55.47 34.42,55.58 C34.39,55.613 34.191,55.642 34.12,55.7 C34.034,55.771 34.011,55.88 33.94,55.939 C33.279,56.501 32.653,57.453 31.78,57.799 C31.444,58.264 31.197,58.816 30.639,59.06 C30.455,59.175 30.368,59.388 30.219,59.539 C29.995,59.475 30.048,59.688 29.86,59.659 C29.41,60.414 28.292,60.487 27.28,60.379 C27.302,60.177 27.176,60.123 27.099,60.019 C26.875,60.025 27.095,60.253 26.98,60.259 C26.605,60.333 26.574,60.066 26.2,60.14 C26.113,59.827 25.799,59.742 25.599,59.539 C25.553,58.87 25.411,58.491 25.839,57.919 C25.824,57.855 25.72,57.878 25.719,57.799 C25.691,57.611 25.794,57.554 25.9,57.499 C25.956,56.214 26.967,55.253 27.28,54.199 C27.463,54.202 27.424,53.983 27.639,54.018 C27.624,53.954 27.52,53.978 27.519,53.899 C27.699,53.618 27.824,53.282 28.12,53.119 C28.199,52.778 28.372,52.532 28.599,52.339 L28.599,52.099 C29.184,51.464 29.537,50.597 30.16,49.999 L30.16,49.759 C31.425,48.404 32.28,46.64 33.519,45.259 C33.902,44.602 34.194,43.853 34.719,43.339 C34.81,43.03 34.962,42.782 35.199,42.619 C35.186,42.516 35.302,42.464 35.199,42.438 C35.333,42.352 35.373,42.172 35.558,42.139 C35.8,41.28 36.559,40.939 36.878,40.159 C37.2,40.101 37.168,39.688 37.479,39.619 L37.479,39.379 C38.206,38.745 38.678,37.858 39.159,36.98 C39.212,36.933 39.295,36.916 39.399,36.919 C39.251,36.587 38.992,36.366 38.678,36.199 C37.573,34.944 36.407,33.749 35.258,32.539 C35.066,32.511 35.047,32.31 34.838,32.299 L34.838,32.119 C33.932,31.645 33.548,30.649 32.798,30.019 C32.443,29.235 31.818,28.72 31.359,28.039 C31.349,27.969 31.25,27.988 31.178,27.979 C31.186,27.872 31.105,27.853 31.118,27.739 C30.139,26.657 29.156,25.581 28.478,24.199 C28.222,23.914 27.875,23.721 27.877,23.179 C27.762,23.014 27.596,22.9 27.277,22.939 C26.574,21.961 25.934,20.922 25.477,19.699 C25.397,19.199 25.593,18.975 25.596,18.559 C25.752,18.064 26.105,17.544 26.376,16.999 C26.678,16.841 27.134,16.837 27.397,16.639 C27.56,16.595 27.517,16.758 27.636,16.759 C28.407,16.714 28.828,17.048 29.496,17.239 C29.548,17.467 29.775,17.519 29.976,17.599 C30.439,18.136 30.978,18.596 31.656,18.919 C31.648,19.027 31.729,19.045 31.716,19.159 C32.139,19.156 32.12,19.595 32.437,19.699 C32.457,19.819 32.424,19.887 32.317,19.879 C32.356,20.059 32.445,19.822 32.556,19.879 C32.765,20.051 32.852,20.343 33.157,20.419 C33.404,20.972 33.912,21.264 34.357,21.619 C34.333,21.923 34.576,21.96 34.716,22.099 L34.716,22.339 C35.189,22.707 35.704,23.031 35.977,23.599 C36.785,24.111 37.257,24.958 38.136,25.399 C38.387,26.048 39.157,26.179 39.397,26.839 C39.516,26.92 39.682,26.954 39.817,27.019 C39.85,27.142 39.997,27.137 39.877,27.259 C40.54,27.896 41.32,28.416 41.857,29.179 C41.935,29.24 42.078,29.238 42.157,29.299 C42.369,29.587 42.531,29.925 42.877,30.079 C42.848,30.268 43.062,30.215 42.997,30.439 C43.013,30.564 43.261,30.456 43.297,30.559 C43.385,30.691 43.29,31.006 43.478,31.039 C43.89,31.032 43.753,30.475 44.078,30.379 C44.212,30.3 44.015,30.153 44.017,30.139 C44.087,29.849 44.582,29.857 44.438,29.299 C44.961,29.143 45.012,28.514 45.517,28.339 C45.907,27.288 46.88,26.822 47.318,25.819 C47.934,25.456 48.059,24.601 48.698,24.259 C48.696,24.118 48.802,24.083 48.758,23.899 C49.515,23.515 49.681,22.542 50.439,22.159 C50.564,21.604 50.851,21.211 51.279,20.959 C51.235,20.776 51.341,20.74 51.339,20.599 C51.86,20.12 52.308,19.567 52.659,18.919 C52.998,18.878 53.098,18.599 53.199,18.319 C53.67,18.03 53.882,17.483 54.279,17.119 L54.459,17.119 C54.861,16.621 55.472,16.331 55.959,15.919 C56.101,15.918 56.136,16.023 56.319,15.979 C56.28,15.918 56.18,15.917 56.199,15.799 C56.394,15.794 56.522,15.722 56.558,15.559 C56.931,15.624 57.239,15.37 57.638,15.319 C58.488,15.211 59.409,15.487 59.918,15.859 L59.918,16.039 C60.033,16.184 60.2,16.277 60.338,16.399 C60.334,16.651 60.39,16.765 60.638,16.879 C60.669,17.763 60.692,18.497 60.758,19.519 C60.342,20.271 60.382,21.212 59.618,21.679 C59.769,22 59.282,22.118 59.378,22.399 C58.974,22.515 59.054,23.115 58.538,23.119 C58.585,23.172 58.602,23.254 58.598,23.359 C57.875,23.816 57.617,24.737 56.918,25.219 C56.919,25.36 56.814,25.395 56.858,25.579 C56.519,25.601 56.338,26.098 56.318,26.239 C55.727,26.628 55.471,27.352 54.878,27.739 C54.727,28.327 54.303,28.644 53.918,28.999 C53.968,29.168 53.834,29.154 53.858,29.299 C52.992,30.162 52.579,31.13 51.698,31.999 L51.698,32.239 C51.381,32.361 51.259,32.68 51.158,33.018 C50.412,33.553 50.166,34.586 49.418,35.119 C49.393,35.233 49.289,35.269 49.298,35.419 C48.61,35.91 48.257,36.738 47.738,37.399 C47.624,37.424 47.587,37.528 47.438,37.518 C47.432,37.682 47.538,37.639 47.438,37.758 C47.254,37.815 47.25,38.05 47.017,38.059 C46.617,39.118 45.543,39.504 45.158,40.579 C44.408,41.149 43.992,42.053 43.298,42.679 L43.298,43.039 C42.953,43.475 42.579,43.88 42.338,44.419 C42.193,44.395 42.208,44.528 42.038,44.48 C41.742,45.423 41.171,46.093 40.538,46.7 L40.538,46.939 C39.995,47.317 39.706,47.948 39.218,48.379 C39.142,48.823 38.928,49.128 38.558,49.278 C38.614,49.665 38.128,49.946 38.018,50.358 C37.913,50.413 37.843,50.504 37.718,50.539 C37.685,50.845 37.448,50.947 37.42,51.26 Z M47.08,38 L47.08,37.82 C46.831,37.735 46.648,38.022 46.78,38.12 C46.795,37.996 47.044,38.104 47.08,38 Z M26.68,17.18 C26.984,17.344 26.903,16.971 26.68,17.18 L26.68,17.18 Z M26.08,20.72 C26.141,20.72 26.151,20.768 26.2,20.78 C26.194,20.686 26.208,20.572 26.08,20.6 L26.08,20.72 Z M42.64,30.32 C42.644,30.217 42.594,30.166 42.52,30.14 C42.435,30.228 42.432,30.373 42.64,30.32 Z M34.48,31.28 L34.599,31.28 C34.693,31.133 34.396,31.104 34.419,31.22 C34.457,31.224 34.491,31.229 34.48,31.28 Z M35.68,32.84 L35.8,32.84 L35.8,32.72 L35.68,32.72 L35.68,32.84 Z M38.68,38.721 C38.955,38.789 38.265,38.43 38.68,38.66 C38.686,38.663 38.674,38.719 38.68,38.721 Z M31.36,48.68 L31.48,48.68 L31.48,48.561 L31.36,48.561 L31.36,48.68 Z M37.18,50.061 C37.227,50.02 37.336,49.704 37.12,49.76 C37.152,49.848 37.05,50.07 37.18,50.061 Z M29.56,51.08 L29.861,51.08 C29.868,50.93 29.975,50.892 29.8,50.84 C29.857,51.058 29.53,50.891 29.56,51.08 Z M37.18,51.08 C37.181,50.961 37.344,51.004 37.3,50.84 C37.148,50.777 37.034,51.043 37.18,51.08 Z M29.62,51.5 C29.627,51.387 29.818,51.459 29.8,51.32 C29.629,51.238 29.439,51.428 29.62,51.5 Z M35.98,53.061 C36.182,53.242 36.162,52.838 35.98,53.061 L35.98,53.061 Z M34.96,53.359 L35.08,53.359 L35.08,53.24 L34.96,53.24 L34.96,53.359 Z M28,53.721 L28.12,53.721 L28.12,53.6 L28,53.6 L28,53.721 Z M32.62,56.48 L32.74,56.48 C32.833,56.332 32.536,56.303 32.559,56.419 C32.597,56.424 32.631,56.43 32.62,56.48 Z M32.08,57.38 C32.203,57.541 32.441,57.304 32.2,57.26 C32.199,57.34 32.095,57.314 32.08,57.38 Z M26.62,59.721 C26.627,59.934 26.818,59.961 27.04,59.96 C27.014,59.771 26.766,59.604 26.62,59.721 Z M26.38,59.96 C26.458,59.881 26.459,59.736 26.32,59.721 C26.242,59.8 26.241,59.943 26.38,59.96 Z"></path>
                <path d="M29.5,35.779 C29.515,35.965 29.716,35.964 29.8,36.08 C29.835,36.275 29.759,36.359 29.74,36.5 C29.847,36.951 29.652,37.487 29.86,37.82 C29.906,39.101 29.534,40.382 29.679,41.48 C29.558,42.181 29.242,42.862 29.379,43.64 C29.2,43.981 29.239,44.539 29.019,44.839 C29.319,44.971 29.823,45.181 29.559,45.679 C29.381,45.808 29.194,45.581 29.139,45.859 C28.901,45.964 28.977,45.719 28.78,45.92 C28.791,46.182 29.065,45.849 29.019,46.1 C28.878,46.205 28.707,46.381 28.48,46.46 C28.386,46.492 28.1,46.356 28.12,46.58 C27.987,46.613 28.034,46.465 27.94,46.46 C27.389,46.56 27.094,46.27 26.44,46.34 C26.322,46.353 26.312,46.447 26.259,46.46 C26.071,46.504 25.82,46.426 25.659,46.46 C25.41,46.514 25.023,46.59 24.759,46.7 C24.646,46.747 24.567,46.672 24.459,46.7 C24.257,46.754 24.082,46.888 23.859,46.939 C23.469,47.031 23.032,47 22.598,47.06 C22.064,47.132 21.506,47.392 20.678,47.299 C20.014,47.555 19.041,47.501 18.458,47.839 C18.076,47.86 17.173,47.737 16.778,48.019 C16.613,48.137 16.248,48.282 15.938,48.379 C15.658,48.432 16.021,48.224 15.818,48.199 C15.553,48.19 15.824,48.346 15.758,48.499 C14.326,48.707 13.358,49.379 11.558,49.22 C11.394,49.263 11.437,49.1 11.318,49.099 C10.387,49.191 10.112,48.625 9.518,48.379 C9.523,48.216 9.418,48.259 9.518,48.14 L9.278,48.14 C8.887,47.65 8.353,47.305 8.198,46.579 C8.146,46.404 8.108,46.512 7.958,46.518 C7.908,45.903 7.909,45.498 7.718,44.958 C7.806,44.795 7.699,44.62 7.958,44.538 C7.782,44.373 7.845,44.242 7.778,44.059 C7.858,43.444 7.869,43.198 7.958,42.438 C7.916,42.278 8.082,42.323 8.138,42.258 C7.981,41.902 8.557,41.565 8.438,41.238 C8.627,41.168 8.697,40.976 8.858,40.878 C8.928,40.868 8.909,40.769 8.918,40.698 C9.107,40.588 9.302,40.482 9.398,40.277 C9.643,40.222 9.831,40.111 9.938,39.918 C10.206,39.846 10.465,39.766 10.598,39.559 C10.737,39.539 10.828,39.569 10.898,39.619 C11.156,39.317 11.825,39.427 11.918,38.959 C13.043,38.763 14.255,38.349 15.458,38.599 C15.861,38.818 16.235,38.73 16.598,39.019 C16.617,39.16 16.715,39.267 16.598,39.379 C16.78,39.378 17.087,39.191 17.078,39.499 L16.658,39.499 C16.546,39.605 16.707,39.651 16.658,39.858 C16.244,40.217 15.809,40.338 15.098,40.219 C14.872,40.18 14.916,40.128 14.618,40.158 C14.56,40.164 14.139,40.208 13.778,40.219 C13.611,40.351 13.246,40.286 13.178,40.518 C13.108,40.468 13.017,40.44 12.878,40.458 C12.172,40.793 11.338,40.998 10.898,41.598 C10.904,42.161 10.334,42.342 10.478,42.858 C10.197,42.676 10.509,42.104 10.718,42.018 C10.698,41.78 10.715,41.575 10.838,41.479 C10.539,41.27 10.519,41.901 10.238,41.539 C10.496,42.003 10.088,42.501 9.878,42.858 C9.893,42.924 9.997,42.899 9.998,42.979 C9.866,44.617 9.711,46.141 11.018,46.819 C10.994,46.964 11.127,46.949 11.078,47.119 C11.353,47.164 11.522,47.314 11.738,47.419 C11.86,47.362 11.975,47.296 12.098,47.239 C13.872,47.012 15.213,46.354 16.778,45.919 C18.122,45.862 19.168,45.509 20.378,45.319 C21.461,45.342 22.166,44.987 23.198,44.959 C24.326,44.671 25.441,44.068 26.798,44.299 C26.997,44.278 26.893,43.953 26.918,43.759 C27.043,43.344 27.1,42.861 27.278,42.499 C27.268,41.866 27.45,41.794 27.398,41.119 C27.365,40.985 27.512,41.034 27.517,40.938 C27.348,39.952 27.882,39.118 27.757,38.298 C27.899,38.21 27.869,38.172 28.057,38.238 C28.151,38.025 27.854,38.201 27.877,38.058 C27.752,36.176 28.245,35.174 27.877,33.558 C27.704,33.33 27.807,32.828 27.517,32.718 C27.515,32.615 27.562,32.562 27.637,32.538 C26.959,31.156 26.447,29.609 25.297,28.698 C24.823,28.563 24.491,28.635 23.978,28.518 C23.784,28.604 23.474,28.575 23.198,28.578 C22.551,28.811 22.066,29.206 21.458,29.478 C21.234,29.754 20.914,29.934 20.618,30.138 C20.562,30.602 20.222,30.782 20.258,31.338 C20.155,31.455 20,31.52 19.958,31.698 C19.945,31.91 20.239,31.816 20.198,32.058 C20.058,32.039 19.968,32.068 19.898,32.118 C20.069,32.475 20.136,32.565 20.078,33.139 C19.881,33.162 19.891,33.392 19.778,33.498 C19.763,33.673 19.891,33.705 19.958,33.798 C20.012,34.008 19.762,33.901 19.718,33.858 C19.549,34.057 19.974,34.046 19.898,34.338 C19.758,34.358 19.64,34.4 19.598,34.518 C20.059,34.747 19.301,35.336 19.838,35.418 C19.739,35.52 19.513,35.492 19.418,35.598 C19.369,35.768 19.502,35.754 19.478,35.899 C19.231,35.738 19.106,35.878 18.938,35.838 C18.874,35.782 18.919,35.617 18.758,35.658 C18.778,35.459 18.767,35.289 18.638,35.238 C18.655,33.146 18.709,31.269 19.118,29.478 C19.554,28.914 20.185,28.546 20.678,28.038 L20.918,28.038 C21.461,27.601 22.043,27.203 22.778,26.958 C22.881,26.956 22.933,27.002 22.958,27.078 C23.063,27.063 23.095,26.974 23.078,26.838 C23.743,26.811 24.816,26.633 25.418,27.078 C26.23,27.046 26.665,27.391 26.858,27.978 C27.532,28.244 27.69,29.025 28.118,29.538 C28.143,29.663 28.077,29.697 28.057,29.778 C28.181,29.975 28.464,30.011 28.537,30.258 C28.475,30.504 28.393,30.596 28.477,30.858 C29.252,31.669 29.252,32.899 29.737,33.918 C29.883,34.611 29.691,35.129 29.857,35.777 C29.72,35.799 29.612,35.897 29.5,35.779 Z M19.24,29.96 C19.177,30.308 19.5,29.985 19.24,29.96 L19.24,29.96 Z M19.06,31.64 C19.064,31.556 19.046,31.411 19,31.52 C18.996,31.604 19.013,31.75 19.06,31.64 Z M19.36,35.6 C19.267,35.514 19.242,35.359 19,35.42 C18.924,35.641 19.299,35.715 19.36,35.6 Z M16.12,39.5 C16.123,39.396 16.074,39.346 16,39.32 C16.006,39.414 15.992,39.527 16.12,39.5 Z M10.48,39.98 C10.592,39.971 10.681,39.94 10.72,39.859 C10.614,39.749 10.534,39.875 10.48,39.98 Z M14.44,40.04 C14.552,40.031 14.641,40 14.68,39.92 C14.574,39.934 14.379,39.859 14.44,40.04 Z M15.88,40.04 C15.801,40.039 15.825,39.936 15.76,39.92 C15.691,40.043 15.854,40.206 15.88,40.04 Z M14.2,40.04 C14.113,40.072 13.889,39.97 13.9,40.1 C13.99,40.195 14.146,40.145 14.2,40.04 Z M10.9,41.18 C10.961,41.18 10.971,41.229 11.02,41.241 C11.02,41.18 11.068,41.169 11.08,41.121 C11.019,41.121 11.009,41.072 10.96,41.061 C10.96,41.12 10.911,41.131 10.9,41.18 Z M8.8,41.24 L8.92,41.24 L8.92,41.12 L8.8,41.12 L8.8,41.24 Z M9.7,43.1 C9.902,43.282 9.882,42.878 9.7,43.1 L9.7,43.1 Z M7.96,44.12 C8.135,44.208 8.135,43.851 7.96,43.939 L7.96,44.12 Z M27.46,46.221 C27.668,46.172 27.69,46.31 27.88,46.28 C27.921,46.079 27.779,46.061 27.64,46.041 C27.733,46.254 27.437,46.076 27.46,46.221 Z M16.12,46.4 L16.24,46.4 L16.24,46.279 L16.12,46.279 L16.12,46.4 Z M8.38,46.641 C8.534,46.565 8.339,46.276 8.26,46.46 C8.359,46.461 8.293,46.627 8.38,46.641 Z M22.12,46.939 C22.095,47.191 22.3,46.912 22.36,46.879 C22.246,46.867 22.228,46.947 22.12,46.939 Z M8.56,47.12 C8.697,47.137 8.786,47.105 8.8,47 C8.711,46.905 8.532,46.934 8.56,47.12 Z M9.04,47.48 C9.019,47.431 8.881,47.408 8.86,47.48 C8.82,47.619 9.094,47.609 9.04,47.48 Z M9.16,47.779 C9.237,47.783 9.243,47.857 9.34,47.84 C9.343,47.736 9.294,47.686 9.22,47.66 C9.22,47.721 9.171,47.731 9.16,47.779 Z M16.12,48.2 C16.223,48.203 16.274,48.154 16.3,48.08 C16.206,48.086 16.092,48.072 16.12,48.2 Z M10.9,48.92 C10.924,48.774 10.665,48.736 10.72,48.859 C10.727,48.877 10.828,48.844 10.84,48.859 C10.853,48.877 10.878,49.052 10.9,48.92 Z M12.04,49.04 C12.051,48.909 11.991,48.85 11.86,48.859 C11.849,48.99 11.909,49.051 12.04,49.04 Z"></path>
                <path d="M95.92,57.8 C97.324,58.976 99.659,58.035 101.2,57.5 C101.211,57.369 101.15,57.309 101.019,57.32 C101.059,57.239 101.148,57.208 101.259,57.2 C101.247,57.002 101.115,56.806 101.32,56.721 C101.323,56.396 101.242,56.092 101.44,55.821 C101.114,55.266 100.831,54.669 100.419,54.201 C99.592,53.687 98.626,53.313 97.359,53.241 C96.146,52.793 94.646,52.634 93.159,52.461 C91.73,52.732 90.378,53.079 88.779,53.181 C87.795,53.577 86.356,53.519 85.479,54.021 C84.04,54.102 82.846,54.429 81.638,54.742 C80.865,54.695 80.742,54.928 79.958,54.861 C78.639,55.191 76.268,55.168 74.618,55.162 C73.621,55.158 72.587,55.009 71.557,55.101 C71.026,55.57 69.609,55.153 68.917,55.461 C67.476,54.98 65.153,55.505 63.697,54.982 C63.295,55.105 62.819,54.816 62.497,55.042 C61.867,54.928 61.699,54.964 61.057,54.982 C60.73,54.789 60.036,54.962 59.738,54.742 C59.547,54.69 59.552,54.836 59.438,54.861 C58.982,54.588 58.199,54.941 57.877,54.622 C57.701,54.686 57.567,54.792 57.277,54.742 C56.842,54.558 56.655,54.841 56.377,54.502 C56.271,54.555 56.225,54.67 56.017,54.622 C55.932,54.487 55.692,54.508 55.597,54.382 C54.785,54.381 54.096,54.336 53.618,54.143 C53.013,54.176 52.312,54.245 51.638,54.022 C51.194,54.09 50.969,54.038 50.498,54.022 C50.235,54.066 50.547,53.903 50.378,53.903 L49.958,53.903 C49.146,53.486 48.088,53.585 46.898,53.302 C46.241,53.42 45.611,53.157 45.038,53.242 C45.056,53.084 44.955,53.045 44.798,53.062 C44.774,52.917 44.907,52.931 44.859,52.761 C44.831,52.941 44.547,53.054 44.619,52.701 C44.538,52.72 44.569,52.85 44.558,52.94 C44.273,52.794 44.491,52.282 44.199,52.041 C44.318,51.802 44.424,51.537 44.678,51.741 C44.725,51.531 44.578,51.43 44.798,51.201 C45.923,51.411 46.914,51.437 48.038,51.68 C48.26,51.637 48.013,51.5 48.158,51.38 C48.289,51.389 48.287,51.531 48.278,51.68 C50.38,51.496 52.538,51.907 54.578,51.8 C55.152,51.955 55.974,51.984 56.557,52.279 C57.288,52.07 58.736,52.072 59.318,52.4 C61.274,52.24 63.387,52.941 65.198,52.4 C65.387,52.343 65.557,52.216 65.738,52.16 C67.249,51.687 68.958,51.209 69.998,50.359 C71.039,50.121 71.626,49.427 72.638,49.16 C73.188,48.839 73.94,48.297 74.798,48.08 C75.145,47.992 75.5,48.019 75.819,47.96 C76.016,47.923 76.161,47.828 76.359,47.84 C77.015,47.879 77.393,48.428 77.919,48.68 C78.032,48.827 77.887,48.896 77.919,49.04 C77.942,49.143 78.094,49.227 78.099,49.279 C78.114,49.422 77.771,49.642 78.099,49.82 C77.919,50.171 78.113,50.422 78.039,51.019 C77.727,51.132 77.775,51.437 77.439,51.62 C77.428,51.75 77.651,51.646 77.739,51.68 C77.779,51.961 77.352,51.774 77.379,52.04 C77.624,52.143 77.976,51.893 78.4,51.98 C79.607,51.643 80.751,51.708 82.12,51.439 C83.802,51.111 85.511,50.789 87.04,50.359 C89.547,50.087 91.57,49.33 94.06,49.04 C94.258,48.957 94.463,48.883 94.661,48.8 C96.51,48.649 98.017,48.156 100.181,48.321 C101.728,48.634 103.128,49.093 104.681,49.401 C105.126,49.735 105.704,49.938 106.301,50.121 C106.351,50.331 106.59,50.351 106.781,50.421 C107.16,50.802 107.619,51.103 107.921,51.562 C107.94,51.643 108.071,51.611 108.161,51.622 C108.233,51.85 108.358,52.025 108.401,52.281 C108.751,52.531 108.921,52.962 109.3,53.181 C109.276,53.326 109.409,53.312 109.361,53.482 C109.674,53.567 109.639,54.003 109.901,54.142 C110.053,54.913 110.033,55.599 110.501,56.121 C110.492,56.252 110.35,56.25 110.201,56.241 C110.745,56.328 110.856,57.073 110.501,57.321 C110.507,57.475 110.735,57.407 110.741,57.561 C110.75,58.897 109.99,59.809 109.361,60.621 C108.693,61.481 107.522,62.33 106.421,62.661 C105.766,62.725 105.114,62.794 104.621,63.02 C104.244,63.003 103.947,63.067 103.781,63.26 C101.135,63.807 97.628,63.692 94.541,63.5 C93.988,63.332 93.396,63.204 92.861,63.02 C92.628,62.514 92.075,62.327 91.961,61.701 C91.841,61.581 91.786,61.396 91.601,61.341 C91.804,61.227 91.551,60.967 91.421,60.741 C91.35,60.617 91.405,60.649 91.301,60.501 C91.263,60.447 91.311,60.271 91.121,60.142 C91.076,59.728 91.076,59.533 90.941,59.301 C91.046,58.673 90.962,58.316 91.06,57.681 C91.392,57.138 91.694,56.406 92.081,55.761 C92.269,55.71 92.334,55.534 92.56,55.521 C92.661,55.402 92.555,55.445 92.56,55.281 C93.43,54.632 94.286,53.967 95.56,53.722 C95.811,53.771 96.043,53.838 96.34,53.841 C96.747,54.153 97.31,54.312 97.78,54.562 C97.743,54.798 97.914,54.828 98.08,54.861 C98.032,54.998 98.146,55.263 98.2,55.101 C98.268,55.113 98.233,55.162 98.2,55.162 C98.346,55.316 98.283,55.678 98.5,55.762 C98.436,55.977 98.349,56.171 98.32,56.422 C97.558,56.918 96.566,57.187 95.92,57.8 Z M75.94,53.061 C75.959,52.979 76.025,52.946 76,52.821 C75.795,52.775 75.766,53.049 75.94,53.061 Z M45.7,53.18 C45.902,53.362 45.882,52.958 45.7,53.18 L45.7,53.18 Z M75.64,53.6 L75.88,53.6 C75.832,53.393 75.97,53.37 75.941,53.18 C75.801,53.2 75.711,53.17 75.64,53.12 C75.434,53.307 75.638,53.435 75.64,53.6 Z M52.36,53.96 C52.363,53.857 52.313,53.807 52.24,53.779 C52.246,53.874 52.232,53.988 52.36,53.96 Z M58.96,54.561 L59.08,54.561 C59.173,54.413 58.876,54.384 58.9,54.5 C58.937,54.504 58.971,54.509 58.96,54.561 Z M69.46,55.04 C69.477,55.302 69.914,55.094 70,55.04 C69.738,55.037 69.672,54.953 69.46,55.04 Z"></path>
                <path d="M7.24,21.44 C7.329,21.638 7.31,21.239 7.48,21.32 C7.635,21.602 7.824,21.974 8.08,21.98 C8.086,22.166 7.891,22.151 7.96,22.4 C8.085,22.475 8.213,22.547 8.32,22.64 C8.336,23.628 8.987,24.532 9.22,25.64 C9.309,25.75 9.409,25.85 9.52,25.94 C9.488,25.988 9.458,26.038 9.46,26.12 C9.765,26.515 9.808,27.172 10.24,27.44 C10.235,27.535 10.269,27.669 10.18,27.68 C10.518,27.882 10.61,28.33 10.84,28.64 C10.653,28.793 10.465,28.674 10.3,28.76 C10.206,29.135 10.663,28.958 10.6,29.3 C10.406,29.197 10.242,29.139 10.06,29.3 C10.094,29.743 10.102,29.891 9.88,30.14 L9.04,30.14 C8.737,29.586 8.604,29.01 7.96,28.7 C7.935,28.575 8.001,28.541 8.02,28.46 C7.795,28.265 7.486,28.154 7.48,27.74 C7.201,27.579 7.042,27.299 6.76,27.14 C6.721,26.818 6.48,26.7 6.28,26.54 C5.871,25.989 5.619,25.281 5.08,24.86 L5.08,24.62 C4.505,24.115 4.196,23.344 4,22.46 L4.18,22.46 C4.164,22.335 3.916,22.443 3.88,22.34 C3.788,21.662 3.479,20.939 3.76,20.24 C3.905,20.264 3.891,20.13 4.06,20.18 C3.851,19.863 4.482,19.942 4.48,19.64 C4.699,19.679 4.8,19.599 4.9,19.52 C5.711,19.729 6.208,20.252 6.88,20.6 C6.871,20.749 6.677,20.618 6.64,20.6 C6.678,20.882 6.893,20.987 7.24,20.96 C7.223,21.097 7.254,21.186 7.36,21.2 C7.434,21.394 7.166,21.246 7.24,21.44 Z M3.94,20.54 L4.06,20.54 L4.06,20.36 L3.88,20.36 C3.877,20.442 3.908,20.492 3.94,20.54 Z M7.78,22.04 C7.691,22.05 7.559,22.019 7.54,22.1 C7.62,22.178 7.763,22.179 7.78,22.04 Z M4.48,23.48 L4.6,23.48 C4.693,23.333 4.396,23.304 4.42,23.42 C4.457,23.423 4.491,23.429 4.48,23.48 Z"></path>
                <path d="M16.72,22.64 C16.497,22.717 16.497,23.017 16.18,23 C16.161,23.138 16.353,23.066 16.36,23.18 C16.142,23.722 15.693,24.033 15.52,24.62 C15,24.586 15.242,25.104 14.92,25.16 C14.86,26.494 15.029,27.712 15.16,28.82 C15.048,28.938 14.94,28.839 14.8,28.82 C14.668,28.828 14.775,29.075 14.74,29.18 C14.58,29.42 14.272,29.512 14.14,29.78 C14.026,29.807 13.778,29.698 13.84,29.9 C13.635,29.785 13.325,29.775 13.12,29.66 C12.717,28.217 11.904,27.162 11.8,25.7 C11.557,25.533 11.789,24.957 11.56,24.92 C11.76,24.689 11.614,24.387 11.56,24.2 C11.515,24.015 11.725,24.084 11.68,23.9 C11.623,23.55 11.636,23.106 11.8,22.82 C11.736,22.237 11.863,21.645 12.28,21.38 C12.112,20.977 12.691,20.841 12.64,20.36 C13.117,20.478 13.034,20.034 13.48,20.12 L13.48,20 C15.174,20.266 16.328,21.072 16.72,22.64 Z M13.24,20.48 C13.346,20.466 13.54,20.541 13.48,20.36 L13.24,20.36 L13.24,20.48 Z"></path>
                <path d="M108.82,27.44 C108.768,27.529 108.669,27.569 108.519,27.56 C108.712,27.807 109.123,27.836 109.299,28.1 C109.097,28.32 109.198,28.476 108.999,28.7 C108.526,28.646 108.623,28.367 108.159,28.28 C108.137,28.382 108.206,28.393 108.279,28.4 C108.145,28.606 107.984,28.34 107.979,28.22 C107.131,27.907 106.563,27.315 105.579,27.14 C105.081,27.118 104.565,27.113 104.139,27.02 C103.872,27.133 103.603,27.244 103.36,27.38 C103.354,27.465 103.349,27.55 103.42,27.56 C103.393,27.658 102.967,27.659 103.18,27.8 C102.613,27.933 102.788,28.808 102.281,29 L102.281,29.6 C101.994,30.183 102.138,30.804 102.22,31.52 C102.237,31.657 102.205,31.746 102.1,31.76 C102.211,31.909 102.246,32.135 102.34,32.3 C102.286,32.406 102.195,32.475 102.16,32.6 C102.204,32.656 102.269,32.691 102.34,32.72 C102.166,33.064 102.453,33.201 102.46,33.679 C102.375,33.674 102.29,33.669 102.28,33.74 C102.318,33.961 102.485,34.054 102.7,34.099 C102.539,34.588 103.007,34.787 102.76,34.999 C102.766,35.153 102.994,35.085 103,35.239 C103.052,35.43 102.905,35.425 102.88,35.539 C102.897,35.663 103.146,35.554 103.12,35.72 C103.191,35.898 103.137,35.923 103.059,36.079 C103.175,36.263 103.189,36.55 103.36,36.679 C103.393,37.066 103.44,37.439 103.719,37.579 C103.877,38.327 104.126,38.798 104.139,39.379 C104.154,39.484 104.243,39.516 104.379,39.499 C104.388,39.647 104.391,39.79 104.259,39.799 C104.434,39.976 104.522,40.266 104.44,40.579 C104.535,40.802 104.656,40.946 104.799,41.239 C104.857,41.456 104.529,41.29 104.559,41.479 C104.882,41.675 105.355,41.723 105.879,41.719 C106.135,41.802 106.427,41.851 106.659,41.958 C107.269,41.988 107.873,42.023 108.339,42.198 C109.654,42.078 110.718,42.56 111.879,42.677 C113.038,42.794 114.188,42.656 115.359,42.917 C116.199,42.597 116.998,42.236 117.758,41.837 C118.033,41.27 118.557,41.112 118.718,40.337 C118.787,40.089 118.592,40.104 118.598,39.917 C118.806,39.813 118.725,39.418 118.598,39.257 C118.662,38.782 118.536,38.632 118.598,38.297 C118.509,38.227 118.528,38.048 118.359,38.058 C118.405,37.904 118.419,37.717 118.539,37.638 C118.507,37.589 118.477,37.54 118.479,37.457 C118.164,36.833 117.829,36.228 116.859,36.257 C116.408,36.069 115.824,36.013 115.419,35.777 C115.572,35.55 115.096,35.525 115.059,35.298 C115.185,34.964 115.158,34.792 115.12,34.458 C116.011,33.844 117.205,34.36 118.36,34.458 C118.577,34.58 118.685,34.812 119.019,34.818 C119.125,35.051 119.346,35.172 119.559,35.297 C119.512,35.505 119.616,35.562 119.74,35.597 C119.708,35.646 119.678,35.695 119.679,35.777 C119.76,35.957 119.908,36.068 120.099,36.138 C119.988,36.428 120.207,36.382 120.16,36.738 C120.095,36.722 120.119,36.619 120.04,36.618 C120.004,36.894 120.306,36.832 120.4,36.978 C120.332,37.451 120.627,37.769 120.4,38.058 C120.632,38.685 120.535,39.238 120.519,39.857 C120.498,39.96 120.566,39.97 120.639,39.978 C120.642,40.16 120.513,40.21 120.459,40.337 C120.675,40.825 120.261,41.17 120.279,41.657 C119.833,41.81 119.914,42.492 119.558,42.737 C119.81,43.374 119.118,43.518 118.958,43.936 C118.669,43.887 118.591,44.049 118.538,44.237 C118.156,44.378 117.855,44.532 117.398,44.776 C117.255,44.852 116.856,45.174 116.618,45.256 C116.404,45.33 116.064,45.318 115.778,45.376 C115.432,45.447 115.168,45.621 114.878,45.376 C114.289,45.324 113.479,45.496 113.078,45.256 C112.522,45.3 112.156,45.242 111.517,45.256 C109.867,44.688 107.419,44.914 105.818,44.296 C105.485,44.309 105.17,44.305 104.978,44.176 C104.475,44.208 103.847,44.328 103.238,44.416 C103.028,44.078 102.645,44.129 102.158,44.176 C102.253,44.011 102.362,43.861 102.517,43.756 C102.515,43.399 102.241,43.313 102.038,43.156 C102.22,42.808 102.098,42.638 102.098,42.196 C102.401,42.238 102.511,42.088 102.699,42.015 C102.75,41.668 102.667,41.517 102.879,41.295 C102.682,40.935 102.488,40.345 102.639,40.095 C102.693,39.902 102.444,40.011 102.4,39.915 C102.408,39.206 102.076,38.839 102.04,38.175 C102.031,38.064 101.837,38.138 101.8,38.056 C101.943,37.771 101.828,37.284 101.56,37.216 C101.41,36.666 101.41,36.169 101.081,35.716 C101.048,35.582 101.195,35.63 101.201,35.535 C101.226,35.37 100.977,35.479 100.961,35.354 C101.11,34.612 100.39,33.997 100.601,33.195 C100.634,33.061 100.487,33.11 100.482,33.014 C100.49,32.903 100.521,32.814 100.601,32.774 C100.348,32.569 100.613,32.11 100.421,31.934 L100.541,31.934 C100.252,31.384 100.346,31.156 100.181,30.494 C100.276,30.468 100.233,30.306 100.421,30.374 C100.232,30.184 100.507,30.058 100.301,29.774 C100.581,29.062 100.615,28.223 101.141,27.674 C101.095,27.62 101.077,27.538 101.081,27.434 C101.206,27.459 101.24,27.393 101.321,27.374 C101.392,26.946 101.775,26.829 101.8,26.354 C102.385,25.895 103.021,25.471 103.96,25.394 C104.607,25.341 105.573,25.451 106.36,25.634 C106.595,25.799 106.843,25.95 107.2,25.994 C107.403,26.15 107.523,26.39 107.8,26.474 C107.872,26.553 107.823,26.568 107.8,26.654 C108.329,26.73 108.33,27.33 108.82,27.44 Z"></path>
                <path d="M10.12,34.16 C9.998,34.033 9.674,33.885 9.46,34.04 C9.625,34.482 9.928,34.655 10.24,34.82 C10.156,34.992 10.403,35.125 10.24,35.179 C10.023,35.236 10.156,34.943 10.12,34.82 C9.832,34.929 9.763,34.824 9.7,34.58 C9.611,34.611 9.549,34.669 9.46,34.7 C9.502,35.111 9.598,35.112 9.4,35.42 C9.075,35.498 9.037,35.399 8.56,35.42 C8.375,34.885 7.707,34.832 7.36,34.46 C6.947,34.473 6.589,34.432 6.28,34.34 C5.281,34.842 4.298,35.358 3.28,35.84 C3.098,35.758 2.799,35.757 2.68,35.901 C2.336,35.682 1.893,35.844 1.48,35.78 C1.326,35.495 1.023,35.358 0.76,35.18 C0.616,34.825 0.555,34.385 0.4,34.04 L0.4,32.84 C0.367,32.707 0.515,32.755 0.52,32.66 C0.584,32.436 0.371,32.489 0.4,32.3 C0.449,32.034 0.705,31.843 0.58,31.58 C0.689,31.449 0.851,31.372 0.88,31.16 C1.103,31.103 1.345,31.064 1.36,30.8 C1.689,30.689 2.047,30.607 2.2,30.32 L2.56,30.32 C3.08,30.043 3.649,30.586 4.3,30.56 C4.657,30.723 5.125,30.775 5.38,31.04 C5.837,30.907 6.054,31.276 6.28,31.4 C6.366,31.447 6.481,31.41 6.58,31.46 C6.651,31.496 6.683,31.6 6.76,31.64 C7.115,31.824 7.591,31.917 7.9,32.12 C8.049,32.218 8.099,32.433 8.44,32.42 C8.66,32.86 9.203,32.977 9.4,33.44 C9.714,33.576 10.137,33.889 10.12,34.16 Z M5.8,31.4 C5.817,31.263 5.786,31.174 5.68,31.16 C5.694,31.266 5.62,31.46 5.8,31.4 Z M0.82,31.94 C0.823,31.903 0.829,31.869 0.88,31.88 L0.88,31.76 C0.81,31.77 0.71,31.75 0.7,31.82 C0.779,31.821 0.755,31.925 0.82,31.94 Z M5.38,34.46 C5.441,34.46 5.451,34.509 5.5,34.52 C5.5,34.46 5.549,34.45 5.56,34.401 C5.5,34.401 5.489,34.352 5.44,34.34 C5.44,34.4 5.392,34.412 5.38,34.46 Z M4.72,34.939 C4.881,34.981 4.836,34.816 4.9,34.759 C4.769,34.749 4.709,34.809 4.72,34.939 Z M1.6,35.42 C1.599,35.5 1.495,35.475 1.48,35.54 C1.672,35.592 1.668,35.447 1.72,35.359 C1.57,35.439 1.574,35.08 1.48,35.299 C1.547,35.312 1.573,35.367 1.6,35.42 Z M2.62,35.721 C2.757,35.737 2.846,35.705 2.86,35.6 C2.771,35.506 2.592,35.533 2.62,35.721 Z"></path>
                <path d="M16.54,34.04 C16.686,34.166 16.487,34.307 16.6,34.4 C16.859,34.558 16.821,34.222 17.08,34.22 C16.7,34.833 17.709,35.107 17.56,35.659 L17.8,35.659 C17.889,36.15 18.317,36.302 18.46,36.739 C18.47,36.809 18.569,36.79 18.64,36.799 L18.64,36.98 C19.133,37.247 19.174,37.965 19.78,38.12 C19.891,38.328 20.056,38.617 20.26,38.779 C20.345,38.846 20.486,38.828 20.56,38.9 C20.623,38.961 20.611,39.119 20.68,39.2 C20.732,39.26 20.854,39.258 20.92,39.32 C21.031,39.425 21.101,39.641 21.22,39.799 C21.358,39.982 21.537,40.095 21.64,40.22 C21.689,40.279 21.65,40.402 21.701,40.459 C21.724,40.486 21.867,40.495 21.881,40.519 C21.904,40.559 21.852,40.665 21.881,40.7 C22.042,40.888 22.227,41.101 22.541,41 C22.413,41.229 22.653,41.286 22.841,41.359 C22.894,41.567 22.945,41.775 23.081,41.9 C23.036,42.095 22.781,42.08 22.601,42.14 C22.625,42.767 21.84,43.197 21.162,42.98 C21.207,42.794 20.997,42.865 21.042,42.679 C20.374,42.107 19.795,41.447 19.362,40.64 C19.309,40.593 19.227,40.576 19.122,40.579 C19.062,40.118 18.603,40.058 18.522,39.619 L18.282,39.619 C18.257,39.265 17.99,39.15 17.682,39.079 C17.561,38.458 16.701,38.331 16.842,37.64 C16.739,37.542 16.624,37.458 16.422,37.459 C15.841,36.37 14.925,35.433 15.162,33.98 C15.542,33.861 16.026,33.421 16.182,34.04 C16.3,34.04 16.42,34.04 16.54,34.04 Z M21.22,42.561 C21.138,42.467 21.1,42.2 21.16,42.141 C20.931,42.136 20.601,41.555 20.559,42.08 C21.161,41.82 20.926,42.712 21.22,42.561 Z M22.06,42.32 L22.241,42.32 C22.249,42.213 22.181,42.179 22.06,42.2 L22.06,42.32 Z M21.22,42.74 C21.334,42.765 21.328,42.912 21.52,42.859 C21.565,42.599 21.286,42.586 21.22,42.74 Z M21.88,42.8 C21.984,42.803 22.034,42.754 22.06,42.68 C21.966,42.686 21.852,42.672 21.88,42.8 Z"></path>
                <path d="M50.74,56.66 C50.967,57.515 51.289,58.163 51.219,59.18 C51.155,59.454 50.792,59.407 50.98,59.78 C50.542,59.921 50.279,60.36 50.08,60.561 C49.255,60.795 48.653,61.47 47.8,61.34 C47.721,61.402 47.579,61.399 47.5,61.46 C46.91,61.498 46.852,61.374 46.36,61.34 C46.106,61.266 46.223,61.131 45.88,61.221 C45.597,60.944 45.212,60.769 44.92,60.5 C44.96,60.164 44.872,59.959 44.68,59.66 C44.462,57.401 45.151,56.254 46.66,55.64 C48.161,55.454 49.873,55.73 50.74,56.66 Z M45.28,57.561 C45.187,57.493 45.133,57.388 45.04,57.321 C45.052,57.434 45.194,57.718 45.28,57.561 Z M44.8,58.7 C44.915,58.675 45.059,58.678 45.04,58.519 L44.8,58.519 L44.8,58.7 Z M45.4,60.5 C45.418,60.342 45.274,60.346 45.16,60.32 C45.142,60.479 45.285,60.475 45.4,60.5 Z"></path>
                <path d="M66.7,57.439 C66.554,57.837 66.674,58.097 66.76,58.279 C66.243,59.07 64.753,59.533 63.7,58.939 C63.521,58.538 63.452,57.945 63.639,57.5 C64.032,57.232 64.391,56.932 64.839,56.721 C65.569,56.852 66.087,57.193 66.7,57.439 Z M64.36,58.939 C64.436,59.022 64.718,59.044 64.719,58.879 C64.508,58.933 64.411,58.727 64.36,58.939 Z"></path>
                <path d="M55,57.02 C55.079,56.944 55.221,56.944 55.3,57.02 C55.492,56.534 56.058,56.418 56.8,56.481 C57.634,56.627 58.43,56.811 58.84,57.38 C58.901,58.191 59.096,58.828 58.66,59.42 C58.184,59.844 57.396,59.956 56.68,60.141 C56.013,59.955 55.478,59.997 55.12,59.54 C54.911,58.777 54.79,57.809 55,57.02 Z M56.32,59.96 C56.431,59.951 56.52,59.92 56.559,59.84 C56.407,59.809 56.327,59.738 56.32,59.96 Z"></path>
            </g>
        </g>
    </g>
</svg>