<?xml version="1.0" encoding="UTF-8" standalone="no"?>
<svg width="498px" height="512px" viewBox="0 0 498 512" version="1.1" xmlns="http://www.w3.org/2000/svg" xmlns:xlink="http://www.w3.org/1999/xlink">
    <!-- Generator: Sketch 41.1 (35376) - http://www.bohemiancoding.com/sketch -->
    <title>YO!</title>
    <desc>Created with Sketch.</desc>
    <defs></defs>
    <g id="Page-1" stroke="none" stroke-width="1" fill="none" fill-rule="evenodd">
        <g id="Medium" fill="#ED6A5A">
            <g id="YO!">
                <g id="Shape">
                    <path d="M394.347258,208.585582 C382.708674,208.017745 372.20556,207.449908 361.607824,207.071349 C355.835843,206.88207 349.969239,207.071349 344.102636,206.88207 C334.829617,206.503512 325.556598,206.030314 316.283579,205.557116 C315.526598,205.557116 314.674994,205.273198 313.918013,205.367837 C312.782541,205.557116 311.647069,205.841035 310.511598,206.124954 C311.363202,206.88207 312.120183,208.112384 313.066409,208.301664 C319.784617,209.721257 326.597447,211.046211 333.315654,212.276525 C334.356504,212.465804 335.586598,212.181885 336.532824,212.560444 C337.10056,212.749723 337.762919,213.696118 337.762919,214.263956 C337.762919,214.737153 337.005937,215.683549 336.438202,215.778189 C334.734994,216.156747 332.937164,216.724584 331.328579,216.440665 C310.700843,213.4122 289.883862,211.897967 269.729239,205.273198 C249.385371,198.553789 232.731786,187.575601 217.970654,172.622551 C213.334145,167.890573 208.50839,163.347874 204.155748,158.331978 C201.222446,154.924954 197.626786,153.032163 193.46339,151.896488 C185.704333,149.814418 181.919427,144.514603 183.244144,136.56488 C183.81188,133.252495 183.244144,130.697227 181.162446,128.236599 C175.768956,121.801109 170.659333,114.892421 162.994899,111.296118 C158.263767,109.024769 152.964899,107.510536 147.760654,107.131978 C140.47471,106.56414 137.541408,110.539002 138.582257,117.826248 C139.339239,123.220702 144.354239,128.331238 149.463861,128.899076 C152.870276,129.277634 154.289616,127.668762 153.154144,124.451017 C151.640182,119.908318 148.896125,118.488725 144.070371,119.245841 C143.502635,119.340481 142.745654,118.204806 142.083295,117.636969 C143.029522,116.690573 143.786503,115.17634 144.827352,114.987061 C149.085371,114.229945 157.128295,122.179667 156.844427,126.533087 C156.560559,130.886506 152.870276,133.536414 148.517635,132.495379 C138.960748,130.318669 132.431786,118.961922 135.270465,109.687246 C136.311314,106.469501 138.67688,104.955268 141.799427,104.198152 C150.977824,102.021442 159.399239,104.008872 167.063673,109.024769 C171.227069,111.769316 175.011975,115.17634 179.080748,118.204806 C179.648484,118.678004 180.405465,118.867283 181.162446,119.151201 C181.257069,118.488725 181.63556,117.731608 181.540937,117.163771 C179.269993,108.362292 176.904427,99.5608133 170.375465,93.0306839 C166.495937,89.0558226 161.575559,86.0273567 156.749805,83.0935305 C153.532635,81.2007394 148.801503,82.8096118 147.003673,85.4595194 C145.48971,87.7308688 146.152069,91.7057301 148.801503,93.9770795 C149.653107,94.7341959 151.261692,94.7341959 152.491786,95.1127542 C152.113295,93.9770795 151.829427,92.7467652 151.356314,91.7057301 C150.883201,90.7593346 150.12622,89.812939 149.558484,88.961183 C150.883201,88.961183 152.302541,88.5826248 153.438012,89.0558226 C157.412163,90.664695 159.209993,93.5985213 158.074522,95.9645102 C156.276692,99.9393715 153.059522,100.885767 148.612258,98.7090573 C144.070371,96.5323475 140.569333,90.2861368 141.610182,86.405915 C142.840276,82.1471349 148.801503,78.5508318 154.100371,78.7401109 C159.020748,78.92939 163.089522,81.1060998 166.96905,83.9452865 C175.011975,89.812939 180.310843,97.6680222 184.284994,106.56414 C186.461314,111.390758 188.069899,116.595933 189.678484,121.61183 C190.813956,125.018854 192.04405,127.479482 196.396692,128.331238 C203.87188,129.750832 208.129899,136.754159 207.656786,144.514603 C207.562163,145.934196 208.035277,147.732348 208.981503,148.678743 C218.254522,158.237338 229.041503,165.903142 240.206975,173.001109 C240.963956,173.474307 241.910182,173.758226 242.856409,174.042144 C243.234899,174.136784 244.086503,174.136784 244.086503,174.042144 C244.181126,173.474307 244.275748,172.81183 244.086503,172.338632 C242.761786,170.161922 241.342447,168.079852 239.923107,165.997782 C227.527541,147.732348 215.32122,129.277634 206.142824,109.214048 C195.828956,86.6898336 186.839805,63.5977819 185.798956,38.3290203 C185.515088,31.6096118 186.366692,24.7955638 186.934427,18.0761553 C187.218295,14.3852126 189.489239,13.5334566 193.179522,13.438817 C204.723484,13.1548983 211.630937,19.3064695 216.078201,29.1489834 C220.809333,39.6539741 229.136126,46.2787431 239.449994,50.6321627 C242.856409,52.051756 243.897258,51.4839187 244.370371,47.6036969 C246.168201,34.0702403 250.520843,21.2939002 255.725088,8.70683919 C256.292824,7.3818854 256.955182,6.15157116 257.617541,4.92125693 C260.45622,-0.0946395564 262.916409,-0.946395564 267.931409,1.79815157 C272.378673,4.25878004 277.772164,5.01589649 281.367824,9.46395564 C284.017258,12.6817006 285.720466,15.994085 286.193579,19.9689464 C286.477447,22.618854 287.045183,25.3634011 286.855937,28.0133087 C286.382824,34.4487985 289.694617,38.7075786 294.898862,41.2628466 C301.900937,44.7645102 309.186881,47.6983364 316.378202,50.8214418 C322.150183,53.3767098 327.827541,55.9319778 331.896315,61.1371534 C332.369428,61.7049908 333.031787,62.2728281 333.599522,62.8406654 C346.468202,74.4813309 351.293956,89.0558226 349.117636,106.090943 C349.023013,106.56414 348.833768,107.037338 348.92839,107.510536 C349.023013,108.74085 349.212258,109.876525 349.306881,111.0122 C350.442353,110.728281 351.672447,110.539002 352.807919,110.065804 C357.065938,108.456932 361.134711,106.56414 365.487353,105.144547 C371.353956,103.346396 377.125938,104.387431 382.424806,107.131978 C389.237636,110.728281 395.766598,114.797782 402.484806,118.583364 C407.689051,121.51719 412.798674,124.545656 418.192164,127.195564 C420.17924,128.141959 422.734051,128.331238 425.099617,128.236599 C437.211315,127.384843 448.944523,128.993715 460.583108,132.3061 C461.907825,132.684658 463.327164,133.063216 464.746504,133.252495 C472.505561,134.104251 479.886127,136.280961 485.941976,141.486137 C493.795655,148.205545 499.094523,156.439187 497.769806,167.322736 C497.012825,173.947505 492.470938,178.679482 488.118297,183.222181 C479.980749,191.92902 469.099146,196.093161 458.028296,199.121627 C448.376787,201.771534 438.346787,203.758965 428.41141,205.083919 C416.488957,206.97671 404.850372,207.639187 394.347258,208.585582 Z M388.007541,203.285767 C403.147164,201.298336 419.422259,199.500185 435.60273,196.944917 C452.918674,194.10573 468.342164,187.197043 479.980749,173.379667 C484.711881,167.795933 486.131221,161.739002 482.630183,156.533826 C478.182919,149.909057 472.505561,144.136044 464.462636,142.243253 C454.527259,139.782625 444.497259,137.511275 434.467259,136.280961 C423.112542,134.956007 412.893296,130.791867 402.863296,125.77597 C394.631126,121.61183 386.115089,117.920887 377.599051,114.229945 C365.39273,109.024769 354.889617,113.851386 345.711221,121.327911 C329.246881,134.766728 313.4449,148.868022 297.264428,162.685397 C288.180654,170.445841 278.907635,178.017006 269.729239,185.58817 C267.26905,187.575601 267.458296,189.373752 270.10773,190.604067 C273.987258,192.307579 277.866786,194.389649 282.030183,194.957486 C297.737541,197.134196 313.539522,199.121627 329.341504,200.54122 C342.304805,201.676895 355.457353,201.866174 368.515277,202.434011 C374.571126,202.62329 380.721598,202.907209 388.007541,203.285767 Z M248.912258,77.4151571 C249.290748,77.4151571 249.669239,77.4151571 249.953107,77.5097967 C249.953107,82.2417745 249.479994,86.9737523 250.04773,91.7057301 C251.656315,106.848059 253.454145,122.085028 255.630465,137.132717 C257.522918,150.382255 259.793862,163.537153 262.25405,176.692052 C263.294899,182.370425 264.430371,182.748983 268.68839,179.058041 C280.13773,169.215527 291.492447,159.183734 302.847164,149.24658 C313.161032,140.255823 323.569522,131.265065 333.694145,122.085028 C340.790843,115.554898 344.386504,107.415896 343.251032,97.5733826 C343.061787,95.6805915 342.683296,93.7878004 342.683296,91.8950092 C342.588673,79.1186691 336.343579,69.4654344 327.07056,61.4210721 C319.122258,54.5123845 308.903013,52.3356747 299.535371,48.2661738 C288.653767,43.6288355 277.961409,38.612939 278.529145,23.8491682 C278.623767,22.0510166 277.582918,20.2528651 277.109805,18.3600739 C275.690466,13.3441774 271.90556,10.7889094 267.174428,9.18003697 C264.903484,8.42292052 263.389522,8.99075786 262.632541,11.0728281 C258.847635,21.5778189 253.927258,31.7988909 251.750937,42.6824399 C249.385371,53.9445471 249.763862,65.7744917 248.912258,77.4151571 Z M243.234899,70.1279113 C243.234899,66.5316081 243.329522,62.8406654 243.234899,59.2443623 C243.140277,57.0676525 242.667164,55.1748614 239.733862,55.2695009 C234.718862,55.3641405 230.271597,53.5659889 226.486692,50.1589649 C219.484616,44.0073937 213.428767,37.0987061 208.413767,29.0543438 C206.332069,25.6473198 202.547163,22.9974122 199.140748,20.6314233 C196.302069,18.6439926 194.314994,19.7796673 193.747258,23.0920518 C191.476314,35.4898336 191.192446,48.0768946 193.558012,60.2853974 C195.828956,71.6421442 199.424616,82.9988909 204.344994,93.4092421 C212.387918,110.444362 221.75556,126.911645 231.217824,143.284288 C238.314522,155.492791 246.546692,167.133457 254.400371,178.868762 C254.968107,179.720518 256.292824,180.099076 257.23905,180.666913 C257.23905,179.625878 257.428296,178.490203 257.23905,177.543808 C256.008956,171.676155 254.684239,165.903142 253.264899,160.03549 C246.546692,130.507948 244.748862,100.31793 243.234899,70.1279113 Z"></path>
                    <path d="M340.696221,309.471349 C338.993013,316.096118 337.573673,322.910166 335.491975,329.440296 C333.694145,335.118669 331.139334,340.607763 329.057636,346.191497 C328.773768,347.043253 329.057636,348.178928 329.152258,349.219963 C330.098485,348.841405 331.423202,348.841405 332.08556,348.178928 C338.5199,341.554159 344.954239,334.83475 351.199334,328.020702 C353.94339,324.992237 356.403579,321.679852 358.5799,318.272828 C365.771221,306.442884 366.717447,293.761183 363.027164,280.511645 C360.37773,270.95305 357.822919,261.394455 355.36273,251.83586 C352.524051,240.668392 357.633673,231.866913 368.231409,228.649168 C380.721598,224.958226 385.736598,233.570425 385.736598,242.939741 C385.736598,246.819963 385.07424,250.889464 380.43773,252.592976 C375.517353,254.391128 370.880843,253.82329 367.379806,250.132348 C365.865843,248.523475 365.014239,245.021811 365.676598,243.034381 C366.622824,240.384473 369.366881,238.207763 371.543202,236.125693 C371.921692,235.841774 373.6249,236.88281 374.665749,237.356007 C374.192636,238.207763 373.719523,239.154159 373.246409,239.911275 C373.057164,240.195194 372.584051,240.195194 372.489428,240.384473 C371.448579,242.371904 370.218485,244.264695 369.650749,246.346765 C369.556126,246.725323 372.20556,248.334196 373.719523,248.523475 C376.368957,248.807394 379.01839,247.860998 379.680749,245.021811 C380.343107,241.993346 380.532353,238.680961 380.05924,235.747135 C379.869994,234.516821 376.936692,232.813309 375.517353,233.002588 C363.5949,234.61146 357.255183,240.005915 359.809994,252.403697 C361.323956,259.785582 363.784145,266.978189 365.865843,274.265434 C366.717447,277.104621 366.717447,280.984843 368.6099,282.499076 C370.02924,283.63475 373.814145,281.458041 376.652824,280.890203 C383.560277,279.56525 388.196787,284.865065 385.45273,291.489834 C383.276409,296.695009 379.964617,301.332348 377.125938,306.253604 C375.801221,308.524954 374.665749,310.985582 373.341032,313.256932 C372.394806,315.055083 371.543202,317.042514 370.218485,318.462107 C362.648673,326.601109 355.173485,334.92939 347.13056,342.595194 C342.210183,347.232532 336.532824,351.018115 330.66622,354.425139 C327.543673,356.22329 326.502824,358.4 326.502824,361.523105 C326.502824,362.942699 326.313579,364.456932 326.69207,365.781885 C327.259805,367.863956 328.300654,369.756747 329.152258,371.649538 C330.098485,370.040665 331.044711,368.337153 331.896315,366.728281 C333.315654,363.889094 334.545749,360.955268 336.059711,358.210721 C338.330654,354.23586 343.345654,353.951941 345.616598,357.926802 C346.75207,359.914233 347.509051,362.942699 346.941315,365.024769 C345.521975,369.946026 343.5349,374.867283 340.980088,379.315342 C337.573673,385.088355 338.046787,390.672089 340.033862,396.539741 C341.926315,402.028835 344.291881,407.42329 346.089711,412.912384 C346.562824,414.426617 345.900466,416.224769 345.805843,417.928281 C344.481126,416.697967 342.494051,415.656932 341.831692,414.142699 C338.046787,405.151941 334.640371,395.971904 330.950088,386.981146 C328.963013,382.059889 326.597447,377.233272 324.421126,372.312015 C319.879239,362.185582 321.866315,352.248429 325.65122,342.500555 C329.436126,332.941959 333.5049,323.478004 333.978013,313.067652 C334.167258,309.471349 334.167258,305.780407 333.410277,302.278743 C332.180183,297.073567 327.165183,295.559335 323.191032,299.060998 C319.879239,301.900185 316.188956,304.928651 317.229805,310.039187 C317.608296,311.742699 319.027636,314.487246 319.784617,314.392606 C321.67707,314.203327 323.948013,313.067652 325.083485,311.648059 C325.935088,310.607024 325.27273,308.335675 324.988862,306.537523 C324.894239,306.064325 323.948013,305.780407 323.758768,305.212569 C323.380277,304.266174 323.285654,303.225139 323.096409,302.278743 C324.137258,302.184104 325.27273,301.616266 326.029711,301.994824 C327.543673,302.657301 329.246881,303.603697 330.098485,304.928651 C332.369428,308.335675 329.530749,316.663956 325.556598,319.219224 C321.960937,321.490573 316.472824,319.881701 313.634145,315.71756 C310.22773,310.701664 310.322352,303.603697 314.485749,299.060998 C316.851315,296.50573 319.689994,293.666543 322.907164,292.625508 C330.66622,290.07024 337.573673,294.612939 339.371504,302.751941 C339.844617,304.928651 339.844617,307.10536 340.033862,309.28207 C340.223107,309.28207 340.506975,309.37671 340.696221,309.471349 Z"></path>
                    <path d="M82.1871629,389.063216 C83.6065026,385.656192 84.3634837,382.438447 86.1613139,379.977819 C93.6365026,369.283549 101.300937,358.778558 109.059993,348.178928 C111.141691,345.245102 110.763201,343.636229 107.16754,340.229205 C97.8945215,331.427726 90.892446,321.112015 85.877446,309.37671 C85.2150875,307.767837 84.4581063,306.064325 84.552729,304.455453 C84.6473516,302.468022 85.1204648,299.439556 86.4451818,298.777079 C88.1483894,297.925323 91.5548045,298.114603 92.8795215,299.344917 C97.7998988,303.887616 102.341786,308.998152 106.694427,314.108688 C110.952446,319.219224 114.831974,324.519039 118.61688,329.913494 C120.698578,332.84732 122.21254,332.563401 124.388861,330.102773 C130.728578,323.099445 137.162918,316.190758 143.786503,309.37671 C147.003673,306.158965 150.599333,303.319778 154.100371,300.480591 C156.182069,298.777079 158.73688,298.114603 160.913201,300.385952 C162.900276,302.562662 162.805654,305.02329 161.102446,307.29464 C154.857352,315.528281 148.517635,323.856562 142.083295,331.995564 C134.986597,341.080961 127.889899,350.071719 120.603956,358.967837 C113.696503,367.390758 106.505182,375.52976 99.5031064,383.763401 C96.9482951,386.791867 94.7719743,390.009612 91.8386724,392.659519 C90.6085781,393.795194 87.8645215,394.363031 86.3505592,393.700555 C84.6473516,393.132717 83.7011252,390.861368 82.1871629,389.063216 Z"></path>
                    <path d="M168.956126,332.468762 C169.334616,323.667283 172.646409,315.433641 178.79688,308.903512 C183.528012,303.887616 190.530088,302.184104 197.342918,302.089464 C213.996503,301.805545 226.581314,320.733457 221.566314,334.550832 C220.146975,338.336414 219.768484,342.595194 218.254522,346.380776 C211.347069,363.605176 187.502163,367.769316 175.295843,353.762662 C170.18622,347.80037 169.334616,340.323845 168.956126,332.468762 Z M209.076126,328.399261 C208.981503,326.50647 208.88688,324.613678 208.792258,322.720887 C208.603012,317.704991 204.723484,316.474677 201.033201,315.055083 C197.532163,313.730129 194.504239,313.63549 191.570937,316.663956 C186.461314,322.05841 183.906503,328.58854 182.960277,335.686506 C182.487163,339.377449 183.528012,342.973752 186.839805,345.245102 C191.854805,348.652126 198.194522,347.80037 202.925654,343.920148 C207.940654,339.850647 209.549239,334.645471 209.076126,328.399261 Z"></path>
                    <path d="M212.009428,476.226248 C208.88688,475.65841 203.209522,474.428096 197.532163,473.387061 C196.112824,473.103142 194.598861,473.387061 193.084899,473.387061 C194.125748,474.333457 195.26122,475.185213 196.112824,476.226248 C198.005277,478.592237 200.27622,480.958226 201.411692,483.702773 C202.07405,485.311645 201.222446,488.245471 199.992352,489.570425 C198.951503,490.61146 196.018201,490.990018 194.504239,490.327542 C191.381692,488.813309 187.407541,487.015157 186.082824,484.17597 C181.446314,474.712015 173.024899,470.169316 164.130371,466.667652 C156.560559,463.733826 150.315465,459.096488 144.259616,454.175231 C140.001597,450.768207 138.771503,445.84695 139.812352,440.547135 C140.380088,437.518669 142.367163,436.004436 145.300465,437.045471 C148.139144,438.086506 148.423012,440.073937 146.814427,442.723845 C146.246691,443.67024 146.341314,445.563031 146.814427,446.604067 C147.760654,448.496858 148.990748,450.862847 150.788578,451.809242 C158.547635,455.878743 166.117446,460.89464 174.444239,463.071349 C185.893578,466.194455 198.005277,467.14085 209.738484,469.033641 C215.226597,469.885397 220.620088,471.210351 226.108201,471.49427 C234.813484,471.967468 240.585465,477.078004 245.884333,483.134935 C247.303673,484.743808 248.62839,486.636599 249.858484,488.43475 C253.170277,493.261368 254.873484,498.561183 252.129428,504.050277 C249.385371,509.444732 244.086503,511.526802 238.409145,511.90536 C230.650088,512.473198 224.688862,508.687616 220.525465,502.346765 C217.970654,498.561183 218.822258,494.397043 221.282446,490.800739 C223.93188,486.920518 228.000654,485.406285 232.447918,486.068762 C237.368296,486.825878 240.39622,490.327542 242.004805,494.87024 C242.288673,495.721996 242.383296,496.763031 242.477918,497.614787 C242.667164,498.750462 242.951031,499.886137 243.140277,500.927172 C244.275748,499.886137 246.357447,498.845102 246.262824,497.898706 C246.168201,495.532717 245.695088,492.69353 244.181126,491.084658 C233.299522,479.443993 231.028579,475.279852 212.009428,476.226248 Z M234.529616,505.375231 C236.611314,504.807394 237.652164,504.523475 238.693013,504.144917 C238.976881,504.050277 239.166126,503.766359 239.355371,503.577079 C239.166126,503.48244 238.882258,503.198521 238.693013,503.293161 C233.204899,503.766359 232.921031,501.495009 235.00273,497.14159 C235.475843,496.100555 233.867258,493.923845 232.826409,492.598891 C232.637164,492.314972 229.703862,493.356007 229.609239,494.018484 C229.230748,496.005915 228.94688,498.466543 229.798484,500.170055 C230.933956,502.346765 233.110277,503.860998 234.529616,505.375231 Z"></path>
                    <path d="M151.261692,161.455083 C151.261692,164.862107 149.936975,167.985213 147.192918,171.108318 C139.812352,179.531238 130.255465,183.979298 120.03622,187.480961 C115.588956,188.995194 111.236314,190.887985 106.883672,192.686137 C106.221314,192.970055 105.842823,193.727172 105.275088,194.20037 C105.937446,194.484288 106.599805,194.862847 107.262163,195.146765 C107.356786,195.241405 107.546031,195.146765 107.735276,195.241405 C110.668578,195.998521 114.169616,195.903882 115.115842,199.973383 C115.967446,204.137523 113.034144,206.030314 110.290088,207.828466 C108.681503,208.96414 106.694427,209.815896 104.707352,210.289094 C99.6923517,211.614048 94.6773517,212.655083 89.567729,213.790758 C82.9441441,215.210351 77.0775403,217.954898 72.6302761,223.349353 C72.0625403,224.01183 71.2109365,224.295749 70.4539553,224.768946 C69.9808421,223.91719 68.8453704,222.876155 69.0346157,222.119039 C69.6023516,219.75305 70.1700874,217.197782 71.5894271,215.304991 C81.903295,200.919778 95.8128234,191.077264 112.18254,184.736414 C115.967446,183.222181 119.941597,181.991867 123.726503,180.666913 C130.350088,178.300924 136.027446,174.515342 141.326314,169.783364 C145.962824,165.713863 146.341314,160.887246 145.016597,155.587431 C143.597258,149.814418 138.67688,147.069871 129.971597,146.880591 C125.240465,146.785952 121.360937,149.43586 119.846974,154.546396 C119.373861,156.249908 119.657729,158.615896 120.509333,160.224769 C120.887823,160.887246 123.726503,160.697967 125.240465,160.224769 C129.782352,158.899815 130.633956,157.290943 130.06622,152.464325 C129.971597,151.801848 130.44471,150.571534 130.728578,150.571534 C131.769427,150.571534 132.999522,150.571534 133.756503,151.139372 C136.311314,153.126802 136.689805,157.85878 133.945748,159.94085 C130.728578,162.401479 126.84905,164.578189 122.874899,165.619224 C118.61688,166.754898 116.156691,164.388909 115.115842,160.130129 C112.561031,148.868022 122.780276,137.889834 134.229616,139.782625 C146.246691,141.580776 149.842352,144.419963 151.261692,161.455083 Z"></path>
                    <path d="M253.454145,303.130499 C253.832635,296.50573 254.116503,289.407763 254.684239,282.309797 C254.873484,279.943808 255.44122,277.672458 256.198201,275.401109 C257.901409,270.290573 261.023956,268.397782 265.849711,269.154898 C270.959333,270.006654 274.554994,273.886876 274.554994,278.618854 C274.649617,289.313124 274.933484,300.007394 274.933484,310.701664 C274.933484,316.474677 274.838862,322.342329 274.460371,328.115342 C274.081881,334.83475 268.026032,339.945287 261.213201,339.472089 C257.996032,339.18817 254.873484,336.065065 254.589616,331.333087 C253.927258,322.910166 253.832635,314.392606 253.454145,305.875046 L253.454145,303.130499 Z"></path>
                    <path d="M17.3706533,423.795933 C18.6007476,414.994455 19.8308419,406.287616 20.7770684,397.580776 C21.0609363,395.120148 20.2093325,392.659519 20.2093325,390.198891 C20.2093325,385.845471 19.546974,381.302773 20.7770684,377.233272 C22.5748986,371.17634 28.7253703,370.324584 32.6995212,375.151201 C34.3081062,377.138632 35.0650873,376.854713 35.9166911,374.867283 C37.9983892,369.567468 39.890842,364.267652 38.7553703,358.30536 C37.525276,351.680591 36.1059364,344.961183 35.1597099,338.336414 C33.6457477,327.831423 41.0263137,318.935305 51.4348043,318.840665 C58.8153704,318.840665 63.1680119,322.436969 64.5873516,328.115342 C65.8174459,333.036599 62.4110308,339.472089 57.869144,341.459519 C52.0971628,344.014787 46.4198043,341.932717 44.4327288,336.822181 C43.1080118,333.415157 44.4327288,331.143808 47.0821628,329.724214 C48.1230119,329.156377 49.9208421,329.818854 51.3401817,329.913494 C51.0563138,330.954529 50.7724458,332.090203 50.5832006,333.131238 C50.3939553,334.172274 50.3939553,335.307948 50.2993326,336.348983 C51.6240496,336.348983 53.6111251,336.916821 54.0842383,336.348983 C55.9766911,333.699076 57.5852761,330.76525 58.909993,327.831423 C59.0992383,327.452865 57.3014081,325.749353 56.1659364,325.370795 C48.0283892,322.626248 39.2284835,329.818854 40.17471,338.714972 C40.7424458,344.014787 41.5940496,349.503882 43.5811251,354.330499 C47.1767854,362.848059 45.7574458,370.703142 42.0671628,378.558226 C39.890842,383.100924 37.4306533,387.548983 34.5919741,391.713124 C25.7920684,404.489464 23.8049929,418.685397 24.845842,433.638447 C24.9404646,435.15268 23.6157476,436.761553 23.0480118,438.370425 C21.5340495,437.23475 19.0738608,436.288355 18.6953702,434.868762 C17.7491438,431.367098 17.7491438,427.486876 17.3706533,423.795933 Z"></path>
                    <path d="M86.918295,446.225508 C88.5268799,446.793346 91.5548045,447.077264 93.6365026,448.780776 C98.9353706,452.944917 103.761125,457.676895 108.870748,462.219593 C112.750276,465.626617 116.440559,469.4122 120.509333,472.440665 C125.713578,476.226248 133.945748,474.144177 136.87905,468.465804 C137.636031,466.951571 137.730654,464.680222 137.257541,463.071349 C136.500559,460.232163 135.175842,457.392976 133.756503,454.837708 C132.999522,453.607394 131.390937,452.850277 130.160842,451.809242 C128.930748,453.512754 126.84905,455.121627 126.754427,456.919778 C126.565182,458.812569 128.079144,460.989279 129.119993,462.88207 C129.687729,463.923105 130.917824,464.680222 131.674805,465.721257 C133.28339,467.897967 132.621031,469.222921 129.971597,469.4122 C123.726503,469.980037 116.629805,461.746396 118.427635,455.594824 C119.846974,450.673567 122.874899,446.982625 128.079144,445.468392 C132.904899,444.143438 137.257541,446.036229 140.190842,451.336044 C142.272541,455.026987 143.881125,459.001848 145.300465,462.97671 C146.625182,466.856932 145.11122,470.453235 142.840276,473.57634 C136.405937,482.283179 127.038295,483.797412 117.386786,477.83512 C109.911597,473.197782 103.477257,467.614048 97.9891441,460.8 C95.8128234,458.150092 93.3526347,455.594824 90.6085781,453.512754 C87.3914082,450.957486 81.9979177,452.471719 78.0237667,456.44658 C75.8474459,458.62329 75.6582007,462.408872 78.0237667,465.05878 C78.8753705,466.005176 80.578578,466.194455 81.8086724,466.667652 C81.8086724,465.248059 81.903295,463.828466 81.903295,462.408872 C81.903295,462.030314 81.1463139,461.651756 81.1463139,461.273198 C80.9570686,459.853604 81.0516912,458.434011 80.9570686,457.109057 C82.3764082,457.203697 84.0796158,456.730499 85.3097101,457.298336 C88.7161252,458.907209 91.1763139,463.639187 90.7032007,467.14085 C90.2300875,470.358595 88.5268799,472.629945 85.2150875,473.57634 C81.2409365,474.712015 76.1313139,473.387061 73.6711252,470.074677 C70.548578,465.910536 67.7098987,461.273198 70.1700874,456.162662 C73.1033893,449.916451 78.7807478,446.887985 86.918295,446.225508 Z"></path>
                    <path d="M150.031597,215.210351 C141.042446,215.021072 135.648956,207.260628 137.446786,196.944917 C139.433861,185.58817 147.098295,178.963401 156.560559,173.852865 C158.169144,173.001109 160.061597,172.338632 161.859427,171.865434 C164.130371,171.202957 165.17122,170.351201 163.75188,167.890573 C161.95405,164.672828 162.711031,161.549723 165.54971,159.467652 C168.483012,157.290943 171.98405,157.669501 174.822729,159.94085 C177.377541,161.928281 179.364616,164.767468 181.919427,166.849538 C184.758107,169.215527 187.596786,171.770795 191.003201,173.285028 C201.222446,177.827726 210.779333,183.127542 217.402918,192.496858 C217.970654,193.253974 218.727635,194.011091 218.91688,194.862847 C219.106126,195.809242 218.727635,196.850277 218.633013,197.796673 C217.686786,197.607394 216.362069,197.702033 215.794333,197.134196 C213.52339,194.768207 211.536314,192.02366 209.170748,189.752311 C198.762258,179.625878 186.461314,174.799261 171.794805,176.597412 C169.429239,176.881331 167.063673,177.16525 164.698107,177.259889 C152.586408,177.638447 144.732729,188.143438 142.745654,198.648429 C141.799427,203.853604 145.11122,209.437338 149.653107,210.762292 C154.384239,212.181885 158.642258,208.585582 157.601409,203.948244 C157.412163,203.096488 156.655182,202.434011 156.182069,201.676895 C155.708956,202.150092 155.330465,202.907209 154.668107,203.191128 C153.059522,204.042884 151.450937,204.8 149.842352,205.651756 C149.369239,204.137523 148.517635,202.528651 148.517635,201.014418 C148.517635,196.755638 151.167069,193.916451 155.046597,193.821811 C158.73688,193.727172 163.278767,197.607394 163.278767,201.487616 C163.468012,209.15342 161.386314,216.251386 150.031597,215.210351 Z"></path>
                    <path d="M60.3293327,400.325323 C60.518578,402.502033 60.7078232,404.678743 60.8024459,406.760813 C62.6002761,405.719778 64.3981063,404.584104 66.1959365,403.543068 C69.223861,401.744917 72.2517855,402.028835 75.1850874,403.732348 C79.1592384,406.098336 81.7140497,409.6 83.1333894,413.95342 C85.6882007,421.524584 88.243012,429.095749 90.7978234,436.761553 C92.4064083,441.398891 91.3655592,442.913124 86.6344271,443.859519 C80.0108422,445.279113 73.4818799,446.887985 67.0475402,448.780776 C61.4648044,450.389649 56.7336723,449.632532 54.0842383,446.036229 C51.529427,442.439926 51.6240496,436.382994 55.0304647,432.881331 C56.4498044,431.367098 58.909993,430.704621 61.0863138,430.420702 C61.9379176,430.326063 63.0733893,432.029575 64.0196157,432.881331 C63.1680119,433.543808 62.3164081,434.395564 61.3701817,434.868762 C58.2476345,436.288355 56.7336723,438.843623 57.7745213,441.58817 C59.0046157,444.711275 61.4648044,444.995194 64.3981063,444.238078 C70.1700874,442.723845 75.9420686,441.114972 81.7140497,439.884658 C84.552729,439.222181 85.4989554,438.370425 84.2688611,435.436599 C81.0516912,428.054713 78.1183893,420.578189 74.9958422,413.196303 C74.4281063,411.77671 73.3872572,410.167837 72.1571629,409.6 C70.8324459,409.032163 68.6561252,409.126802 67.4260308,409.789279 C66.3851817,410.357116 65.533578,412.344547 65.6282006,413.574861 C66.1013138,417.928281 67.7098987,421.713863 72.0625403,423.795933 C73.5765025,424.55305 75.0904648,425.499445 76.3205591,426.72976 C76.888295,427.297597 76.7936724,428.622551 76.9829176,429.663586 C75.9420686,429.758226 74.9958422,429.947505 73.9549931,429.852865 C73.198012,429.758226 72.6302761,429.095749 71.873295,428.81183 C68.0883893,427.392237 64.208861,426.067283 60.4239553,424.647689 C59.4777289,424.269131 58.7207478,423.512015 57.9637666,422.944177 C58.6261251,422.092421 59.0046157,420.956747 59.8562195,420.483549 C62.9787666,418.685397 63.4518799,416.603327 60.3293327,414.899815 C53.3272572,411.114233 51.9079175,403.826987 48.879993,397.580776 C47.2714081,394.173752 49.7315968,391.145287 53.894993,390.198891 C57.2067855,389.441774 59.8562195,391.523845 60.23471,395.309427 C60.4239553,397.012939 60.23471,398.811091 60.23471,400.514603 C60.4239553,400.325323 60.3293327,400.325323 60.3293327,400.325323 Z"></path>
                    <path d="M9.80084191,249.65915 C9.80084191,249.469871 9.61159663,248.996673 9.70621927,248.523475 C9.89546455,247.577079 10.2739551,246.536044 10.557823,245.589649 C11.4094268,245.968207 12.3556532,246.441405 13.207257,246.819963 C13.7749929,247.103882 14.4373514,247.293161 15.0050872,247.577079 C14.8158419,246.914603 14.8158419,245.873567 14.3427287,245.495009 C12.9233891,244.453974 11.2201815,243.602218 9.70621927,242.750462 C8.75999285,244.359335 7.43527586,245.778928 7.15140794,247.48244 C6.3944268,252.025139 8.57074757,255.810721 11.4094268,259.123105 C14.531974,262.624769 17.9383891,265.937153 21.5340495,269.060259 C26.5490495,273.319039 31.9425401,277.199261 37.0521628,281.458041 C43.0133892,286.284658 44.8112194,293.193346 45.4735779,300.385952 C45.8520685,304.550092 43.5811251,306.632163 39.4177288,307.29464 C30.4285778,308.714233 22.1017854,303.792976 20.5878231,296.221811 C19.3577287,290.448799 21.6286721,287.420333 27.4952759,287.231054 C29.1984835,287.136414 30.8070684,287.89353 32.510276,288.177449 C33.7403703,288.366728 34.9704646,288.461368 36.200559,288.556007 C35.5382005,287.325693 35.1597099,285.9061 34.1188609,285.054344 C29.5769741,281.174122 24.7512193,277.672458 20.1147099,273.792237 C14.9104646,269.438817 9.70621927,265.085397 4.88046453,260.35342 C-0.323780768,255.432163 -0.796893978,250.321627 2.04178528,243.034381 C3.83961547,238.586322 7.43527586,236.88281 12.3556532,237.450647 C17.5598985,238.018484 19.9254646,240.195194 20.9663137,245.30573 C22.1017854,251.078743 21.3448042,254.107209 18.1276344,255.810721 C13.1126344,258.555268 9.70621927,256.189279 9.80084191,249.65915 Z M33.8349929,301.900185 C38.2822571,302.184104 40.6478232,300.291312 40.17471,297.073567 C40.0800873,296.221811 38.7553703,294.612939 38.6607477,294.707579 C34.9704646,296.60037 32.510276,293.666543 29.4823514,292.625508 C28.4415024,292.34159 26.7382948,292.530869 26.0759363,293.287985 C25.5082005,293.855823 25.6028231,295.748614 26.170559,296.60037 C28.0630118,299.534196 30.5232005,301.994824 33.8349929,301.900185 Z"></path>
                    <path d="M285.15273,473.860259 C284.679617,471.115712 284.584994,469.4122 283.922635,467.803327 C283.071032,465.721257 281.93556,464.112384 279.475371,466.478373 C278.529145,467.330129 276.825937,467.424769 275.406598,467.803327 C275.12273,466.383734 274.933484,464.96414 274.744239,463.639187 C274.649617,463.165989 275.12273,462.598152 274.933484,462.314233 C270.959333,456.730499 275.879711,451.430684 275.690466,445.94159 C275.690466,445.089834 276.068956,444.048799 276.447447,443.197043 C278.150654,439.222181 282.31405,437.140111 285.625843,438.654344 C288.653767,440.073937 289.599994,444.238078 287.234428,448.118299 C285.625843,450.768207 283.260277,453.039556 281.557069,455.594824 C281.083956,456.351941 281.273201,458.434011 281.840937,458.71793 C289.316126,462.97671 292.060183,468.749723 290.073107,476.983364 C289.599994,478.970795 288.559145,480.768946 287.802164,482.661738 C286.098956,487.204436 284.584994,491.747135 282.787164,496.289834 C282.31405,497.520148 280.989334,499.412939 280.13773,499.318299 C278.813013,499.22366 276.636692,497.993346 276.352824,496.952311 C275.217352,492.409612 271.810937,491.273937 268.026032,490.327542 C265.09273,489.570425 262.064805,489.381146 259.320749,488.340111 C250.236975,484.743808 250.42622,477.83512 253.264899,470.926433 C255.06273,466.667652 261.118579,466.099815 264.051881,469.31756 C264.714239,469.980037 264.808862,471.210351 265.09273,472.251386 C264.146503,472.535305 263.105654,473.292421 262.25405,473.103142 C259.888484,472.440665 257.901409,472.156747 257.23905,475.374492 C256.576692,478.970795 257.806786,482.283179 260.645466,483.229575 C263.011032,483.986691 265.565843,484.36525 268.026032,484.838447 C269.256126,485.122366 270.580843,485.217006 271.716315,485.595564 C277.961409,487.677634 278.150654,487.772274 281.462447,482.0939 C283.165654,479.254713 284.206503,476.131608 285.15273,473.860259 Z"></path>
                    <path d="M275.12273,219.942329 C292.911786,222.686876 308.80839,230.163401 318.83839,247.3878 C322.150183,252.971534 322.244805,259.123105 320.352353,265.180037 C317.608296,273.886876 304.171881,277.199261 297.642918,270.85841 C294.614994,267.924584 294.804239,262.530129 298.021409,259.407024 C300.765466,256.757116 305.780466,257.135675 308.619145,260.448059 C308.997635,260.826617 309.092258,261.489094 309.281503,262.056932 C308.619145,262.246211 307.862164,262.43549 307.199805,262.530129 C305.685843,262.530129 304.077258,262.34085 302.657918,262.624769 C302.374051,262.719409 302.090183,265.274677 302.657918,265.842514 C303.982635,267.167468 305.685843,268.681701 307.483673,268.965619 C310.416975,269.533457 313.82339,266.315712 314.769617,262.624769 C315.999711,257.987431 315.810466,253.350092 312.782541,249.56451 C304.644994,239.248799 294.993485,230.731238 281.93556,227.324214 C277.488296,226.18854 272.662541,226.472458 268.026032,226.18854 C266.606692,226.0939 265.187352,226.377819 263.768013,226.377819 C261.686315,226.377819 259.226126,226.283179 259.320749,223.538632 C259.320749,222.781516 261.780937,221.645841 263.200277,221.361922 C266.606692,220.604806 270.202352,220.415527 275.12273,219.942329 Z"></path>
                    <path d="M310.795466,423.701294 C311.079334,426.067283 311.079334,428.433272 311.647069,430.704621 C314.296503,440.357856 312.404051,449.632532 308.146032,458.244732 C306.064334,462.408872 302.184805,465.815896 298.873013,469.31756 C298.021409,470.169316 295.845088,469.696118 294.331126,469.790758 C294.804239,468.371165 294.804239,466.478373 295.750466,465.531978 C303.698768,458.528651 307.199805,449.443253 307.767541,439.222181 C307.956786,434.774122 306.726692,430.136784 305.969711,425.688725 C304.928862,418.780037 306.253579,412.912384 312.877164,409.032163 C320.068485,404.773383 327.259805,403.353789 334.640371,408.369686 C335.491975,408.937523 336.438202,409.69464 337.005937,410.641035 C339.371504,414.426617 337.384428,428.243993 334.167258,431.367098 C331.423202,434.017006 327.07056,434.490203 323.191032,432.408133 C318.4599,429.852865 317.892164,425.404806 317.892164,420.672828 C317.892164,417.171165 320.25773,415.562292 323.096409,414.805176 C324.326503,414.426617 326.029711,415.467652 327.449051,415.846211 C326.786692,417.076525 326.502824,419.063956 325.556598,419.442514 C322.907164,420.578189 322.244805,422.565619 323.285654,424.742329 C324.042636,426.351201 326.029711,428.71719 327.165183,428.527911 C328.86839,428.243993 330.760843,426.351201 331.612447,424.647689 C332.653296,422.660259 332.937164,420.104991 333.126409,417.833641 C333.599522,413.101664 331.70707,410.830314 326.975937,410.073198 C318.933013,408.558965 310.700843,415.562292 310.795466,423.701294 Z"></path>
                    <path d="M29.6715967,234.138262 C34.0242382,232.150832 38.4715024,230.35268 42.7295213,228.17597 C44.8112194,227.134935 46.6090496,225.431423 48.6907477,224.390388 C55.3143327,220.983364 61.4648044,224.579667 61.2755591,232.056192 C61.1809364,234.895379 60.0454647,237.829205 58.6261251,240.384473 C58.1530119,241.236229 55.5982006,240.857671 54.0842383,241.14159 C54.3681062,240.005915 54.8412194,238.87024 54.9358421,237.734566 C55.21971,235.557856 55.3143327,233.286506 55.5035779,231.109797 C53.6111251,231.015157 51.529427,230.258041 49.8262194,230.825878 C44.2434836,232.907948 38.7553703,235.368577 33.3618797,237.923845 C32.510276,238.302403 31.5640495,239.911275 31.7532948,240.668392 C33.4565024,246.441405 35.5382005,252.119778 40.17471,256.189279 C43.7703703,259.312384 45.5682005,258.744547 46.8929175,254.391128 C47.1767854,253.539372 47.8391439,252.876895 48.3122572,252.119778 C49.0692383,252.876895 50.2993326,253.444732 50.3939553,254.296488 C50.8670685,257.135675 52.2864081,257.419593 54.9358421,257.514233 C59.5723515,257.608872 68.5615025,267.072828 68.7507478,271.710166 C68.8453704,273.413678 68.1830119,275.968946 67.0475402,276.536784 C66.0066912,277.104621 63.3572572,276.158226 62.2217855,275.022551 C60.23471,273.319039 58.909993,270.85841 57.3014081,268.77634 C55.6928232,266.69427 54.1788609,264.422921 52.3810308,262.530129 C51.6240496,261.773013 49.8262194,261.205176 48.7853704,261.489094 C43.2972571,263.097967 39.0392382,261.015896 35.8220684,256.946396 C33.551125,254.012569 31.9425401,250.510906 30.2393326,247.198521 C28.7253703,244.264695 27.4006533,241.236229 26.170559,238.207763 C25.6028231,236.88281 24.6565967,235.084658 25.0350873,233.948983 C25.3189552,233.097227 27.5898986,233.002588 29.0092382,232.62403 C29.2931061,233.097227 29.4823514,233.570425 29.6715967,234.138262 Z"></path>
                    <path d="M260.834711,346.002218 C265.755088,346.191497 270.48622,347.043253 272.473296,352.343068 C274.176503,356.885767 270.959333,359.724954 268.026032,362.374861 C263.862635,366.065804 258.185277,366.728281 254.021881,364.456932 C249.669239,361.996303 247.492918,358.021442 248.533767,354.04658 C249.953107,348.462847 254.021881,345.907579 260.834711,346.002218 Z"></path>
                    <path d="M243.045654,214.263956 C242.004805,219.942329 242.477918,226.567098 235.38122,229.122366 C233.110277,229.974122 230.650088,230.163401 228.189899,230.541959 C227.338296,230.636599 226.297447,230.258041 225.445843,230.44732 C221.282446,231.582994 221.093201,231.393715 221.471692,227.040296 C221.850182,222.119039 223.837258,217.860259 227.432918,214.547874 C228.095277,213.980037 229.325371,214.074677 230.36622,213.790758 C230.271597,214.737153 230.36622,215.872828 229.98773,216.724584 C229.230748,218.428096 228.000654,219.942329 227.243673,221.645841 C225.540465,225.431423 226.392069,226.661738 230.650088,226.945656 C234.245748,227.134935 238.314522,224.10647 239.355371,220.226248 C240.585465,215.304991 239.923107,210.573013 238.125277,205.841035 C237.368296,203.758965 236.516692,203.380407 234.245748,204.610721 C230.176975,206.88207 226.013579,208.96414 221.566314,210.478373 C215.131975,212.655083 213.90188,216.440665 218.254522,221.551201 C218.822258,222.213678 218.91688,223.254713 219.200748,224.10647 C218.254522,223.822551 217.024428,223.91719 216.267446,223.349353 C210.590088,219.469131 211.063201,211.897967 217.11905,208.680222 C218.349145,208.017745 219.768484,207.639187 221.093201,207.355268 C227.14905,206.408872 231.974805,203.569686 235.286597,198.175231 C235.948956,197.039556 237.652164,196.566359 238.976881,195.714603 C239.639239,196.944917 240.585465,198.175231 240.774711,199.594824 C241.720937,204.516081 242.383296,209.342699 243.045654,214.263956 Z"></path>
                    <path d="M267.931409,448.875416 C267.458296,454.932348 268.68839,460.610721 271.621692,466.005176 C273.135654,468.844362 273.987258,472.156747 274.838862,475.279852 C275.12273,476.226248 274.365749,477.551201 274.081881,478.592237 C272.851786,478.213678 270.864711,478.119039 270.48622,477.361922 C268.972258,473.954898 267.931409,470.358595 266.795937,466.856932 C266.512069,465.910536 266.606692,464.301664 266.038956,464.017745 C259.983107,460.610721 259.509994,453.607394 256.387447,448.402218 C255.157352,446.320148 255.44122,442.818484 256.008956,440.168577 C256.671315,437.23475 259.226126,435.531238 262.443296,435.815157 C265.565843,436.004436 266.606692,438.370425 267.079805,441.020333 C267.647541,443.480961 267.647541,446.130869 267.931409,448.875416 Z"></path>
                    <path d="M250.804711,468.371165 C245.884333,466.005176 240.869333,464.017745 236.232824,461.178558 C233.58339,459.569686 233.678013,456.257301 235.191975,453.512754 C236.705937,450.768207 239.260748,450.673567 241.720937,452.093161 C246.262824,454.837708 250.710088,457.676895 255.06273,460.70536 C256.198201,461.462477 257.617541,463.828466 257.333673,464.207024 C256.292824,465.531978 254.589616,466.478373 253.075654,467.424769 C252.602541,467.708688 251.84556,467.614048 251.183201,467.614048 C251.088579,467.803327 250.899333,468.087246 250.804711,468.371165 Z"></path>
                    <path d="M41.4048043,416.792606 C39.3231062,416.414048 36.6736722,416.508688 35.1597099,415.373013 C33.551125,414.237338 32.0371628,411.587431 32.226408,409.789279 C32.3210307,408.369686 35.1597099,406.003697 36.6736722,406.098336 C40.2693326,406.287616 44.0542383,407.328651 47.4606534,408.748244 C50.3939553,409.978558 53.1380119,412.060628 55.5982006,414.237338 C56.6390496,415.183734 56.8282949,417.076525 57.3960308,418.590758 C55.8820685,418.685397 54.2734836,419.253235 52.854144,418.874677 C49.1638609,417.928281 45.5682005,416.603327 41.8779175,415.373013 C41.6886722,415.94085 41.5940496,416.414048 41.4048043,416.792606 Z"></path>
                    <path d="M76.888295,260.35342 C75.0904648,259.690943 74.238861,259.596303 73.5765025,259.217745 C69.0346157,256.283919 63.9249931,254.958965 58.909993,253.160813 C55.5982006,252.025139 52.854144,248.334196 49.0692383,246.819963 C47.6498987,246.252126 46.0413137,245.589649 44.905842,244.643253 C43.9596156,243.886137 43.4865024,242.561183 42.8241439,241.520148 C44.0542383,241.520148 45.3789553,241.236229 46.4198043,241.709427 C50.8670685,243.886137 55.0304647,246.914603 59.6669742,248.428835 C63.9249931,249.848429 68.6561252,249.753789 73.198012,250.416266 C76.5098044,250.889464 78.8753705,252.782255 79.0646158,256.189279 C79.0646158,257.703512 77.5506535,259.123105 76.888295,260.35342 Z"></path>
                    <path d="M40.3639552,424.269131 C44.1488609,424.931608 47.8391439,425.404806 51.529427,426.351201 C52.6648987,426.63512 53.5165025,428.338632 54.4627289,429.379667 C53.2326345,430.136784 52.1917855,431.177819 50.8670685,431.556377 C48.1230119,432.502773 45.2843326,433.16525 42.4456534,434.017006 C40.3639552,434.584843 38.2822571,435.531238 36.1059364,435.815157 C33.551125,436.099076 30.901691,435.815157 30.0500873,432.692052 C29.2931061,430.042144 31.185559,426.256562 33.9296156,425.404806 C35.9166911,424.742329 38.1876345,424.647689 40.3639552,424.269131 Z"></path>
                    <path d="M196.964428,241.425508 C195.450465,240.005915 193.179522,238.680961 192.233295,236.69353 C191.003201,234.232902 192.04405,231.772274 194.598861,230.35268 C195.545088,229.784843 196.585937,229.311645 197.626786,229.122366 C202.357918,227.892052 206.994428,226.756377 211.72556,225.715342 C212.577163,225.526063 213.618012,226.0939 214.564239,226.377819 C214.280371,227.229575 214.280371,228.36525 213.712635,228.838447 C209.643862,232.52939 205.480465,236.125693 201.222446,239.532717 C200.465465,240.289834 199.140748,240.479113 196.964428,241.425508 Z"></path>
                    <path d="M207.278295,250.416266 C208.413767,248.334196 209.738484,245.495009 211.252446,242.939741 C212.861031,240.289834 214.658862,237.639926 216.645937,235.273937 C217.213673,234.61146 218.91688,234.422181 219.95773,234.61146 C220.33622,234.7061 220.809333,236.504251 220.620088,237.450647 C219.863107,242.371904 219.011503,247.198521 218.159899,252.119778 C217.592163,255.621442 215.037352,257.987431 212.293296,257.608872 C208.88688,257.041035 208.129899,254.201848 207.278295,250.416266 Z"></path>
                    <path d="M351.861692,288.272089 C356.687447,288.461368 359.431504,290.638078 359.431504,294.234381 C359.431504,299.723475 356.308956,303.887616 352.429428,303.792976 C348.171409,303.698336 344.575749,299.628835 344.764994,295.180776 C344.859617,290.827357 347.698296,288.08281 351.861692,288.272089 Z"></path>
                    <path d="M51.7186723,206.124954 C51.7186723,201.487616 54.3681062,198.45915 58.6261251,198.269871 C62.7895214,198.175231 66.1013138,201.203697 66.0066912,204.989279 C65.9120685,209.248059 61.4648044,214.263956 57.5852761,214.358595 C54.5573515,214.453235 51.8132949,210.573013 51.7186723,206.124954 Z"></path>
                    <path d="M106.032069,475.279852 C109.816974,475.374492 113.791125,479.349353 113.885748,483.324214 C113.980371,487.109797 110.38471,490.800739 106.78905,490.7061 C103.193389,490.516821 98.6515026,485.690203 98.6515026,482.0939 C98.55688,478.119039 101.679427,475.185213 106.032069,475.279852 Z"></path>
                    <path d="M181.257069,462.408872 C176.431314,462.219593 172.741031,457.866174 173.024899,452.755638 C173.214144,449.253974 175.485088,447.455823 179.459239,447.645102 C184.284994,447.92902 188.164522,451.336044 188.069899,455.216266 C187.975277,458.907209 184.474239,462.598152 181.257069,462.408872 Z"></path>
                    <path d="M9.9900872,317.421072 C9.9900872,313.162292 12.166408,311.080222 16.3298042,311.080222 C20.9663137,311.174861 24.4673514,314.297967 24.561974,318.367468 C24.561974,322.342329 21.0609363,325.654713 16.8975401,325.560074 C12.3556532,325.654713 9.89546455,322.720887 9.9900872,317.421072 Z"></path>
                    <path d="M65.3443327,245.778928 C64.5873516,245.30573 63.2626346,244.453974 61.8432949,243.602218 C62.7895214,242.466543 63.6411251,241.04695 64.7765968,240.289834 C67.899144,238.397043 71.0216912,236.598891 74.4281063,235.368577 C76.1313139,234.800739 78.5915025,234.895379 80.1054648,235.747135 C83.9849931,237.923845 83.7011252,241.614787 79.537729,242.939741 C75.2797101,244.359335 70.7378233,244.832532 65.3443327,245.778928 Z"></path>
                    <path d="M332.08556,444.143438 C332.180183,448.307579 329.436126,451.619963 325.840466,451.619963 C322.528673,451.714603 319.027636,448.780776 318.933013,445.752311 C318.743768,441.966728 322.244805,437.897227 325.65122,437.897227 C329.057636,437.991867 331.990937,440.736414 332.08556,444.143438 Z"></path>
                    <path d="M240.301598,249.375231 C239.639239,250.226987 238.693013,252.592976 237.462918,252.687616 C235.665088,252.876895 232.542541,252.025139 231.974805,250.700185 C229.98773,245.873567 228.663013,240.668392 227.338296,235.557856 C227.243673,235.179298 228.94688,234.232902 229.893107,233.570425 C233.299522,238.207763 236.611314,242.750462 240.01773,247.3878 C240.206975,247.671719 240.112352,248.050277 240.301598,249.375231 Z"></path>
                    <path d="M352.429428,273.319039 C352.334805,276.820702 349.212258,279.56525 345.521975,279.37597 C342.494051,279.186691 340.790843,277.104621 340.696221,273.602957 C340.696221,269.817375 342.872541,266.69427 345.616598,266.788909 C349.212258,266.978189 352.429428,270.006654 352.429428,273.319039 Z"></path>
                    <path d="M122.401786,483.702773 C125.713578,483.608133 129.119993,486.35268 129.214616,488.813309 C129.214616,490.895379 126.186691,493.261368 123.442635,493.261368 C119.846974,493.261368 117.19754,491.179298 117.19754,488.150832 C117.102918,484.459889 119.941597,484.081331 122.401786,483.702773 Z"></path>
                    <path d="M73.4818799,197.796673 C70.9270686,197.702033 69.3184836,196.660998 69.4131063,193.821811 C69.6023516,190.225508 72.1571629,187.007763 74.9012195,187.197043 C77.5506535,187.386322 79.9162195,190.036229 79.8215969,192.686137 C79.6323516,195.336044 76.5098044,197.891312 73.4818799,197.796673 Z"></path>
                    <path d="M191.381692,457.771534 C191.66556,455.310906 192.611786,453.039556 195.734333,452.850277 C198.099899,452.660998 201.506314,456.63586 201.222446,459.475046 C201.033201,462.219593 199.329994,463.733826 196.68056,463.923105 C193.936503,464.112384 191.381692,461.178558 191.381692,457.771534 Z"></path>
                    <path d="M40.6478232,319.124584 C38.7553703,320.354898 36.8629175,322.15305 34.7812194,322.626248 C32.4156533,323.288725 29.3877288,319.787061 29.4823514,317.231793 C29.6715967,314.581885 32.226408,312.310536 34.875842,312.405176 C37.3360307,312.594455 40.17471,315.71756 40.6478232,319.124584 Z"></path>
                    <path d="M344.575749,437.613309 C344.575749,440.831054 342.777919,442.061368 340.128485,442.156007 C337.195183,442.250647 335.775843,440.357856 335.681221,437.707948 C335.586598,435.058041 337.10056,433.07061 339.844617,432.881331 C342.967164,432.786691 344.008013,435.24732 344.575749,437.613309 Z"></path>
                    <path d="M347.603673,431.083179 C344.764994,431.083179 342.494051,430.231423 342.494051,427.202957 C342.494051,424.363771 344.386504,423.133457 347.13056,423.133457 C349.779994,423.133457 351.76707,424.174492 351.956315,427.108318 C352.14556,430.231423 349.969239,430.8939 347.603673,431.083179 Z"></path>
                    <path d="M50.2993326,305.969686 C50.8670685,307.10536 52.0971628,308.714233 52.1917855,310.417745 C52.2864081,313.446211 50.20471,315.244362 47.3660307,314.865804 C46.0413137,314.676525 44.2434836,312.878373 43.864993,311.55342 C43.3918798,309.092791 46.7982949,305.780407 50.2993326,305.969686 Z"></path>
                    <path d="M140.853201,491.463216 C139.149993,489.002588 137.352163,487.677634 137.257541,486.163401 C137.068295,483.608133 138.771503,481.620702 141.610182,481.620702 C144.259616,481.620702 146.719805,483.134935 146.246691,485.690203 C145.962824,487.488355 143.31339,488.907948 140.853201,491.463216 Z"></path>
                    <path d="M348.076787,248.618115 C345.427353,250.700185 344.102636,252.498336 342.399428,252.876895 C340.128485,253.444732 338.425277,251.83586 338.425277,249.375231 C338.425277,246.725323 339.749994,244.359335 342.399428,244.453974 C343.91339,244.453974 345.427353,246.536044 348.076787,248.618115 Z"></path>
                    <path d="M210.968579,455.500185 C212.198673,457.676895 213.618012,459.664325 214.374994,461.935675 C214.564239,462.314233 212.009428,464.490943 210.873956,464.396303 C208.413767,464.301664 205.575088,463.260628 206.142824,459.948244 C206.426692,458.339372 208.129899,456.919778 209.170748,455.405545 C209.833107,455.500185 210.400843,455.500185 210.968579,455.500185 Z"></path>
                    <path d="M203.87188,202.71793 C202.07405,200.351941 200.181597,198.932348 199.897729,197.228835 C199.424616,194.578928 201.979428,193.916451 204.061126,193.916451 C206.805182,193.821811 208.88688,195.525323 208.50839,198.175231 C208.319145,199.500185 206.048201,200.63586 203.87188,202.71793 Z"></path>
                    <path d="M196.302069,190.036229 C194.882729,190.793346 193.46339,192.02366 191.949428,192.118299 C188.82688,192.402218 187.880654,189.94159 188.164522,187.480961 C188.353767,186.250647 190.624711,183.979298 190.908578,184.168577 C192.895654,185.209612 194.598861,186.818484 196.491314,188.332717 C196.396692,188.805915 196.302069,189.373752 196.302069,190.036229 Z"></path>
                    <path d="M182.01405,186.250647 C180.689333,186.913124 179.364616,188.048799 177.945277,188.143438 C175.106597,188.238078 173.592635,186.250647 173.78188,183.600739 C173.876503,182.654344 176.147446,180.950832 176.809805,181.140111 C178.79688,181.802588 180.405465,183.41146 182.108673,184.547135 C182.203295,185.209612 182.108673,185.777449 182.01405,186.250647 Z"></path>
                    <path d="M277.109805,236.125693 C275.12273,238.018484 273.987258,239.154159 272.757164,240.195194 C271.716315,238.87024 269.918484,237.450647 269.918484,236.220333 C269.918484,234.800739 271.810937,233.570425 272.851786,232.150832 C274.081881,233.286506 275.311975,234.422181 277.109805,236.125693 Z"></path>
                    <path d="M319.595371,190.414787 C340.033862,190.887985 359.620749,186.345287 378.6399,179.341959 C387.345183,176.124214 396.145089,173.001109 404.566504,169.215527 C411.095466,166.281701 411.190089,160.792606 405.039617,157.196303 C402.484806,155.77671 399.551504,155.019593 396.712825,154.167837 C392.170938,152.842884 390.751598,150.855453 391.319334,146.312754 C392.076315,140.918299 390.562353,138.457671 385.07424,137.984473 C378.734523,137.416636 372.20556,137.700555 365.771221,137.511275 C364.541126,137.511275 363.216409,137.038078 361.986315,136.754159 C362.837919,135.997043 363.689522,134.766728 364.635749,134.48281 C374.854994,131.454344 385.07424,129.088355 395.388108,134.48281 C397.942919,135.807763 399.267636,137.700555 399.078391,140.445102 C398.6999,144.609242 400.49773,145.839556 404.566504,145.934196 C413.650277,146.218115 420.368485,152.653604 421.125466,161.549723 C421.693202,168.174492 417.908296,173.001109 413.366409,176.97597 C408.824523,180.856192 403.525655,183.41146 397.185938,183.790018 C394.725749,183.979298 392.454806,186.061368 389.899994,186.534566 C375.611975,189.279113 361.323956,192.307579 346.941315,194.20037 C337.005937,195.430684 326.881315,194.957486 316.756692,195.052126 C315.526598,195.052126 314.107258,194.20037 313.161032,193.348614 C312.498673,192.780776 312.309428,191.550462 311.836315,190.604067 C312.687919,190.414787 313.539522,189.94159 314.391126,189.94159 C316.188956,190.130869 317.892164,190.320148 319.595371,190.414787 Z"></path>
                </g>
            </g>
        </g>
    </g>
</svg>
